M48
;Layer_Color=9474304
;FILE_FORMAT=2:5
INCH,LZ
;TYPE=PLATED
T1F00S00C0.01181
T2F00S00C0.01575
T3F00S00C0.03000
T4F00S00C0.03937
;TYPE=NON_PLATED
T5F00S00C0.02362
T6F00S00C0.02953
%
T01
X0019475Y00075
X00215
X0023525
X00282Y00117
X00302
Y0013725
X00282
Y001575
X00302
Y0017775
X00282
Y00198
X00302
X0022626Y0022
X002Y00215
Y001962
X0025776Y00326
X0028925
X0032075
X0036Y00315
X0038
X0047429Y00284
X0052Y00175
X00598Y00427
X00283Y00413
Y00443
X00241Y00356
X00664Y00332
X00803Y00294
X008238
X008446
X008654
X008862
X00907
X00919Y00427
X00842Y00441
X0102Y00375
X01057Y003
X0119Y00355
Y00385
Y00415
X0122
Y00385
Y00355
Y00035
X0124
X0126
X0128
Y00055
X013
Y00075
X0132
Y00095
X0134
Y00075
Y00055
X0132
Y00035
X0134
X0136
Y00055
Y00075
Y00095
Y00115
X0134
X0136Y00135
X013Y00035
X012
X0118
X0116
X0114
X0112
X011
X0108
X0106
X0104
X0102
X01
X008Y00175
X00833Y00468
X00769Y00484
X00664
X0066Y00675
X0068
X007
X00761Y0071291
Y0074246
Y00772
X0076Y00835
X00832Y0084067
Y00861
Y0088133
Y0090167
X009Y00882
X00966Y00925
X01047Y0097
X01023Y010255
X01032Y01052
X01058Y0107
X01119Y01071
X01046Y0113
X01051Y01216
X0099867Y0125
X0097827
X0095787
X0093747
X0091707
X0089667
X00892Y01162
X00961Y01342
X00819Y0134
X01002Y01464
X0112Y01495
X0116
X0119Y0142
Y0139
Y0136
Y0133
X0122
X0125
Y0136
Y0139
Y0142
X0122
Y0139
Y0136
Y0124287
Y0122247
Y0120207
Y0118167
X0112Y01255
X011
X01135Y0093
X01133Y00807
X01103
X01073
X01043
X01013
X01179Y00808
Y00784
X01209
Y00808
X01239
Y00784
X01222Y00855
X01209Y00609
Y00585
X01239
Y00609
X01179
Y00585
X01019Y00468
X00832Y0057
Y0059033
Y0061067
Y00631
X0066Y00815
X0064Y00675
X0062
X0047358Y00752
X004Y00755
X0028925Y0068
X0025776Y007
X0022626Y0072
X00203Y00767
X0018Y00783
X0009549Y0080525
X0008Y00855
X0016835Y0090035
X0014Y0100251
X00223Y0101847
X00245Y0107752
X0036Y01115
X0042
X0048
Y01175
X0042
X0036
X00604
X00534Y00499
X00032Y00514
X0008Y00581
T02
X0056902Y0019
X0060051
X0063201
X0061626Y0021756
X0055327
X0064776
X0067925
X0071075
X007265Y0019
X00695
X0075799
X0077374Y0021756
T03
X0092Y0011665
X0102
X0112
X0122
Y0021665
X0112
X0102
X0092
T04
X0015595Y00075
X0027406
T05
X004824Y0006992
Y0018803
X0084461
Y0006992
T06
X0052177Y0024315
X0080524
M30
