G04*
G04 #@! TF.GenerationSoftware,Altium Limited,Altium Designer,19.1.5 (86)*
G04*
G04 Layer_Color=8388736*
%FSLAX25Y25*%
%MOIN*%
G70*
G01*
G75*
%ADD48C,0.03800*%
%ADD49R,0.07099X0.03950*%
%ADD50R,0.03950X0.07099*%
%ADD51R,0.05682X0.02375*%
%ADD52R,0.04343X0.04540*%
%ADD53R,0.05721X0.07887*%
%ADD54R,0.05800X0.03000*%
%ADD55R,0.04737X0.04147*%
%ADD56R,0.04619X0.04895*%
%ADD57R,0.04540X0.04343*%
%ADD58R,0.05958X0.13556*%
%ADD59R,0.05958X0.04461*%
%ADD60R,0.04737X0.06509*%
%ADD61R,0.05524X0.03359*%
%ADD62R,0.04816X0.06587*%
%ADD63R,0.02572X0.06607*%
%ADD64R,0.06804X0.03556*%
%ADD65R,0.10694X0.14194*%
%ADD66R,0.04776X0.01863*%
%ADD67R,0.01863X0.04776*%
%ADD68R,0.13595X0.13595*%
%ADD69R,0.06706X0.02965*%
%ADD70R,0.02965X0.06706*%
%ADD71R,0.01981X0.05131*%
%ADD72R,0.02769X0.07493*%
%ADD73R,0.04737X0.03950*%
%ADD74R,0.03556X0.05131*%
%ADD75R,0.03162X0.06154*%
%ADD76R,0.03359X0.04934*%
%ADD77C,0.03753*%
%ADD78C,0.03162*%
%ADD79C,0.03359*%
%ADD80C,0.05524*%
%ADD81C,0.06800*%
G36*
X46567Y5024D02*
Y8961D01*
Y9004D01*
X46571Y9092D01*
X46581Y9179D01*
X46594Y9266D01*
X46613Y9351D01*
X46635Y9436D01*
X46662Y9519D01*
X46694Y9601D01*
X46729Y9681D01*
X46769Y9759D01*
X46813Y9835D01*
X46861Y9909D01*
X46912Y9980D01*
X46967Y10048D01*
X47026Y10113D01*
X47088Y10175D01*
X47153Y10233D01*
X47221Y10289D01*
X47292Y10340D01*
X47366Y10388D01*
X47442Y10432D01*
X47520Y10471D01*
X47600Y10507D01*
X47681Y10538D01*
X47765Y10565D01*
X47849Y10588D01*
X47935Y10606D01*
X48022Y10620D01*
X48109Y10629D01*
X48196Y10634D01*
X48240D01*
X48284D01*
X48371Y10629D01*
X48459Y10620D01*
X48545Y10606D01*
X48631Y10588D01*
X48716Y10565D01*
X48799Y10538D01*
X48881Y10507D01*
X48961Y10471D01*
X49039Y10432D01*
X49115Y10388D01*
X49188Y10340D01*
X49259Y10289D01*
X49327Y10233D01*
X49392Y10175D01*
X49454Y10113D01*
X49513Y10048D01*
X49568Y9980D01*
X49620Y9909D01*
X49667Y9835D01*
X49711Y9759D01*
X49751Y9681D01*
X49786Y9601D01*
X49818Y9519D01*
X49845Y9436D01*
X49868Y9351D01*
X49886Y9266D01*
X49900Y9179D01*
X49909Y9092D01*
X49913Y9004D01*
Y8961D01*
Y5024D01*
Y4980D01*
X49909Y4892D01*
X49900Y4805D01*
X49886Y4719D01*
X49868Y4633D01*
X49845Y4548D01*
X49818Y4465D01*
X49786Y4383D01*
X49751Y4303D01*
X49711Y4225D01*
X49667Y4149D01*
X49620Y4076D01*
X49568Y4005D01*
X49513Y3937D01*
X49454Y3872D01*
X49392Y3810D01*
X49327Y3751D01*
X49259Y3696D01*
X49188Y3644D01*
X49115Y3596D01*
X49039Y3553D01*
X48961Y3513D01*
X48881Y3477D01*
X48799Y3446D01*
X48716Y3419D01*
X48631Y3396D01*
X48545Y3378D01*
X48459Y3364D01*
X48371Y3355D01*
X48284Y3350D01*
X48240D01*
X48196D01*
X48109Y3355D01*
X48022Y3364D01*
X47935Y3378D01*
X47849Y3396D01*
X47765Y3419D01*
X47681Y3446D01*
X47600Y3477D01*
X47520Y3513D01*
X47442Y3553D01*
X47366Y3596D01*
X47292Y3644D01*
X47221Y3696D01*
X47153Y3751D01*
X47088Y3810D01*
X47026Y3872D01*
X46967Y3937D01*
X46912Y4005D01*
X46861Y4075D01*
X46813Y4149D01*
X46769Y4225D01*
X46729Y4303D01*
X46694Y4383D01*
X46662Y4465D01*
X46635Y4548D01*
X46613Y4633D01*
X46594Y4719D01*
X46581Y4805D01*
X46571Y4892D01*
X46567Y4980D01*
Y5024D01*
D01*
D02*
G37*
G36*
Y16835D02*
Y20772D01*
Y20816D01*
X46571Y20903D01*
X46581Y20990D01*
X46594Y21077D01*
X46613Y21162D01*
X46635Y21247D01*
X46662Y21330D01*
X46694Y21412D01*
X46729Y21492D01*
X46769Y21570D01*
X46813Y21646D01*
X46861Y21720D01*
X46912Y21791D01*
X46967Y21859D01*
X47026Y21924D01*
X47088Y21986D01*
X47153Y22044D01*
X47221Y22100D01*
X47292Y22151D01*
X47366Y22199D01*
X47442Y22243D01*
X47520Y22282D01*
X47600Y22318D01*
X47681Y22349D01*
X47765Y22377D01*
X47849Y22399D01*
X47935Y22417D01*
X48022Y22431D01*
X48109Y22440D01*
X48196Y22445D01*
X48240D01*
X48284D01*
X48371Y22440D01*
X48459Y22431D01*
X48545Y22417D01*
X48631Y22399D01*
X48716Y22377D01*
X48799Y22349D01*
X48881Y22318D01*
X48961Y22282D01*
X49039Y22243D01*
X49115Y22199D01*
X49188Y22151D01*
X49259Y22100D01*
X49327Y22044D01*
X49392Y21986D01*
X49454Y21924D01*
X49513Y21859D01*
X49568Y21791D01*
X49620Y21720D01*
X49667Y21646D01*
X49711Y21570D01*
X49751Y21492D01*
X49786Y21412D01*
X49818Y21330D01*
X49845Y21247D01*
X49868Y21162D01*
X49886Y21077D01*
X49900Y20990D01*
X49909Y20903D01*
X49913Y20816D01*
Y20772D01*
Y16835D01*
Y16791D01*
X49909Y16703D01*
X49900Y16616D01*
X49886Y16530D01*
X49868Y16444D01*
X49845Y16359D01*
X49818Y16276D01*
X49786Y16194D01*
X49751Y16114D01*
X49711Y16036D01*
X49667Y15960D01*
X49620Y15887D01*
X49568Y15816D01*
X49513Y15748D01*
X49454Y15683D01*
X49392Y15620D01*
X49327Y15562D01*
X49259Y15507D01*
X49188Y15455D01*
X49115Y15407D01*
X49039Y15364D01*
X48961Y15324D01*
X48881Y15288D01*
X48799Y15257D01*
X48716Y15230D01*
X48631Y15207D01*
X48545Y15189D01*
X48459Y15175D01*
X48371Y15166D01*
X48284Y15161D01*
X48240D01*
X48196D01*
X48109Y15166D01*
X48022Y15175D01*
X47935Y15189D01*
X47849Y15207D01*
X47765Y15230D01*
X47681Y15257D01*
X47600Y15288D01*
X47520Y15324D01*
X47442Y15364D01*
X47366Y15407D01*
X47292Y15455D01*
X47221Y15507D01*
X47153Y15562D01*
X47088Y15620D01*
X47026Y15683D01*
X46967Y15748D01*
X46912Y15816D01*
X46861Y15887D01*
X46813Y15960D01*
X46769Y16036D01*
X46729Y16114D01*
X46694Y16194D01*
X46662Y16276D01*
X46635Y16359D01*
X46613Y16444D01*
X46594Y16530D01*
X46581Y16616D01*
X46571Y16703D01*
X46567Y16791D01*
Y16835D01*
D01*
D02*
G37*
G36*
X82787Y5024D02*
Y8961D01*
Y9004D01*
X82792Y9092D01*
X82801Y9179D01*
X82815Y9266D01*
X82833Y9351D01*
X82856Y9436D01*
X82883Y9519D01*
X82914Y9601D01*
X82950Y9681D01*
X82990Y9759D01*
X83034Y9835D01*
X83081Y9909D01*
X83133Y9980D01*
X83188Y10048D01*
X83246Y10113D01*
X83309Y10175D01*
X83374Y10233D01*
X83442Y10289D01*
X83513Y10340D01*
X83586Y10388D01*
X83662Y10432D01*
X83740Y10471D01*
X83820Y10507D01*
X83902Y10538D01*
X83985Y10565D01*
X84070Y10588D01*
X84156Y10606D01*
X84242Y10620D01*
X84329Y10629D01*
X84417Y10634D01*
X84461D01*
X84504D01*
X84592Y10629D01*
X84679Y10620D01*
X84766Y10606D01*
X84851Y10588D01*
X84936Y10565D01*
X85019Y10538D01*
X85101Y10507D01*
X85181Y10471D01*
X85259Y10432D01*
X85335Y10388D01*
X85409Y10340D01*
X85480Y10289D01*
X85548Y10233D01*
X85613Y10175D01*
X85675Y10113D01*
X85733Y10048D01*
X85789Y9980D01*
X85840Y9909D01*
X85888Y9835D01*
X85932Y9759D01*
X85971Y9681D01*
X86007Y9601D01*
X86038Y9519D01*
X86066Y9436D01*
X86088Y9351D01*
X86106Y9266D01*
X86120Y9179D01*
X86129Y9092D01*
X86134Y9004D01*
Y8961D01*
Y5024D01*
Y4980D01*
X86129Y4892D01*
X86120Y4805D01*
X86106Y4719D01*
X86088Y4633D01*
X86066Y4548D01*
X86038Y4465D01*
X86007Y4383D01*
X85971Y4303D01*
X85932Y4225D01*
X85888Y4149D01*
X85840Y4076D01*
X85789Y4005D01*
X85733Y3937D01*
X85675Y3872D01*
X85613Y3810D01*
X85548Y3751D01*
X85480Y3696D01*
X85409Y3644D01*
X85335Y3596D01*
X85259Y3553D01*
X85181Y3513D01*
X85101Y3477D01*
X85019Y3446D01*
X84936Y3419D01*
X84851Y3396D01*
X84766Y3378D01*
X84679Y3364D01*
X84592Y3355D01*
X84504Y3350D01*
X84461D01*
X84417D01*
X84329Y3355D01*
X84242Y3364D01*
X84156Y3378D01*
X84070Y3396D01*
X83985Y3419D01*
X83902Y3446D01*
X83820Y3477D01*
X83740Y3513D01*
X83662Y3553D01*
X83586Y3596D01*
X83513Y3644D01*
X83442Y3696D01*
X83374Y3751D01*
X83309Y3810D01*
X83246Y3872D01*
X83188Y3937D01*
X83133Y4005D01*
X83081Y4075D01*
X83034Y4149D01*
X82990Y4225D01*
X82950Y4303D01*
X82914Y4383D01*
X82883Y4465D01*
X82856Y4548D01*
X82833Y4633D01*
X82815Y4719D01*
X82801Y4805D01*
X82792Y4892D01*
X82787Y4980D01*
Y5024D01*
D01*
D02*
G37*
G36*
Y16835D02*
Y20772D01*
Y20816D01*
X82792Y20903D01*
X82801Y20990D01*
X82815Y21077D01*
X82833Y21162D01*
X82856Y21247D01*
X82883Y21330D01*
X82914Y21412D01*
X82950Y21492D01*
X82990Y21570D01*
X83034Y21646D01*
X83081Y21720D01*
X83133Y21791D01*
X83188Y21859D01*
X83246Y21924D01*
X83309Y21986D01*
X83374Y22044D01*
X83442Y22100D01*
X83513Y22151D01*
X83586Y22199D01*
X83662Y22243D01*
X83740Y22282D01*
X83820Y22318D01*
X83902Y22349D01*
X83985Y22377D01*
X84070Y22399D01*
X84156Y22417D01*
X84242Y22431D01*
X84329Y22440D01*
X84417Y22445D01*
X84461D01*
X84504D01*
X84592Y22440D01*
X84679Y22431D01*
X84766Y22417D01*
X84851Y22399D01*
X84936Y22377D01*
X85019Y22349D01*
X85101Y22318D01*
X85181Y22282D01*
X85259Y22243D01*
X85335Y22199D01*
X85409Y22151D01*
X85480Y22100D01*
X85548Y22044D01*
X85613Y21986D01*
X85675Y21924D01*
X85733Y21859D01*
X85789Y21791D01*
X85840Y21720D01*
X85888Y21646D01*
X85932Y21570D01*
X85971Y21492D01*
X86007Y21412D01*
X86038Y21330D01*
X86066Y21247D01*
X86088Y21162D01*
X86106Y21077D01*
X86120Y20990D01*
X86129Y20903D01*
X86134Y20816D01*
Y20772D01*
Y16835D01*
Y16791D01*
X86129Y16703D01*
X86120Y16616D01*
X86106Y16530D01*
X86088Y16444D01*
X86066Y16359D01*
X86038Y16276D01*
X86007Y16194D01*
X85971Y16114D01*
X85932Y16036D01*
X85888Y15960D01*
X85840Y15887D01*
X85789Y15816D01*
X85733Y15748D01*
X85675Y15683D01*
X85613Y15620D01*
X85548Y15562D01*
X85480Y15507D01*
X85409Y15455D01*
X85335Y15407D01*
X85259Y15364D01*
X85181Y15324D01*
X85101Y15288D01*
X85019Y15257D01*
X84936Y15230D01*
X84851Y15207D01*
X84766Y15189D01*
X84679Y15175D01*
X84592Y15166D01*
X84504Y15161D01*
X84461D01*
X84417D01*
X84329Y15166D01*
X84242Y15175D01*
X84156Y15189D01*
X84070Y15207D01*
X83985Y15230D01*
X83902Y15257D01*
X83820Y15288D01*
X83740Y15324D01*
X83662Y15364D01*
X83586Y15407D01*
X83513Y15455D01*
X83442Y15507D01*
X83374Y15562D01*
X83309Y15620D01*
X83246Y15683D01*
X83188Y15748D01*
X83133Y15816D01*
X83081Y15887D01*
X83034Y15960D01*
X82990Y16036D01*
X82950Y16114D01*
X82914Y16194D01*
X82883Y16276D01*
X82856Y16359D01*
X82833Y16444D01*
X82815Y16530D01*
X82801Y16616D01*
X82792Y16703D01*
X82787Y16791D01*
Y16835D01*
D01*
D02*
G37*
D48*
X100500Y133500D02*
D03*
D49*
X67831Y119563D02*
D03*
Y113657D02*
D03*
Y131374D02*
D03*
Y125469D02*
D03*
Y95941D02*
D03*
Y90035D02*
D03*
Y107752D02*
D03*
Y101847D02*
D03*
X9169Y131374D02*
D03*
Y125469D02*
D03*
Y119563D02*
D03*
Y107752D02*
D03*
Y113657D02*
D03*
Y101847D02*
D03*
Y95941D02*
D03*
Y90035D02*
D03*
D50*
X59169Y84130D02*
D03*
X47358D02*
D03*
X53264D02*
D03*
X17831D02*
D03*
X23736D02*
D03*
X35547D02*
D03*
X41453D02*
D03*
X29642D02*
D03*
D51*
X100181Y120100D02*
D03*
Y114900D02*
D03*
X92819Y120100D02*
D03*
Y117500D02*
D03*
Y114900D02*
D03*
X100181Y110408D02*
D03*
Y105290D02*
D03*
Y107850D02*
D03*
X92819D02*
D03*
Y110408D02*
D03*
Y105290D02*
D03*
X100181Y99886D02*
D03*
Y94768D02*
D03*
Y97327D02*
D03*
X92819D02*
D03*
Y99886D02*
D03*
Y94768D02*
D03*
D52*
X85953Y101638D02*
D03*
X80047D02*
D03*
X124554Y161689D02*
D03*
Y155783D02*
D03*
X85953Y107425D02*
D03*
X80047D02*
D03*
X85953Y95850D02*
D03*
X80047D02*
D03*
X85953Y113213D02*
D03*
X80047D02*
D03*
X85953Y119000D02*
D03*
X80047D02*
D03*
X103000Y67000D02*
D03*
X97095D02*
D03*
X103000Y72000D02*
D03*
X97095D02*
D03*
X87153Y34567D02*
D03*
X81247D02*
D03*
X87153Y41000D02*
D03*
X81247D02*
D03*
X87153Y47500D02*
D03*
X81247D02*
D03*
X4000Y74453D02*
D03*
Y68547D02*
D03*
X3972Y56547D02*
D03*
Y62453D02*
D03*
D53*
X95000Y160153D02*
D03*
Y149917D02*
D03*
X83000Y160118D02*
D03*
Y149882D02*
D03*
D54*
X96100Y137700D02*
D03*
Y130300D02*
D03*
X85900Y137700D02*
D03*
Y134000D02*
D03*
Y130300D02*
D03*
D55*
X102500Y158185D02*
D03*
Y151886D02*
D03*
D56*
X108500Y161650D02*
D03*
Y155823D02*
D03*
X132787Y161650D02*
D03*
Y155823D02*
D03*
X75400Y42913D02*
D03*
Y37087D02*
D03*
X56000Y42913D02*
D03*
Y37087D02*
D03*
D57*
X116556Y161689D02*
D03*
Y155783D02*
D03*
X103000Y62000D02*
D03*
X97095D02*
D03*
X103000Y77000D02*
D03*
X97095D02*
D03*
X15000Y74453D02*
D03*
Y68547D02*
D03*
X9549Y74453D02*
D03*
Y68547D02*
D03*
D58*
X131669Y137500D02*
D03*
D59*
X105331Y146516D02*
D03*
Y137500D02*
D03*
Y128484D02*
D03*
D60*
X117740Y111500D02*
D03*
X110260D02*
D03*
X102902Y85500D02*
D03*
X95421D02*
D03*
X118728Y53500D02*
D03*
X111248D02*
D03*
D61*
X118921Y100500D02*
D03*
Y104240D02*
D03*
Y96760D02*
D03*
X109079Y104240D02*
D03*
Y100500D02*
D03*
Y96760D02*
D03*
D62*
X117189Y119577D02*
D03*
X110811D02*
D03*
X117989Y85500D02*
D03*
X111611D02*
D03*
X132689D02*
D03*
X126311D02*
D03*
X132689Y53500D02*
D03*
X126311D02*
D03*
D63*
X133339Y119567D02*
D03*
X128220D02*
D03*
X125661D02*
D03*
X130780D02*
D03*
Y96433D02*
D03*
X128220D02*
D03*
X133339D02*
D03*
X125661D02*
D03*
D64*
X131695Y72000D02*
D03*
Y77000D02*
D03*
Y67000D02*
D03*
Y62000D02*
D03*
X110340Y72000D02*
D03*
Y77000D02*
D03*
Y67000D02*
D03*
Y62000D02*
D03*
X131677Y45000D02*
D03*
Y40000D02*
D03*
Y35000D02*
D03*
Y30000D02*
D03*
X110323D02*
D03*
Y35000D02*
D03*
Y40000D02*
D03*
Y45000D02*
D03*
D65*
X121018Y69500D02*
D03*
D66*
X74657Y67905D02*
D03*
Y65937D02*
D03*
Y62000D02*
D03*
Y60031D02*
D03*
Y63968D02*
D03*
Y58063D02*
D03*
Y56094D02*
D03*
X56075Y67905D02*
D03*
Y65937D02*
D03*
Y63968D02*
D03*
Y60031D02*
D03*
Y58063D02*
D03*
Y62000D02*
D03*
Y56094D02*
D03*
D67*
X69303Y71291D02*
D03*
X71272D02*
D03*
X61429D02*
D03*
X67335D02*
D03*
X65366D02*
D03*
X63398D02*
D03*
X69303Y52709D02*
D03*
X71272D02*
D03*
X67335D02*
D03*
X63398D02*
D03*
X65366D02*
D03*
X61429D02*
D03*
X59461Y71291D02*
D03*
Y52709D02*
D03*
D68*
X65366Y62000D02*
D03*
D69*
X47429Y54524D02*
D03*
Y51374D02*
D03*
Y48224D02*
D03*
Y45075D02*
D03*
Y38776D02*
D03*
Y41925D02*
D03*
Y32476D02*
D03*
Y35626D02*
D03*
X13571Y48224D02*
D03*
Y54524D02*
D03*
Y51374D02*
D03*
Y45075D02*
D03*
Y38776D02*
D03*
Y41925D02*
D03*
Y35626D02*
D03*
Y32476D02*
D03*
D70*
X41524Y60429D02*
D03*
X35224D02*
D03*
X32075D02*
D03*
X38374D02*
D03*
X41524Y26571D02*
D03*
X35224D02*
D03*
X32075D02*
D03*
X38374D02*
D03*
X28925Y60429D02*
D03*
X25776D02*
D03*
X22626D02*
D03*
X19476D02*
D03*
X28925Y26571D02*
D03*
X25776D02*
D03*
X22626D02*
D03*
X19476D02*
D03*
D71*
X77177Y26913D02*
D03*
X75209D02*
D03*
X69303D02*
D03*
X67335D02*
D03*
X73240D02*
D03*
X71272D02*
D03*
X61429D02*
D03*
X59461D02*
D03*
X65366D02*
D03*
X63398D02*
D03*
X57492D02*
D03*
X55524D02*
D03*
D72*
X13949Y24000D02*
D03*
X4500D02*
D03*
X9224D02*
D03*
D73*
X36264Y2972D02*
D03*
Y12028D02*
D03*
X6736Y2972D02*
D03*
Y12028D02*
D03*
D74*
X30358Y15571D02*
D03*
X24453D02*
D03*
X12642D02*
D03*
D75*
X62660Y35400D02*
D03*
X66400D02*
D03*
X70140D02*
D03*
Y44652D02*
D03*
X66400D02*
D03*
X62660D02*
D03*
D76*
X101232Y51169D02*
D03*
X92768D02*
D03*
X101232Y34831D02*
D03*
X92768D02*
D03*
D77*
X80524Y24315D02*
D03*
X52177D02*
D03*
D78*
X84461Y18803D02*
D03*
Y6992D02*
D03*
X48240Y18803D02*
D03*
Y6992D02*
D03*
D79*
X77374Y21756D02*
D03*
X75799Y19000D02*
D03*
X72650D02*
D03*
X71075Y21756D02*
D03*
X69500Y19000D02*
D03*
X67925Y21756D02*
D03*
X64776D02*
D03*
X63201Y19000D02*
D03*
X61626Y21756D02*
D03*
X55327D02*
D03*
X60051Y19000D02*
D03*
X56902D02*
D03*
D80*
X27406Y7500D02*
D03*
X15595D02*
D03*
D81*
X122000Y11665D02*
D03*
X112000D02*
D03*
X102000D02*
D03*
X92000D02*
D03*
Y21665D02*
D03*
X102000D02*
D03*
X112000D02*
D03*
X122000D02*
D03*
M02*
