G04*
G04 #@! TF.GenerationSoftware,Altium Limited,Altium Designer,19.1.5 (86)*
G04*
G04 Layer_Physical_Order=2*
G04 Layer_Color=16711680*
%FSLAX25Y25*%
%MOIN*%
G70*
G01*
G75*
%ADD14C,0.00800*%
%ADD16C,0.01000*%
%ADD82C,0.03500*%
%ADD84C,0.02953*%
%ADD85C,0.02362*%
%ADD86C,0.02559*%
%ADD87C,0.04724*%
%ADD88C,0.06000*%
%ADD89C,0.01968*%
%ADD90R,0.05906X0.09843*%
%ADD91R,0.04331X0.07480*%
%ADD92O,0.05906X0.04724*%
%ADD93O,0.04000X0.05000*%
%ADD94C,0.03500*%
%ADD95R,0.15000X0.15000*%
%ADD96C,0.02500*%
%ADD97C,0.02000*%
G36*
X31592Y20881D02*
X31600Y20876D01*
Y10520D01*
X31500Y10500D01*
X23800D01*
Y11680D01*
X23800Y11680D01*
X23800Y11680D01*
Y12700D01*
X18600D01*
X18517Y12717D01*
X18500Y12800D01*
Y18400D01*
X19154D01*
X19421Y18222D01*
X20000Y18106D01*
X20579Y18222D01*
X20846Y18400D01*
X23800D01*
Y20900D01*
X31500D01*
X31592Y20881D01*
D02*
G37*
G36*
X92000Y27670D02*
X80965D01*
X80575Y27592D01*
X80524Y27558D01*
X80472Y27592D01*
X80082Y27670D01*
X79100D01*
Y31200D01*
X92000D01*
Y27670D01*
D02*
G37*
G36*
X85300Y83000D02*
X81100D01*
Y91300D01*
X85300D01*
Y83000D01*
D02*
G37*
G36*
X85000Y55900D02*
X81700Y55900D01*
X81700Y64200D01*
X85000Y64200D01*
X85000Y55900D01*
D02*
G37*
G36*
X137483Y144983D02*
X137500Y144900D01*
Y32100D01*
X137483Y32017D01*
X137400Y32000D01*
X115100D01*
X115017Y32017D01*
X115000Y32100D01*
Y33500D01*
Y33500D01*
Y33500D01*
X115000Y40000D01*
X26800D01*
X26717Y40017D01*
X26700Y40100D01*
X26700Y45200D01*
X81099Y45200D01*
X81099D01*
X129480D01*
D01*
X130500D01*
X130500Y126100D01*
Y126100D01*
Y129480D01*
D01*
Y130500D01*
X116520D01*
X116500Y130600D01*
Y144900D01*
X116517Y144983D01*
X116600Y145000D01*
X137400D01*
X137483Y144983D01*
D02*
G37*
%LPC*%
G36*
X91900Y44213D02*
X91321Y44098D01*
X90830Y43770D01*
X90796Y43720D01*
X89300D01*
X88910Y43642D01*
X88579Y43421D01*
X88293Y43135D01*
X76272D01*
X75987Y43421D01*
X75656Y43642D01*
X75266Y43720D01*
X60904D01*
X60870Y43770D01*
X60379Y44098D01*
X59800Y44213D01*
X59221Y44098D01*
X58730Y43770D01*
X58402Y43279D01*
X58287Y42700D01*
X58402Y42121D01*
X58730Y41630D01*
X59221Y41302D01*
X59800Y41187D01*
X60379Y41302D01*
X60870Y41630D01*
X60904Y41680D01*
X74843D01*
X75129Y41395D01*
X75460Y41174D01*
X75850Y41096D01*
X88716D01*
X89106Y41174D01*
X89437Y41395D01*
X89722Y41680D01*
X90796D01*
X90830Y41630D01*
X91321Y41302D01*
X91900Y41187D01*
X92479Y41302D01*
X92970Y41630D01*
X93298Y42121D01*
X93413Y42700D01*
X93298Y43279D01*
X92970Y43770D01*
X92479Y44098D01*
X91900Y44213D01*
D02*
G37*
%LPD*%
D14*
X124750Y124287D02*
G03*
X124718Y124702I-2750J0D01*
G01*
X119919Y126084D02*
G03*
X119250Y124287I2081J-1798D01*
G01*
X101700Y145260D02*
G03*
X102084Y146400I-1500J1140D01*
G01*
D02*
G03*
X98700Y145260I-1884J0D01*
G01*
X101261Y140140D02*
G03*
X101700Y141200I-1061J1060D01*
G01*
X101261Y140139D02*
G03*
X101700Y141200I-1061J1061D01*
G01*
X102617Y125000D02*
G03*
X101046Y127484I-2750J0D01*
G01*
X104110Y125490D02*
G03*
X103700Y124500I990J-990D01*
G01*
X104110Y125490D02*
G03*
X103700Y124500I990J-990D01*
G01*
X99867Y122250D02*
G03*
X102617Y125000I0J2750D01*
G01*
X106984Y121600D02*
G03*
X106500Y122861I-1884J0D01*
G01*
X123944Y105956D02*
G03*
X124750Y107900I-1945J1945D01*
G01*
X123941Y105952D02*
G03*
X124750Y107900I-1941J1948D01*
G01*
X103700Y122861D02*
G03*
X106984Y121600I1400J-1261D01*
G01*
X106484Y113000D02*
G03*
X103050Y111929I-1884J0D01*
G01*
X106000Y111739D02*
G03*
X106484Y113000I-1400J1261D01*
G01*
X105590Y110510D02*
G03*
X106000Y111500I-990J990D01*
G01*
X105590Y110510D02*
G03*
X106000Y111500I-990J990D01*
G01*
X107684Y107000D02*
G03*
X104780Y108584I-1884J0D01*
G01*
X104360Y105784D02*
G03*
X107684Y107000I1440J1216D01*
G01*
X104184Y102550D02*
G03*
X101352Y104179I-1884J0D01*
G01*
X106402Y96191D02*
G03*
X106584Y97000I-1702J809D01*
G01*
X103700Y101289D02*
G03*
X104184Y102550I-1400J1261D01*
G01*
X106584Y97000D02*
G03*
X103700Y98597I-1884J0D01*
G01*
X100671Y103498D02*
G03*
X100900Y101289I1629J-948D01*
G01*
X95039Y138161D02*
G03*
X94600Y137100I1061J-1061D01*
G01*
X95039Y138160D02*
G03*
X94600Y137100I1061J-1060D01*
G01*
X76453Y136000D02*
G03*
X73090Y139362I-3362J0D01*
G01*
X97984Y134200D02*
G03*
X97600Y135340I-1884J0D01*
G01*
X94600D02*
G03*
X97984Y134200I1500J-1140D01*
G01*
X88384Y130284D02*
G03*
X87394Y129874I0J-1400D01*
G01*
X88384Y130284D02*
G03*
X87394Y129874I0J-1400D01*
G01*
X80492Y119012D02*
G03*
X80450Y118533I2708J-479D01*
G01*
X80492Y119012D02*
G03*
X80450Y118533I2708J-479D01*
G01*
X98484Y92500D02*
G03*
X95200Y91239I-1884J0D01*
G01*
X91847Y87827D02*
G03*
X91884Y88200I-1847J373D01*
G01*
D02*
G03*
X91400Y89461I-1884J0D01*
G01*
X87026Y95906D02*
G03*
X86616Y94916I990J-990D01*
G01*
X87026Y95906D02*
G03*
X86616Y94916I990J-990D01*
G01*
X89416Y86409D02*
G03*
X90373Y86353I584J1791D01*
G01*
X78057Y117157D02*
G03*
X79047Y117567I0J1400D01*
G01*
X78057Y117157D02*
G03*
X79047Y117567I0J1400D01*
G01*
X74780Y133093D02*
G03*
X76453Y136000I-1689J2907D01*
G01*
Y130186D02*
G03*
X74780Y133093I-3362J0D01*
G01*
X76453Y124371D02*
G03*
X74780Y127278I-3362J0D01*
G01*
D02*
G03*
X76453Y130186I-1689J2907D01*
G01*
X74780Y121464D02*
G03*
X76453Y124371I-1689J2907D01*
G01*
X75144Y115895D02*
G03*
X76147Y117157I-2054J2662D01*
G01*
Y119957D02*
G03*
X74780Y121464I-3057J-1400D01*
G01*
X75144Y109591D02*
G03*
X76853Y112743I-2054J3152D01*
G01*
D02*
G03*
X75144Y115895I-3762J0D01*
G01*
X76453Y106929D02*
G03*
X75144Y109591I-3362J0D01*
G01*
X74780Y104021D02*
G03*
X76453Y106929I-1689J2907D01*
G01*
X74780Y98207D02*
G03*
X76453Y101114I-1689J2907D01*
G01*
Y95300D02*
G03*
X74780Y98207I-3362J0D01*
G01*
X76453Y101114D02*
G03*
X74780Y104021I-3362J0D01*
G01*
X73090Y91938D02*
G03*
X76453Y95300I0J3362D01*
G01*
X125800Y81424D02*
G03*
X122400Y82123I-1900J-624D01*
G01*
D02*
G03*
X119400Y82123I-1500J-1323D01*
G01*
X122400Y57177D02*
G03*
X125800Y57876I1500J1323D01*
G01*
X119400Y57177D02*
G03*
X122400Y57177I1500J1323D01*
G01*
X125000Y47500D02*
G03*
X125990Y47910I0J1400D01*
G01*
X125000Y47500D02*
G03*
X125990Y47910I0J1400D01*
G01*
X119400Y82123D02*
G03*
X115974Y81340I-1500J-1323D01*
G01*
X115974D02*
G03*
X113300Y83450I-2674J-640D01*
G01*
Y77950D02*
G03*
X115900Y79804I0J2750D01*
G01*
Y58500D02*
G03*
X119400Y57177I2000J0D01*
G01*
X109245Y60291D02*
G03*
X110050Y62235I-1945J1945D01*
G01*
X109241Y60287D02*
G03*
X110050Y62235I-1941J1948D01*
G01*
X125900Y21665D02*
G03*
X125900Y21665I-3900J0D01*
G01*
X126400Y11665D02*
G03*
X126400Y11665I-4400J0D01*
G01*
X115900Y21665D02*
G03*
X110416Y25229I-3900J0D01*
G01*
X108400Y20165D02*
G03*
X115900Y21665I3600J1500D01*
G01*
X108465Y27180D02*
G03*
X107475Y27590I-990J-990D01*
G01*
X107584Y30000D02*
G03*
X105095Y31785I-1884J0D01*
G01*
X106477Y28283D02*
G03*
X107584Y30000I-777J1717D01*
G01*
X108465Y27180D02*
G03*
X107475Y27590I-990J-990D01*
G01*
X115900Y11665D02*
G03*
X110416Y15229I-3900J0D01*
G01*
X108436Y13249D02*
G03*
X115900Y11665I3564J-1584D01*
G01*
X105600Y16665D02*
G03*
X106010Y15675I1400J0D01*
G01*
X105600Y16665D02*
G03*
X106010Y15675I1400J0D01*
G01*
X98500Y19945D02*
G03*
X105600Y20165I3500J1720D01*
G01*
X105900Y11665D02*
G03*
X100416Y15229I-3900J0D01*
G01*
X98436Y13249D02*
G03*
X105900Y11665I3564J-1584D01*
G01*
X98553Y80564D02*
G03*
X101300Y77950I2747J136D01*
G01*
X75100Y81400D02*
G03*
X74110Y80990I0J-1400D01*
G01*
X74217Y77137D02*
G03*
X74930Y75723I1883J63D01*
G01*
X75100Y81400D02*
G03*
X74110Y80990I0J-1400D01*
G01*
X74930Y75723D02*
G03*
X74930Y72768I1170J-1477D01*
G01*
X79639Y61783D02*
G03*
X80214Y62225I-1374J2382D01*
G01*
X74930Y72768D02*
G03*
X77361Y69891I1170J-1477D01*
G01*
X79639Y61783D02*
G03*
X80210Y62221I-1374J2382D01*
G01*
X78784Y48400D02*
G03*
X78686Y49000I-1884J0D01*
G01*
X78691Y47816D02*
G03*
X78784Y48400I-1791J584D01*
G01*
X93584Y25229D02*
G03*
X95700Y20433I-1584J-3564D01*
G01*
X103266Y25354D02*
G03*
X98500Y23386I-1266J-3689D01*
G01*
X95700Y22898D02*
G03*
X95564Y23249I-3700J-1233D01*
G01*
X95700Y16565D02*
G03*
X96110Y15575I1400J0D01*
G01*
X95700Y16565D02*
G03*
X96110Y15575I1400J0D01*
G01*
X95900Y11665D02*
G03*
X95900Y11665I-3900J0D01*
G01*
X82900Y24315D02*
G03*
X81015Y26640I-2376J0D01*
G01*
X82900Y24315D02*
G03*
X81015Y26640I-2376J0D01*
G01*
X80032D02*
G03*
X78147Y24321I491J-2325D01*
G01*
X80044Y21988D02*
G03*
X82900Y24315I480J2327D01*
G01*
X80044Y21988D02*
G03*
X82900Y24315I480J2327D01*
G01*
X80032Y26640D02*
G03*
X78147Y24321I491J-2325D01*
G01*
D02*
G03*
X74819Y20947I-773J-2565D01*
G01*
X73228Y21102D02*
G03*
X73325Y21756I-2153J654D01*
G01*
X86542Y18803D02*
G03*
X86542Y18803I-2081J0D01*
G01*
D02*
G03*
X86542Y18803I-2081J0D01*
G01*
Y6992D02*
G03*
X86542Y6992I-2081J0D01*
G01*
D02*
G03*
X86542Y6992I-2081J0D01*
G01*
X77974Y19144D02*
G03*
X80054Y21756I-600J2612D01*
G01*
X74819Y20947D02*
G03*
X74224Y20507I980J-1947D01*
G01*
X74224D02*
G03*
X73228Y21102I-1575J-1507D01*
G01*
X74224Y17493D02*
G03*
X77979Y19000I1575J1507D01*
G01*
X71909Y139362D02*
G03*
X68853Y137400I0J-3362D01*
G01*
X70220Y133093D02*
G03*
X68618Y129500I1689J-2907D01*
G01*
X68853Y134600D02*
G03*
X70220Y133093I3057J1400D01*
G01*
X68607Y125000D02*
G03*
X70220Y121464I3303J-629D01*
G01*
D02*
G03*
X68853Y119957I1689J-2907D01*
G01*
X28300Y129500D02*
G03*
X27310Y129090I0J-1400D01*
G01*
X28300Y129500D02*
G03*
X27310Y129090I0J-1400D01*
G01*
X68853Y117157D02*
G03*
X69856Y115895I3057J1400D01*
G01*
Y109591D02*
G03*
X68941Y105350I2054J-2662D01*
G01*
X69856Y115895D02*
G03*
X69856Y109591I2054J-3152D01*
G01*
X68941Y96879D02*
G03*
X71909Y91938I2968J-1579D01*
G01*
X61773Y119957D02*
G03*
X60783Y119547I0J-1400D01*
G01*
X61773Y119957D02*
G03*
X60783Y119547I0J-1400D01*
G01*
X60609Y119373D02*
G03*
X62224Y117028I-209J-1873D01*
G01*
X35100Y104300D02*
G03*
X34110Y103890I0J-1400D01*
G01*
X35100Y104300D02*
G03*
X34110Y103890I0J-1400D01*
G01*
X70300Y73800D02*
G03*
X71290Y74210I0J1400D01*
G01*
X70300Y73800D02*
G03*
X71290Y74210I0J1400D01*
G01*
X48619Y76600D02*
G03*
X48619Y73800I-1261J-1400D01*
G01*
X25900Y106491D02*
G03*
X26384Y107752I-1400J1261D01*
G01*
D02*
G03*
X25900Y109013I-1884J0D01*
G01*
X27410Y97190D02*
G03*
X27000Y96200I990J-990D01*
G01*
X27410Y97190D02*
G03*
X27000Y96200I990J-990D01*
G01*
X25490Y86510D02*
G03*
X25900Y87500I-990J990D01*
G01*
X25490Y86510D02*
G03*
X25900Y87500I-990J990D01*
G01*
X32890Y82210D02*
G03*
X33300Y83200I-990J990D01*
G01*
X32890Y82210D02*
G03*
X33300Y83200I-990J990D01*
G01*
X30809Y68000D02*
G03*
X30325Y69261I-1884J0D01*
G01*
Y70156D02*
G03*
X29915Y71146I-1400J0D01*
G01*
X30325Y70156D02*
G03*
X29915Y71146I-1400J0D01*
G01*
X24059Y70776D02*
G03*
X27208Y68776I1717J-776D01*
G01*
X19100Y137400D02*
G03*
X18110Y136990I0J-1400D01*
G01*
X19100Y137400D02*
G03*
X18110Y136990I0J-1400D01*
G01*
X13010Y131890D02*
G03*
X12600Y130900I990J-990D01*
G01*
X13010Y131890D02*
G03*
X12600Y130900I990J-990D01*
G01*
X21310Y123090D02*
G03*
X20900Y122100I990J-990D01*
G01*
X21310Y123090D02*
G03*
X20900Y122100I990J-990D01*
G01*
Y103108D02*
G03*
X20900Y100585I1400J-1261D01*
G01*
X15884Y100251D02*
G03*
X15400Y101512I-1884J0D01*
G01*
X18720Y90035D02*
G03*
X14954Y90134I-1884J0D01*
G01*
X16934Y88154D02*
G03*
X18720Y90035I-98J1882D01*
G01*
X23210Y81290D02*
G03*
X22800Y80300I990J-990D01*
G01*
X23210Y81290D02*
G03*
X22800Y80300I990J-990D01*
G01*
X22184Y76700D02*
G03*
X21700Y77961I-1884J0D01*
G01*
X22528Y73882D02*
G03*
X24058Y70776I98J-1882D01*
G01*
X18430Y76466D02*
G03*
X22184Y76700I1870J234D01*
G01*
X17010Y85090D02*
G03*
X16600Y84100I990J-990D01*
G01*
X17010Y85090D02*
G03*
X16600Y84100I990J-990D01*
G01*
Y79561D02*
G03*
X18430Y76466I1400J-1261D01*
G01*
X12600Y101512D02*
G03*
X15884Y100251I1400J-1261D01*
G01*
X12210Y87390D02*
G03*
X11800Y86400I990J-990D01*
G01*
X12210Y87390D02*
G03*
X11800Y86400I990J-990D01*
G01*
X11434Y80525D02*
G03*
X8149Y79264I-1884J0D01*
G01*
X10949D02*
G03*
X11434Y80525I-1400J1261D01*
G01*
X10539Y67559D02*
G03*
X10949Y68549I-990J990D01*
G01*
X10539Y67559D02*
G03*
X10949Y68549I-990J990D01*
G01*
X64614Y49000D02*
G03*
X64609Y47816I1786J-600D01*
G01*
X61900Y48500D02*
G03*
X62890Y48910I0J1400D01*
G01*
X61900Y48500D02*
G03*
X62890Y48910I0J1400D01*
G01*
X54254Y48220D02*
G03*
X54661Y48500I-854J1680D01*
G01*
X51609Y50484D02*
G03*
X51694Y49100I1791J-584D01*
G01*
X59547Y27800D02*
G03*
X59376Y24419I2079J-1800D01*
G01*
X59547Y27800D02*
G03*
X59376Y24419I2079J-1800D01*
G01*
X50129Y32500D02*
G03*
X49139Y32090I0J-1400D01*
G01*
X50129Y32500D02*
G03*
X49139Y32090I0J-1400D01*
G01*
X30466Y66916D02*
G03*
X30809Y68000I-1541J1084D01*
G01*
X47331Y30282D02*
G03*
X47070Y26550I98J-1882D01*
G01*
X30500Y31565D02*
G03*
X33957Y32502I1575J1035D01*
G01*
X27350Y31565D02*
G03*
X30500Y31565I1575J1035D01*
G01*
X59376Y21756D02*
G03*
X59473Y21102I2250J0D01*
G01*
X57881Y20947D02*
G03*
X58006Y21756I-2554J809D01*
G01*
D02*
G03*
X54554Y24321I-2679J0D01*
G01*
X66350Y20249D02*
G03*
X67416Y19637I1575J1507D01*
G01*
X65285D02*
G03*
X66350Y20249I-510J2119D01*
G01*
X59473Y21102D02*
G03*
X58476Y20507I578J-2101D01*
G01*
X58476D02*
G03*
X57881Y20947I-1575J-1507D01*
G01*
X54554Y24321D02*
G03*
X52657Y21988I-2376J-7D01*
G01*
X54554Y24321D02*
G03*
X52657Y21988I-2376J-7D01*
G01*
X46800Y22900D02*
G03*
X47790Y23310I0J1400D01*
G01*
X46800Y22900D02*
G03*
X47790Y23310I0J1400D01*
G01*
X71075Y17493D02*
G03*
X74224Y17493I1575J1507D01*
G01*
X67416Y19637D02*
G03*
X71075Y17493I2084J-637D01*
G01*
X65380Y19000D02*
G03*
X65285Y19637I-2180J0D01*
G01*
X61626Y17493D02*
G03*
X65380Y19000I1575J1507D01*
G01*
X58476Y17493D02*
G03*
X61626Y17493I1575J1507D01*
G01*
X52657Y21988D02*
G03*
X54727Y19144I2670J-232D01*
G01*
D02*
G03*
X58476Y17493I2175J-144D01*
G01*
X50321Y18803D02*
G03*
X50321Y18803I-2081J0D01*
G01*
D02*
G03*
X50321Y18803I-2081J0D01*
G01*
Y6992D02*
G03*
X50321Y6992I-2081J0D01*
G01*
D02*
G03*
X50321Y6992I-2081J0D01*
G01*
X37968Y4579D02*
G03*
X38778Y6528I-1941J1948D01*
G01*
X37972Y4583D02*
G03*
X38778Y6528I-1945J1945D01*
G01*
X30668Y7500D02*
G03*
X29998Y9480I-3262J0D01*
G01*
X29559Y5050D02*
G03*
X30668Y7500I-2154J2450D01*
G01*
X27208Y68776D02*
G03*
X27384Y66916I1717J-776D01*
G01*
X22960Y61416D02*
G03*
X22389Y60978I1374J-2382D01*
G01*
X21666Y66916D02*
G03*
X19721Y66110I0J-2750D01*
G01*
X22960Y61416D02*
G03*
X22385Y60974I1374J-2382D01*
G01*
X21666Y66916D02*
G03*
X19717Y66106I0J-2750D01*
G01*
X14190Y65410D02*
G03*
X14600Y66400I-990J990D01*
G01*
X14190Y65410D02*
G03*
X14600Y66400I-990J990D01*
G01*
X26300Y49100D02*
G03*
X25943Y49054I0J-1400D01*
G01*
X26234Y55984D02*
G03*
X24717Y55528I0J-2750D01*
G01*
X26234Y55984D02*
G03*
X24717Y55528I0J-2750D01*
G01*
X26300Y49100D02*
G03*
X25943Y49054I0J-1400D01*
G01*
X22746Y45857D02*
G03*
X22700Y45500I1354J-357D01*
G01*
X22746Y45857D02*
G03*
X22700Y45500I1354J-357D01*
G01*
X12807Y43617D02*
G03*
X12350Y42100I2293J-1517D01*
G01*
X12807Y43617D02*
G03*
X12350Y42100I2293J-1517D01*
G01*
X7010Y62190D02*
G03*
X6600Y61200I990J-990D01*
G01*
X9884Y58100D02*
G03*
X9400Y59361I-1884J0D01*
G01*
X7010Y62190D02*
G03*
X6600Y61200I990J-990D01*
G01*
Y59361D02*
G03*
X9884Y58100I1400J-1261D01*
G01*
X2210Y63190D02*
G03*
X1800Y62200I990J-990D01*
G01*
X2210Y63190D02*
G03*
X1800Y62200I990J-990D01*
G01*
X5083Y51472D02*
G03*
X4600Y52661I-1883J-72D01*
G01*
X7559Y46148D02*
G03*
X6750Y44200I1941J-1948D01*
G01*
X7555Y46145D02*
G03*
X6750Y44200I1945J-1945D01*
G01*
X1800Y52661D02*
G03*
X3128Y49517I1400J-1261D01*
G01*
X1759Y48148D02*
G03*
X950Y46200I1941J-1948D01*
G01*
X1756Y48145D02*
G03*
X950Y46200I1945J-1945D01*
G01*
X25984Y35600D02*
G03*
X25500Y36861I-1884J0D01*
G01*
X25613Y34477D02*
G03*
X25984Y35600I-1513J1123D01*
G01*
X24035Y31877D02*
G03*
X27350Y31565I1740J723D01*
G01*
X24926Y25700D02*
G03*
X24035Y25380I0J-1400D01*
G01*
X24262Y33723D02*
G03*
X24035Y33323I1513J-1123D01*
G01*
X24926Y25700D02*
G03*
X24035Y25380I0J-1400D01*
G01*
X22700Y36861D02*
G03*
X22608Y34449I1400J-1261D01*
G01*
X22528Y23882D02*
G03*
X22780Y20122I98J-1882D01*
G01*
X17349Y10250D02*
G03*
X16298Y10685I-1755J-2750D01*
G01*
X12350Y17500D02*
G03*
X13159Y15552I2750J0D01*
G01*
X12350Y17500D02*
G03*
X13156Y15555I2750J0D01*
G01*
X14952Y13759D02*
G03*
X16900Y12950I1948J1941D01*
G01*
X14955Y13756D02*
G03*
X16900Y12950I1945J1945D01*
G01*
X6750Y13595D02*
G03*
X7555Y11650I2750J0D01*
G01*
X6750Y13595D02*
G03*
X7559Y11646I2750J0D01*
G01*
X12409Y6796D02*
G03*
X12707Y5982I3185J704D01*
G01*
X950Y11100D02*
G03*
X1756Y9155I2750J0D01*
G01*
X950Y11100D02*
G03*
X1759Y9152I2750J0D01*
G01*
X137400Y161500D02*
X139500D01*
X137400Y163500D02*
X139500D01*
X137400Y157500D02*
X139500D01*
X137400Y147600D02*
Y165400D01*
Y159500D02*
X139500D01*
X119600Y165400D02*
X137400D01*
Y153500D02*
X139500D01*
X137400Y155500D02*
X139500D01*
X137400Y151500D02*
X139500D01*
X137400Y149500D02*
X139500D01*
X119600Y147600D02*
X137400D01*
X116600Y146020D02*
X137400D01*
X132000D02*
Y147600D01*
X130000Y146020D02*
Y147600D01*
X119600D02*
Y165400D01*
X118000Y146020D02*
Y165500D01*
X134000Y146020D02*
Y147600D01*
X128000Y146020D02*
Y147600D01*
X136000Y146020D02*
Y147600D01*
X122000Y146020D02*
Y147600D01*
X120000Y146020D02*
Y147600D01*
X124000Y146020D02*
Y147600D01*
X138520Y141500D02*
X139500D01*
X138520Y143500D02*
X139500D01*
X138520Y137500D02*
X139500D01*
X138520Y139500D02*
X139500D01*
X138050Y145831D02*
X138331Y145550D01*
X138000Y145852D02*
Y165500D01*
X138352Y145500D02*
X139500D01*
X138520Y127500D02*
X139500D01*
X138520Y129500D02*
X139500D01*
X138520Y125500D02*
X139500D01*
X138520Y133500D02*
X139500D01*
X138520Y135500D02*
X139500D01*
X138520Y131500D02*
X139500D01*
X126100Y129480D02*
X129480D01*
X128000Y127580D02*
Y129480D01*
X129480Y126100D02*
Y129480D01*
X128080Y127500D02*
X129480D01*
X126000Y146020D02*
Y147600D01*
X116000Y145852D02*
Y165500D01*
X126100Y129480D02*
X129480Y126100D01*
X124718Y124702D02*
X125800Y123620D01*
X124750Y122247D02*
Y124287D01*
X118000Y107789D02*
Y126084D01*
X116000Y105789D02*
Y126084D01*
X94400Y157500D02*
X119600D01*
X94400Y159500D02*
X119600D01*
X94400Y153500D02*
X119600D01*
X94400Y155500D02*
X119600D01*
X74694Y165500D02*
X139500D01*
X94400Y163500D02*
X119600D01*
X94400Y161500D02*
X119600D01*
X101730Y147500D02*
X139500D01*
X115669Y145550D02*
X115950Y145831D01*
X101855Y145500D02*
X115648D01*
X94400Y149500D02*
X119600D01*
X94400Y151500D02*
X119600D01*
X97849Y133500D02*
X115480D01*
X102000Y146957D02*
Y165500D01*
X101700Y141500D02*
X115480D01*
X101700Y141200D02*
Y145260D01*
Y143500D02*
X115480D01*
X100621Y139500D02*
X115480D01*
X98621Y137500D02*
X115480D01*
X97600Y135500D02*
X115480D01*
X97600Y136479D02*
X101260Y140139D01*
X76185Y131500D02*
X115480D01*
Y130600D02*
Y144900D01*
X114000Y130284D02*
Y165500D01*
X112000Y130284D02*
Y165500D01*
X110000Y130284D02*
Y165500D01*
X88384Y130284D02*
X115527D01*
X108000D02*
Y165500D01*
X108664Y126084D02*
X119919D01*
X114000Y103789D02*
Y126084D01*
X112000Y101789D02*
Y126084D01*
X110000Y99789D02*
Y126084D01*
X108080Y125500D02*
X119532D01*
X106500Y123920D02*
X108664Y126084D01*
X108000Y97789D02*
Y125420D01*
X106000Y130284D02*
Y165500D01*
X104000Y130284D02*
Y165500D01*
Y125366D02*
Y127484D01*
X102000Y130284D02*
Y145843D01*
X101046Y127484D02*
X106104D01*
X102000Y126735D02*
Y127484D01*
X104110Y125490D02*
X106104Y127484D01*
X102571Y125500D02*
X104120D01*
X103700Y122861D02*
Y124500D01*
X138520Y121500D02*
X139500D01*
X138520Y123500D02*
X139500D01*
X138520Y117500D02*
X139500D01*
X138520Y119500D02*
X139500D01*
X124750Y121500D02*
X125800D01*
X124750Y123500D02*
X125800D01*
X124750Y119500D02*
X125800D01*
X138520Y113500D02*
X139500D01*
X138520Y115500D02*
X139500D01*
X138520Y109500D02*
X139500D01*
X124750Y111500D02*
X125800D01*
X124750Y113500D02*
X125800D01*
X138520Y111500D02*
X139500D01*
X124750Y120207D02*
Y122247D01*
X119250D02*
Y124287D01*
X124750Y118167D02*
Y120207D01*
X119250D02*
Y122247D01*
X106500Y123500D02*
X119250D01*
X106982Y121500D02*
X119250D01*
X124750Y109500D02*
X125800D01*
X124750Y117500D02*
X125800D01*
X124750Y107900D02*
Y118167D01*
Y115500D02*
X125800D01*
X119250Y118167D02*
Y120207D01*
Y109039D02*
Y118167D01*
X138520Y105500D02*
X139500D01*
X138520Y107500D02*
X139500D01*
X138520Y101500D02*
X139500D01*
X138520Y103500D02*
X139500D01*
X119489Y101500D02*
X125800D01*
X123489Y105500D02*
X125800D01*
X138520Y99500D02*
X139500D01*
X138520Y89500D02*
X139500D01*
X138520Y91500D02*
X139500D01*
X138520Y87500D02*
X139500D01*
X138520Y95500D02*
X139500D01*
X138520Y97500D02*
X139500D01*
X138520Y93500D02*
X139500D01*
X124721Y107500D02*
X125800D01*
X121489Y103500D02*
X125800D01*
X107617Y107500D02*
X117711D01*
X106940Y105500D02*
X115711D01*
X117489Y99500D02*
X125800D01*
X113489Y95500D02*
X125800D01*
X115489Y97500D02*
X125800D01*
X111489Y93500D02*
X125800D01*
X109489Y91500D02*
X125800D01*
X106517Y97500D02*
X107711D01*
X107489Y89500D02*
X125800D01*
X106500Y122861D02*
Y123920D01*
X106417Y113500D02*
X119250D01*
X86056Y117500D02*
X119250D01*
X88056Y119500D02*
X119250D01*
X85950Y115500D02*
X119250D01*
X106000Y111500D02*
X119250D01*
X104580Y109500D02*
X119250D01*
X104000Y114786D02*
Y120070D01*
X102172Y123500D02*
X103700D01*
X106000Y108874D02*
Y111739D01*
Y114261D02*
Y119945D01*
X90056Y121500D02*
X103218D01*
X85950Y113500D02*
X102783D01*
X102000Y110880D02*
Y123265D01*
X103664Y108584D02*
X105590Y110510D01*
X103664Y108584D02*
X104780D01*
X104000D02*
Y108920D01*
X85950Y111500D02*
X102620D01*
X85950Y109500D02*
X100620D01*
X102958Y105784D02*
X104360D01*
X104000Y103363D02*
Y105784D01*
X106402Y96191D02*
X119250Y109039D01*
X106000Y98364D02*
Y105126D01*
X103927Y103500D02*
X113711D01*
X102674Y105500D02*
X104660D01*
X103865Y101500D02*
X111711D01*
X105489Y87500D02*
X125800D01*
X103700Y99500D02*
X109711D01*
X101352Y104179D02*
X102958Y105784D01*
X102000Y104410D02*
Y104826D01*
X104000Y98749D02*
Y101737D01*
X87026Y95906D02*
X103050Y111929D01*
X98674Y101500D02*
X100735D01*
X91400Y94226D02*
X100671Y103498D01*
X103700Y98597D02*
Y101289D01*
X100900Y94880D02*
Y101289D01*
X98484Y92464D02*
X100900Y94880D01*
X94674Y97500D02*
X100900D01*
X96674Y99500D02*
X100900D01*
X92674Y95500D02*
X100900D01*
X76600Y165400D02*
X94400D01*
X100000Y148274D02*
Y165500D01*
X94400Y147600D02*
Y165400D01*
X74953Y159500D02*
X76600D01*
X74953Y161500D02*
X76600D01*
X74953Y157500D02*
X76600D01*
X74953Y147500D02*
X98670D01*
X76600Y147600D02*
X94400D01*
X74953Y145500D02*
X98545D01*
X76600Y147600D02*
Y165400D01*
X74953Y145153D02*
Y164839D01*
Y145153D02*
Y164839D01*
Y145153D02*
Y164839D01*
X74875Y165229D02*
X74953Y164839D01*
X74875Y165229D02*
X74953Y164839D01*
X74875Y165229D02*
X74953Y164839D01*
Y151500D02*
X76600D01*
X74953Y153500D02*
X76600D01*
X74953Y149500D02*
X76600D01*
X74953Y155500D02*
X76600D01*
X74953Y163500D02*
X76600D01*
X74953Y145153D02*
Y164839D01*
X98700Y141821D02*
Y145260D01*
X98000Y141121D02*
Y165500D01*
X95040Y138161D02*
X98700Y141821D01*
X96000Y139121D02*
Y165500D01*
X92000Y130284D02*
Y147600D01*
X90000Y130284D02*
Y147600D01*
X94000Y130284D02*
Y147600D01*
X98000Y130284D02*
Y136879D01*
X100000Y130284D02*
Y138879D01*
X76100Y137500D02*
X94654D01*
X94600Y135340D02*
Y137100D01*
X74953Y145153D02*
Y164839D01*
Y145153D02*
Y164839D01*
X84000Y126480D02*
Y147600D01*
X76000Y137685D02*
Y165500D01*
X74953Y145153D02*
Y164839D01*
Y145153D02*
Y164839D01*
Y145153D02*
Y164839D01*
X88000Y130230D02*
Y147600D01*
X86000Y128480D02*
Y147600D01*
X82000Y124480D02*
Y147600D01*
X80000Y122480D02*
Y147600D01*
X74875Y144763D02*
X74953Y145153D01*
X78000Y120480D02*
Y147600D01*
X74875Y165229D02*
X74953Y164839D01*
X74875Y165229D02*
X74953Y164839D01*
X74875Y144763D02*
X74953Y145153D01*
X74875Y165229D02*
X74953Y164839D01*
X74875Y165229D02*
X74953Y164839D01*
X74875Y165229D02*
X74953Y164839D01*
X74875Y165229D02*
X74953Y164839D01*
X74875Y144763D02*
X74953Y145153D01*
X74875Y144763D02*
X74953Y145153D01*
X74875Y144763D02*
X74953Y145153D01*
X74875Y144763D02*
X74953Y145153D01*
X74875Y144763D02*
X74953Y145153D01*
X74875Y144763D02*
X74953Y145153D01*
X74694Y165500D02*
X74875Y165229D01*
X74694Y165500D02*
X74875Y165229D01*
X74694Y165500D02*
X74875Y165229D01*
X74694Y165500D02*
X74875Y165229D01*
X74694Y165500D02*
X74875Y165229D01*
X74694Y165500D02*
X74875Y165229D01*
X74694Y165500D02*
X74875Y165229D01*
X74694Y165500D02*
X74875Y165229D01*
X74694Y165500D02*
X74875Y165229D01*
Y144763D02*
X74953Y145153D01*
X74654Y144433D02*
X74875Y144763D01*
X74654Y144433D02*
X74875Y144763D01*
X74654Y144433D02*
X74875Y144763D01*
X74654Y144433D02*
X74875Y144763D01*
X74654Y144433D02*
X74875Y144763D01*
X74654Y144433D02*
X74875Y144763D01*
X74654Y144433D02*
X74875Y144763D01*
X74654Y144433D02*
X74875Y144763D01*
X74654Y144433D02*
X74875Y144763D01*
X74323Y144212D02*
X74654Y144433D01*
X74323Y144212D02*
X74654Y144433D01*
X74323Y144212D02*
X74654Y144433D01*
X74323Y144212D02*
X74654Y144433D01*
X74323Y144212D02*
X74654Y144433D01*
X74323Y144212D02*
X74654Y144433D01*
X74323Y144212D02*
X74654Y144433D01*
X74323Y144212D02*
X74654Y144433D01*
X74323Y144212D02*
X74654Y144433D01*
X73933Y144134D02*
X74323Y144212D01*
X73933Y144134D02*
X74323Y144212D01*
X73933Y144134D02*
X74323Y144212D01*
X73933Y144134D02*
X74323Y144212D01*
X73933Y144134D02*
X74323Y144212D01*
X73933Y144134D02*
X74323Y144212D01*
X74000Y139237D02*
Y144147D01*
X73933Y144134D02*
X74323Y144212D01*
X73933Y144134D02*
X74323Y144212D01*
X73933Y144134D02*
X74323Y144212D01*
X97827Y122250D02*
X99867D01*
X100000Y108880D02*
Y122253D01*
X98000Y106880D02*
Y122250D01*
X97600Y135340D02*
Y136479D01*
X96000Y130284D02*
Y132318D01*
X95787Y122250D02*
X97827D01*
X93747D02*
X95787D01*
X96000Y104880D02*
Y122250D01*
X85950Y107500D02*
X98620D01*
X85950Y105500D02*
X96620D01*
X85950Y103500D02*
X94620D01*
X91707Y122250D02*
X93747D01*
X90806D02*
X91707D01*
X94000Y102880D02*
Y122250D01*
X92000Y100880D02*
Y122250D01*
X85950Y117394D02*
X90806Y122250D01*
X85950Y101500D02*
X92620D01*
X90000Y98880D02*
Y121444D01*
X85950Y97500D02*
X88620D01*
X85950Y99500D02*
X90620D01*
X100000Y93980D02*
Y102826D01*
X96000Y94286D02*
Y98826D01*
X98197Y93500D02*
X99520D01*
X98000Y93761D02*
Y100826D01*
X94000Y89980D02*
Y96826D01*
X92000Y87980D02*
Y94826D01*
X91400Y91500D02*
X95003D01*
X91847Y87827D02*
X95200Y91180D01*
X91400Y93500D02*
X95003D01*
X91400Y89500D02*
X93520D01*
X88000Y96880D02*
Y119444D01*
X91400Y89461D02*
Y94226D01*
X85950Y95500D02*
X86743D01*
X85950Y92068D02*
Y117394D01*
X86000Y92035D02*
Y117444D01*
X86280Y91500D02*
X86616D01*
X90000Y85980D02*
Y86316D01*
X85950Y93500D02*
X86616D01*
X86021Y92021D02*
X86242Y91690D01*
X86320Y91300D01*
X76415Y135500D02*
X94600D01*
X76382Y129500D02*
X87020D01*
X77477Y119957D02*
X87394Y129874D01*
X76338Y123500D02*
X81020D01*
X75339Y133500D02*
X94351D01*
X75113Y127500D02*
X85020D01*
X76258Y125500D02*
X83020D01*
X79047Y117567D02*
X80492Y119012D01*
X78975Y117500D02*
X80450D01*
X74840Y121500D02*
X79020D01*
X75650Y115500D02*
X80450D01*
X76000Y131871D02*
Y134315D01*
Y126057D02*
Y128501D01*
X76147Y119957D02*
X77477D01*
X76000Y120242D02*
Y122686D01*
X76147Y117157D02*
X78057D01*
X76000Y115128D02*
Y116872D01*
X76641Y111500D02*
X80450D01*
X76776Y113500D02*
X80450D01*
Y92068D02*
Y118533D01*
X76404Y107500D02*
X80450D01*
X76134Y105500D02*
X80450D01*
X75257Y109500D02*
X80450D01*
X75460Y103500D02*
X80450D01*
X76447Y95500D02*
X80450D01*
X76431Y101500D02*
X80450D01*
X80158Y91690D02*
X80379Y92021D01*
X75633Y97500D02*
X80450D01*
X76040Y99500D02*
X80450D01*
X75930Y93500D02*
X80450D01*
X76000Y102799D02*
Y105244D01*
Y108614D02*
Y110358D01*
Y96985D02*
Y99429D01*
X80080Y91300D02*
X80158Y91690D01*
X138520Y77500D02*
X139500D01*
X138520Y79500D02*
X139500D01*
X138520Y73500D02*
X139500D01*
X138520Y75500D02*
X139500D01*
X138520Y83500D02*
X139500D01*
X138520Y85500D02*
X139500D01*
X138520Y81500D02*
X139500D01*
X138520Y57500D02*
X139500D01*
X138520Y59500D02*
X139500D01*
X138520Y55500D02*
X139500D01*
X138520Y69500D02*
X139500D01*
X138520Y71500D02*
X139500D01*
X138520Y67500D02*
X139500D01*
X124000Y82797D02*
Y106012D01*
X122000Y82470D02*
Y104011D01*
X125800Y81424D02*
Y123620D01*
X120000Y82586D02*
Y102011D01*
X118000Y82797D02*
Y100011D01*
X138520Y63500D02*
X139500D01*
X138520Y65500D02*
X139500D01*
X138520Y61500D02*
X139500D01*
X125800Y54180D02*
Y57876D01*
X138520Y51500D02*
X139500D01*
X138520Y53500D02*
X139500D01*
Y500D02*
Y165500D01*
X138520Y32100D02*
Y144900D01*
X125990Y47910D02*
X129480Y51401D01*
X128000Y46220D02*
Y49920D01*
X129480Y46220D02*
Y51401D01*
X138520Y47500D02*
X139500D01*
X138520Y49500D02*
X139500D01*
X138520Y45500D02*
X139500D01*
X125000Y47500D02*
X129480D01*
X127580Y49500D02*
X129480D01*
X138520Y43500D02*
X139500D01*
X124000Y52380D02*
Y56502D01*
X122000Y51800D02*
Y56830D01*
X126000Y46220D02*
Y47920D01*
X123420Y51800D02*
X125800Y54180D01*
X118000Y51800D02*
Y56502D01*
X116000Y51800D02*
Y57876D01*
X120000Y51800D02*
Y56714D01*
X124000Y46220D02*
Y47500D01*
X120000Y46220D02*
Y47500D01*
X118000Y46220D02*
Y47500D01*
X122000Y46220D02*
Y47500D01*
X116000Y81424D02*
Y98011D01*
X115900Y78400D02*
Y79804D01*
X101489Y83500D02*
X125800D01*
X103489Y85500D02*
X125800D01*
X101439Y83450D02*
X123941Y105952D01*
X110050Y65500D02*
X115900D01*
X110050Y67500D02*
X115900D01*
X110050Y63500D02*
X115900D01*
X110050Y71500D02*
X115900D01*
X110050Y75500D02*
X115900D01*
X110050Y69500D02*
X115900D01*
X110300Y83450D02*
X113300D01*
X110000D02*
Y92011D01*
X114000Y83359D02*
Y96011D01*
X112000Y83450D02*
Y94011D01*
X104300Y83450D02*
X107300D01*
X106000D02*
Y88011D01*
X108000Y83450D02*
Y90011D01*
X110300Y77950D02*
X113300D01*
X110050Y62235D02*
Y77950D01*
Y77500D02*
X115900D01*
X107300Y83450D02*
X110300D01*
X110050Y73500D02*
X115900D01*
Y60900D02*
Y78400D01*
X109950Y61500D02*
X115900D01*
Y58500D02*
Y60900D01*
X106454Y57500D02*
X116168D01*
X108454Y59500D02*
X115900D01*
X104454Y55500D02*
X125800D01*
X102454Y53500D02*
X125120D01*
X100754Y51800D02*
X123420D01*
X116000Y46220D02*
Y47500D01*
X82380D02*
X125000D01*
X82380D02*
X125000D01*
X81099Y46220D02*
X129480D01*
X110000Y51800D02*
Y61713D01*
X114000Y51800D02*
Y78041D01*
X112000Y51800D02*
Y77950D01*
X108000Y51800D02*
Y59046D01*
X100754Y51800D02*
X109241Y60287D01*
X112000Y46220D02*
Y47500D01*
X110000Y46220D02*
Y47500D01*
X114000Y46220D02*
Y47500D01*
X108000Y46220D02*
Y47500D01*
X106000Y51800D02*
Y57046D01*
Y46220D02*
Y47500D01*
X138520Y39500D02*
X139500D01*
X138520Y41500D02*
X139500D01*
X138520Y35500D02*
X139500D01*
X138520Y37500D02*
X139500D01*
X138352Y31500D02*
X139500D01*
X138520Y33500D02*
X139500D01*
X138050Y31169D02*
X138331Y31450D01*
X125897Y21500D02*
X139500D01*
X125442Y23500D02*
X139500D01*
X125999Y13500D02*
X139500D01*
X125244Y19500D02*
X139500D01*
X122711Y25500D02*
X139500D01*
X124158Y15500D02*
X139500D01*
X122000Y25565D02*
Y30980D01*
X120000Y25014D02*
Y30980D01*
X124000Y25014D02*
Y30980D01*
X115100D02*
X137400D01*
X114169Y31450D02*
X114450Y31169D01*
X114000Y25014D02*
Y31901D01*
X122000Y16065D02*
Y17765D01*
X120000Y15585D02*
Y18317D01*
X124000Y15585D02*
Y18317D01*
X115442Y23500D02*
X118559D01*
X115896Y21500D02*
X118104D01*
X115244Y19500D02*
X118756D01*
X134000Y500D02*
Y30980D01*
X132000Y500D02*
Y30980D01*
X138000Y500D02*
Y31148D01*
X136000Y500D02*
Y30980D01*
X128000Y500D02*
Y30980D01*
X126000Y13498D02*
Y30980D01*
X130000Y500D02*
Y30980D01*
X125830Y9500D02*
X139500D01*
X126397Y11500D02*
X139500D01*
X126000Y500D02*
Y9832D01*
X123418Y7500D02*
X139500D01*
X118000Y13498D02*
Y30980D01*
X115442Y13500D02*
X118001D01*
X115896Y11500D02*
X117603D01*
X116000Y500D02*
Y30980D01*
X122000Y500D02*
Y7265D01*
X120000Y500D02*
Y7746D01*
X124000Y500D02*
Y7746D01*
X115244Y9500D02*
X118170D01*
X118000Y500D02*
Y9832D01*
X114000Y500D02*
Y8317D01*
X103380Y33500D02*
X113980D01*
X113980Y38980D02*
X113980Y33500D01*
Y32100D02*
Y33500D01*
X112000Y25565D02*
Y38980D01*
X99380Y37500D02*
X113980D01*
X97900Y38980D02*
X113980D01*
X101380Y35500D02*
X113980D01*
X112711Y25500D02*
X121289D01*
X107517Y29500D02*
X139500D01*
X106840Y31500D02*
X114148D01*
X107969Y27500D02*
X139500D01*
X108000Y27488D02*
Y38980D01*
X106477Y28283D02*
X107170Y27590D01*
X110000Y25645D02*
Y38980D01*
X106000Y31860D02*
Y38980D01*
X110145Y25500D02*
X111289D01*
X108465Y27180D02*
X110416Y25229D01*
X108400Y19500D02*
X108756D01*
X107170Y27590D02*
X107475D01*
X105244Y19500D02*
X105600D01*
X112000Y15565D02*
Y17765D01*
X110145Y15500D02*
X111289D01*
X114000Y15013D02*
Y18317D01*
X108400Y17500D02*
X139500D01*
X110000Y15645D02*
Y18317D01*
X108400Y17245D02*
X110416Y15229D01*
X112711Y15500D02*
X119842D01*
X112000Y500D02*
Y7765D01*
X110000Y500D02*
Y8317D01*
X86479Y7500D02*
X120582D01*
X85911Y5500D02*
X139500D01*
X108400Y17245D02*
Y20165D01*
X106010Y15675D02*
X108436Y13249D01*
X106000Y500D02*
Y15686D01*
X105441Y13500D02*
X108185D01*
X105896Y11500D02*
X108104D01*
X108000Y500D02*
Y13685D01*
X105244Y9500D02*
X108756D01*
X102711Y15500D02*
X106185D01*
X104000Y83450D02*
Y86011D01*
X102000Y83450D02*
Y84011D01*
X104550Y63374D02*
Y77950D01*
X104000Y62824D02*
Y77950D01*
X101300D02*
X104300D01*
X101439Y83450D02*
X104300D01*
X95489Y77500D02*
X104550D01*
X91489Y73500D02*
X104550D01*
X93489Y75500D02*
X104550D01*
X89489Y71500D02*
X104550D01*
X86020Y63500D02*
X104550D01*
X87489Y69500D02*
X104550D01*
X86020Y61500D02*
X102676D01*
X89416Y85396D02*
X90373Y86353D01*
X89416Y85396D02*
Y86409D01*
X98000Y56824D02*
Y80011D01*
X86616Y84596D02*
Y94916D01*
X86320Y84299D02*
Y91300D01*
Y84299D02*
X86616Y84596D01*
X102000Y60824D02*
Y77950D01*
X97489Y79500D02*
X98826D01*
X100000Y58824D02*
Y78277D01*
X86020Y59500D02*
X100676D01*
X86000Y64298D02*
Y68011D01*
X86020Y57500D02*
X98676D01*
X104000Y51800D02*
Y55046D01*
X102000Y51800D02*
Y53046D01*
X104000Y46220D02*
Y47500D01*
X98000Y46220D02*
Y47500D01*
X86020Y55984D02*
X97160D01*
X96000D02*
Y78011D01*
X97160Y55984D02*
X104550Y63374D01*
X102000Y34880D02*
Y38980D01*
Y46220D02*
Y47500D01*
X104000Y32880D02*
Y38980D01*
X100000Y36880D02*
Y38980D01*
Y46220D02*
Y47500D01*
X97900Y38980D02*
X105095Y31785D01*
X94000Y55984D02*
Y76011D01*
X92000Y55984D02*
Y74011D01*
X96000Y46220D02*
Y47500D01*
X94000Y46220D02*
Y47500D01*
X88000Y55984D02*
Y70011D01*
X86020Y55984D02*
X86020Y64200D01*
X90000Y55984D02*
Y72011D01*
X93020Y31000D02*
X93900Y30120D01*
X92000Y46220D02*
Y47500D01*
X93020Y27670D02*
Y31000D01*
X88000Y46220D02*
Y47500D01*
X86000Y46220D02*
Y47500D01*
X90000Y46220D02*
Y47500D01*
X81100Y81980D02*
X84000D01*
X80710Y82058D02*
X81100Y81980D01*
X83420Y81400D02*
X84000Y81980D01*
X82000Y81400D02*
Y81980D01*
X80379Y82279D02*
X80710Y82058D01*
X80158Y82610D02*
X80379Y82279D01*
X75100Y81400D02*
X83420D01*
X77361Y75646D02*
X81666D01*
X77361Y72846D02*
X80866D01*
X77361Y72691D02*
X80711D01*
X77361Y78600D02*
X82620D01*
X77361D02*
X82620D01*
X77361Y75800D02*
X81820D01*
X80080Y83000D02*
X80158Y82610D01*
X80080Y83000D02*
Y91300D01*
X80000Y81400D02*
Y118520D01*
X78000Y81400D02*
Y117157D01*
X76000Y81400D02*
Y93615D01*
X74000Y80880D02*
Y92063D01*
X77361Y69891D02*
X80102D01*
X76684Y69500D02*
X79711D01*
X72580Y75500D02*
X74694D01*
X85489Y67500D02*
X104550D01*
X84000Y65220D02*
Y66011D01*
X85390Y65142D02*
X85721Y64921D01*
X85000Y65220D02*
X85390Y65142D01*
X83489Y65500D02*
X104550D01*
X83209Y65220D02*
X98553Y80564D01*
X83209Y65220D02*
X85000Y65220D01*
X85942Y64590D02*
X86020Y64200D01*
X85721Y64921D02*
X85942Y64590D01*
X84000Y46220D02*
Y47500D01*
X81099Y46220D02*
X82380Y47500D01*
X80214Y62225D02*
X80680Y62691D01*
X82000Y46220D02*
Y47120D01*
X77127Y66916D02*
X80102Y69891D01*
X78000Y67789D02*
Y69891D01*
X80680Y61783D02*
Y62691D01*
X76000Y66916D02*
Y69410D01*
X74000Y66916D02*
Y76920D01*
X79639Y61783D02*
X80680D01*
X78736Y47816D02*
X79920Y49000D01*
X78686D02*
X79920D01*
X98500Y30120D02*
X103266Y25354D01*
X102000Y25565D02*
Y26620D01*
X100000Y25014D02*
Y28620D01*
X98500Y23386D02*
Y30120D01*
Y27500D02*
X101120D01*
X98500Y29500D02*
X99120D01*
X102711Y25500D02*
X103120D01*
X98500D02*
X101289D01*
X98500Y17500D02*
X105600D01*
X98500Y17145D02*
Y19945D01*
X92986Y27500D02*
X93900D01*
X93020Y29500D02*
X93900D01*
Y25545D02*
Y30120D01*
X92942Y27279D02*
X93020Y27670D01*
X92721Y26949D02*
X92942Y27279D01*
X92390Y26728D02*
X92721Y26949D01*
X92000Y26650D02*
X92390Y26728D01*
X95700Y22898D02*
Y23385D01*
X93584Y25229D02*
X93900Y25545D01*
X95244Y19500D02*
X95700D01*
X92711Y25500D02*
X93855D01*
X92000Y25565D02*
Y26650D01*
X90000Y25014D02*
Y26650D01*
X105600Y16665D02*
Y20165D01*
X102000Y15565D02*
Y17765D01*
X104000Y15013D02*
Y18317D01*
X100145Y15500D02*
X101289D01*
X98500Y17145D02*
X100416Y15229D01*
X100000Y15645D02*
Y18317D01*
X96110Y15575D02*
X98436Y13249D01*
X102000Y500D02*
Y7765D01*
X100000Y500D02*
Y8317D01*
X104000Y500D02*
Y8317D01*
X95442Y13500D02*
X98185D01*
X95897Y11500D02*
X98103D01*
X95244Y9500D02*
X98756D01*
X95700Y16565D02*
Y20433D01*
X96000Y500D02*
Y15699D01*
X92000Y15565D02*
Y17765D01*
X90000Y15013D02*
Y18317D01*
X94000Y15013D02*
Y18317D01*
X92711Y15500D02*
X96185D01*
X94000Y500D02*
Y8317D01*
X98000Y500D02*
Y13685D01*
X90000Y500D02*
Y8317D01*
X92000Y500D02*
Y7765D01*
X81065Y26650D02*
X92000D01*
X82000Y26177D02*
Y26650D01*
X79100D02*
X79982D01*
X79100D02*
X79982D01*
X82583Y25500D02*
X91289D01*
X82756Y23500D02*
X88559D01*
X80041Y21500D02*
X88103D01*
X75614Y26650D02*
X79100D01*
X78000Y24361D02*
Y26650D01*
X76000Y24056D02*
Y26650D01*
X74464Y25500D02*
X78464D01*
X73325Y24361D02*
X75614Y26650D01*
X73325Y21756D02*
Y24361D01*
Y23500D02*
X75340D01*
X73310Y21500D02*
X74707D01*
X86422Y19500D02*
X88756D01*
X86000Y20204D02*
Y26650D01*
X86083Y17500D02*
X95700D01*
X88000Y500D02*
Y26650D01*
X84000Y20833D02*
Y26650D01*
X86000Y8393D02*
Y17403D01*
X84000Y9022D02*
Y16774D01*
X86000Y500D02*
Y5592D01*
X84000Y500D02*
Y4963D01*
X80000Y500D02*
Y21223D01*
X82000Y500D02*
Y22453D01*
X74000Y20711D02*
Y25036D01*
X77381Y17500D02*
X82838D01*
X78820Y19500D02*
X82500D01*
X78000Y500D02*
Y19150D01*
X76000Y500D02*
Y16830D01*
X74000Y500D02*
Y17289D01*
X71909Y139362D02*
X73090D01*
X72000D02*
Y144134D01*
X70000Y138767D02*
Y144134D01*
X66000Y137400D02*
Y144134D01*
X64000Y137400D02*
Y144134D01*
X68000Y137400D02*
Y144134D01*
Y129500D02*
Y134600D01*
X64000Y129500D02*
Y134600D01*
X62000Y129500D02*
Y134600D01*
X66000Y129500D02*
Y134600D01*
X58000Y137400D02*
Y144134D01*
X56000Y137400D02*
Y144134D01*
X62000Y137400D02*
Y144134D01*
X60000Y137400D02*
Y144134D01*
X52000Y137400D02*
Y144134D01*
X46000Y137400D02*
Y144134D01*
X54000Y137400D02*
Y144134D01*
X58000Y129500D02*
Y134600D01*
X50000Y137400D02*
Y144134D01*
X60000Y129500D02*
Y134600D01*
X44000Y137400D02*
Y144134D01*
X42000Y137400D02*
Y144134D01*
X48000Y137400D02*
Y144134D01*
X68000Y119957D02*
Y125000D01*
X66000Y119957D02*
Y125000D01*
X64000Y119957D02*
Y125000D01*
X56000Y129500D02*
Y134600D01*
X54000Y129500D02*
Y134600D01*
X62000Y119957D02*
Y125000D01*
X61773Y119957D02*
X68853D01*
X60000Y119341D02*
Y125000D01*
X56000Y104300D02*
Y125000D01*
X54000Y104300D02*
Y125000D01*
X58000Y104300D02*
Y125000D01*
X48000Y129500D02*
Y134600D01*
X46000Y129500D02*
Y134600D01*
X52000Y129500D02*
Y134600D01*
X50000Y129500D02*
Y134600D01*
X42000Y129500D02*
Y134600D01*
X40000Y129500D02*
Y134600D01*
X44000Y129500D02*
Y134600D01*
X50000Y104300D02*
Y125000D01*
X48000Y104300D02*
Y125000D01*
X52000Y104300D02*
Y125000D01*
X44000Y104300D02*
Y125000D01*
X42000Y104300D02*
Y125000D01*
X46000Y104300D02*
Y125000D01*
X3067Y144134D02*
X73933D01*
X3067D02*
X73933D01*
X3067D02*
X73933D01*
X3067D02*
X73933D01*
X3067D02*
X73933D01*
X3067D02*
X73933D01*
X3067D02*
X73933D01*
X3067D02*
X73933D01*
X3067D02*
X73933D01*
X18580Y133500D02*
X69661D01*
X500Y143500D02*
X98700D01*
X500Y141500D02*
X98379D01*
X500Y139500D02*
X96379D01*
X36000Y137400D02*
Y144134D01*
X34000Y137400D02*
Y144134D01*
X40000Y137400D02*
Y144134D01*
X38000Y137400D02*
Y144134D01*
X28000Y137400D02*
Y144134D01*
X26000Y137400D02*
Y144134D01*
X32000Y137400D02*
Y144134D01*
X19680Y134600D02*
X68853D01*
X30000Y137400D02*
Y144134D01*
X28300Y129500D02*
X68618D01*
X500Y137500D02*
X68900D01*
X19100Y137400D02*
X68853D01*
X16580Y131500D02*
X68815D01*
X36000Y129500D02*
Y134600D01*
X34000Y129500D02*
Y134600D01*
X40000Y104300D02*
Y125000D01*
X38000Y129500D02*
Y134600D01*
X28300Y129500D02*
X68618D01*
X32000D02*
Y134600D01*
X29980Y125000D02*
X68607D01*
X38000Y104300D02*
Y125000D01*
X36000Y104300D02*
Y125000D01*
X34000Y103780D02*
Y125000D01*
X26480Y121500D02*
X70160D01*
X28480Y123500D02*
X68662D01*
X32000Y101780D02*
Y125000D01*
X30000Y129500D02*
Y134600D01*
X28000Y129467D02*
Y134600D01*
X15400Y129500D02*
X28300D01*
X26000Y127780D02*
Y134600D01*
X21310Y123090D02*
X27310Y129090D01*
X30000Y99780D02*
Y125000D01*
X26000Y108892D02*
Y121020D01*
X28000Y97780D02*
Y123020D01*
X25900Y120920D02*
X29980Y125000D01*
X15400Y127500D02*
X25720D01*
X25900Y109013D02*
Y120920D01*
X67892Y104300D02*
X68941Y105350D01*
X62353Y117157D02*
X68853D01*
X67920Y97900D02*
X68941Y96879D01*
X37180Y97500D02*
X68320D01*
X71909Y91938D02*
X73090D01*
X33300Y93500D02*
X69070D01*
X35180Y95500D02*
X68553D01*
X33300Y89500D02*
X80080D01*
X68000Y104409D02*
Y117157D01*
X66000Y104300D02*
Y117157D01*
X64000Y104300D02*
Y117157D01*
X62000Y104300D02*
Y116505D01*
X35100Y104300D02*
X67892D01*
X60000D02*
Y115659D01*
X37580Y97900D02*
X67920D01*
X33300Y93620D02*
X37580Y97900D01*
X72000Y78880D02*
Y91938D01*
X70000Y76880D02*
Y92533D01*
X69720Y76600D02*
X74110Y80990D01*
X68000Y76600D02*
Y97820D01*
X33300Y85500D02*
X80080D01*
X33300Y87500D02*
X80080D01*
X33300Y83500D02*
X80080D01*
X71290Y74210D02*
X74217Y77137D01*
X48619Y73800D02*
X70300D01*
X48619Y76600D02*
X69720D01*
X48171Y73500D02*
X74370D01*
X62000Y76600D02*
Y97900D01*
X60000Y76600D02*
Y97900D01*
X66000Y76600D02*
Y97900D01*
X64000Y76600D02*
Y97900D01*
X56000Y76600D02*
Y97900D01*
X54000Y76600D02*
Y97900D01*
X58000Y76600D02*
Y97900D01*
X50000Y76600D02*
Y97900D01*
X48000Y76972D02*
Y97900D01*
X52000Y76600D02*
Y97900D01*
X46000Y76506D02*
Y97900D01*
X33300Y83200D02*
Y93620D01*
X25900Y111500D02*
X68358D01*
X25900Y113500D02*
X68224D01*
X25900Y109500D02*
X69743D01*
X26367Y107500D02*
X68596D01*
X25900Y119500D02*
X60736D01*
X25900Y117500D02*
X58516D01*
X25900Y115500D02*
X69350D01*
X25900Y105500D02*
X68866D01*
X27410Y97190D02*
X34110Y103890D01*
X33300Y91500D02*
X80120D01*
X25900Y103500D02*
X33720D01*
X25900Y101500D02*
X31720D01*
X25900Y99500D02*
X29720D01*
X25900Y97500D02*
X27720D01*
X25900Y95500D02*
X27000D01*
X25900Y87500D02*
Y106491D01*
Y91500D02*
X27000D01*
X25900Y93500D02*
X27000D01*
X25900Y89500D02*
X27000D01*
X25900Y87500D02*
X27000D01*
X32180Y81500D02*
X83520D01*
X30180Y79500D02*
X72620D01*
X28800Y77500D02*
X70620D01*
X28800Y78120D02*
X32890Y82210D01*
X28800Y75500D02*
X45498D01*
X30325Y69500D02*
X75516D01*
X30742Y67500D02*
X77711D01*
X29561Y71500D02*
X74227D01*
X28800Y73500D02*
X46546D01*
X27000Y85080D02*
Y96200D01*
X24480Y85500D02*
X27000D01*
X30000Y71053D02*
Y79320D01*
X26000Y84080D02*
Y106612D01*
X21700Y82720D02*
X25490Y86510D01*
X22480Y83500D02*
X25420D01*
X23210Y81290D02*
X27000Y85080D01*
X28800Y72261D02*
X29915Y71146D01*
X30325Y69261D02*
Y70156D01*
X28800Y72261D02*
Y78120D01*
X14600Y67500D02*
X27108D01*
X2346Y144433D02*
X2677Y144212D01*
X2346Y144433D02*
X2677Y144212D01*
X3067Y144134D01*
X2346Y144433D02*
X2677Y144212D01*
X2346Y144433D02*
X2677Y144212D01*
X2346Y144433D02*
X2677Y144212D01*
X2346Y144433D02*
X2677Y144212D01*
X3067Y144134D01*
X2677Y144212D02*
X3067Y144134D01*
X2677Y144212D02*
X3067Y144134D01*
X2677Y144212D02*
X3067Y144134D01*
X2677Y144212D02*
X3067Y144134D01*
X2677Y144212D02*
X3067Y144134D01*
X2125Y165229D02*
X2306Y165500D01*
X2125Y165229D02*
X2306Y165500D01*
X2125Y165229D02*
X2306Y165500D01*
X2125Y165229D02*
X2306Y165500D01*
X2125Y165229D02*
X2306Y165500D01*
X2125Y165229D02*
X2306Y165500D01*
X2125Y165229D02*
X2306Y165500D01*
X2346Y144433D02*
X2677Y144212D01*
X2346Y144433D02*
X2677Y144212D01*
X2346Y144433D02*
X2677Y144212D01*
X2125Y144763D02*
X2346Y144433D01*
X2125Y144763D02*
X2346Y144433D01*
X2125Y144763D02*
X2346Y144433D01*
X24000Y137400D02*
Y144134D01*
X22000Y137400D02*
Y144134D01*
X20000Y137400D02*
Y144134D01*
X18000Y136880D02*
Y144134D01*
X13010Y131890D02*
X18110Y136990D01*
X24000Y125780D02*
Y134600D01*
X22000Y123780D02*
Y134600D01*
X20000Y88080D02*
Y134600D01*
X15400Y125500D02*
X23720D01*
X15400Y130320D02*
X19680Y134600D01*
X18000Y91517D02*
Y132920D01*
X16000Y134880D02*
Y144134D01*
X14000Y132880D02*
Y144134D01*
X12000Y87121D02*
Y144134D01*
X8000Y81597D02*
Y144134D01*
X2677Y144212D02*
X3067Y144134D01*
X2677Y144212D02*
X3067Y144134D01*
X6000Y66980D02*
Y144134D01*
X15400Y101512D02*
Y130320D01*
X16000Y91724D02*
Y130920D01*
X12600Y101512D02*
Y130900D01*
X10000Y82354D02*
Y144134D01*
X2125Y165229D02*
X2306Y165500D01*
X2125Y165229D02*
X2306Y165500D01*
X2047Y164839D02*
X2125Y165229D01*
X2047Y164839D02*
X2125Y165229D01*
X500Y165500D02*
X2306D01*
X2047Y164839D02*
X2125Y165229D01*
X2047Y164839D02*
X2125Y165229D01*
X2047Y164839D02*
X2125Y165229D01*
X2047Y164839D02*
X2125Y165229D01*
X2047Y164839D02*
X2125Y165229D01*
X2047Y164839D02*
X2125Y165229D01*
X2047Y164839D02*
X2125Y165229D01*
X500Y163500D02*
X2047D01*
Y145153D02*
Y164839D01*
Y145153D02*
Y164839D01*
Y145153D02*
Y164839D01*
Y145153D02*
Y164839D01*
X500Y159500D02*
X2047D01*
X500Y161500D02*
X2047D01*
X500Y157500D02*
X2047D01*
X500Y147500D02*
X2047D01*
X500Y149500D02*
X2047D01*
X500Y145500D02*
X2047D01*
X500Y153500D02*
X2047D01*
X500Y155500D02*
X2047D01*
X500Y151500D02*
X2047D01*
X2125Y144763D02*
X2346Y144433D01*
X2125Y144763D02*
X2346Y144433D01*
X2125Y144763D02*
X2346Y144433D01*
X2125Y144763D02*
X2346Y144433D01*
X2125Y144763D02*
X2346Y144433D01*
X2047Y145153D02*
X2125Y144763D01*
X2346Y144433D01*
X500Y127500D02*
X12600D01*
X500Y129500D02*
X12600D01*
X500Y125500D02*
X12600D01*
X500Y135500D02*
X16620D01*
X500Y133500D02*
X14620D01*
X500Y131500D02*
X12735D01*
X2047Y145153D02*
Y164839D01*
Y145153D02*
Y164839D01*
Y145153D02*
X2125Y144763D01*
X2047Y145153D02*
X2125Y144763D01*
X2047Y145153D02*
Y164839D01*
Y145153D02*
Y164839D01*
Y145153D02*
Y164839D01*
Y145153D02*
X2125Y144763D01*
X2047Y145153D02*
X2125Y144763D01*
X2047Y145153D02*
X2125Y144763D01*
X2047Y145153D02*
X2125Y144763D01*
X2047Y145153D02*
X2125Y144763D01*
X2047Y145153D02*
X2125Y144763D01*
X15400Y123500D02*
X21720D01*
X15400Y121500D02*
X20900D01*
X15400Y117500D02*
X20900D01*
X15400Y119500D02*
X20900D01*
X15400Y115500D02*
X20900D01*
X15400Y105500D02*
X20900D01*
X15400Y107500D02*
X20900D01*
X15400Y103500D02*
X20900D01*
X15400Y111500D02*
X20900D01*
X15400Y113500D02*
X20900D01*
X15400Y109500D02*
X20900D01*
Y103108D02*
Y122100D01*
Y88980D02*
Y100585D01*
X15728Y99500D02*
X20900D01*
X15411Y101500D02*
X20448D01*
X18642Y89500D02*
X20900D01*
X18021Y91500D02*
X20900D01*
X18000Y86080D02*
Y88554D01*
X16280Y87500D02*
X19420D01*
X14600Y85820D02*
X16934Y88154D01*
X24000Y82080D02*
Y85020D01*
X22800Y74154D02*
Y80300D01*
X21700Y81500D02*
X23420D01*
X21700Y79500D02*
X22800D01*
X21753Y75500D02*
X22800D01*
X22006Y77500D02*
X22800D01*
X22528Y73882D02*
X22800Y74154D01*
X14600Y69500D02*
X23959D01*
X17010Y85090D02*
X20900Y88980D01*
X22000Y77513D02*
Y83020D01*
X21700Y77961D02*
Y82720D01*
X14600Y85500D02*
X17420D01*
X16600Y79561D02*
Y84100D01*
X14600Y79500D02*
X16547D01*
X22000Y73777D02*
Y75887D01*
X14600Y75500D02*
X18847D01*
X14600Y77500D02*
X16294D01*
X14600Y71500D02*
X20809D01*
X500Y109500D02*
X12600D01*
X500Y115500D02*
X12600D01*
X14000Y89180D02*
Y98367D01*
X500Y105500D02*
X12600D01*
X500Y107500D02*
X12600D01*
X500Y97500D02*
X20900D01*
X500Y93500D02*
X20900D01*
X12210Y87390D02*
X14954Y90134D01*
X14600Y83500D02*
X16600D01*
X500Y95500D02*
X20900D01*
X500Y91500D02*
X15650D01*
X500Y89500D02*
X14320D01*
X500Y113500D02*
X12600D01*
X500Y117500D02*
X12600D01*
X500Y103500D02*
X12600D01*
X500Y111500D02*
X12600D01*
X500Y121500D02*
X12600D01*
X500Y123500D02*
X12600D01*
X500Y119500D02*
X12600D01*
X500Y99500D02*
X12272D01*
X500Y101500D02*
X12589D01*
X500Y87500D02*
X12320D01*
X500Y85500D02*
X11800D01*
X14600Y81500D02*
X16600D01*
X11161D02*
X11800D01*
X10949Y77500D02*
X11800D01*
X11130Y79500D02*
X11800D01*
X500Y83500D02*
X11800D01*
X10949Y73500D02*
X11800D01*
X10949Y75500D02*
X11800D01*
X14600Y73500D02*
X21486D01*
X10949Y69500D02*
X11800D01*
X10949Y71500D02*
X11800D01*
X10480Y67500D02*
X11800D01*
X8149Y69129D02*
Y79264D01*
X500Y79500D02*
X7968D01*
X10949Y68549D02*
Y79264D01*
X8000Y68980D02*
Y79452D01*
X500Y77500D02*
X8149D01*
X500Y81500D02*
X7937D01*
X500Y75500D02*
X8149D01*
X500Y71500D02*
X8149D01*
X500Y69500D02*
X8149D01*
X500Y73500D02*
X8149D01*
X500Y67500D02*
X6520D01*
X68000Y66916D02*
Y73800D01*
X66000Y66916D02*
Y73800D01*
X72000Y66916D02*
Y74920D01*
X70000Y66916D02*
Y73800D01*
X64000Y66916D02*
Y73800D01*
X62000Y66916D02*
Y73800D01*
X62980Y49000D02*
X64614D01*
X64000Y47816D02*
Y49000D01*
X62000Y47816D02*
Y48504D01*
X54661Y48500D02*
X61900D01*
X56000Y66916D02*
Y73800D01*
X54000Y66916D02*
Y73800D01*
X60000Y66916D02*
Y73800D01*
X58000Y66916D02*
Y73800D01*
X50000Y66916D02*
Y73800D01*
X48000Y66916D02*
Y73428D01*
X52000Y66916D02*
Y73800D01*
X58000Y47816D02*
Y48500D01*
X60000Y47816D02*
Y48500D01*
X50000Y49100D02*
Y50484D01*
X48000Y49100D02*
Y50484D01*
X67720Y32500D02*
X69720Y34500D01*
X68000Y32780D02*
Y34500D01*
X66000Y32500D02*
Y34500D01*
X64000Y32500D02*
Y34500D01*
X54658Y47816D02*
X64609D01*
X58000Y32500D02*
Y34500D01*
X62000Y32500D02*
Y34500D01*
X60000Y32500D02*
Y34500D01*
X50129Y32500D02*
X67720D01*
X52280Y27800D02*
X59547D01*
X58000Y21939D02*
Y27800D01*
X56000Y47816D02*
Y48500D01*
X54254Y48220D02*
X54658Y47816D01*
X56000Y32500D02*
Y34500D01*
X54000Y32500D02*
Y34500D01*
X52000Y32500D02*
Y34500D01*
X50000Y32494D02*
Y34500D01*
X48000Y30951D02*
Y34500D01*
X54000Y25840D02*
Y27800D01*
X52000Y26685D02*
Y27520D01*
X56000Y24350D02*
Y27800D01*
X47790Y23310D02*
X52280Y27800D01*
X30466Y66916D02*
X77127D01*
X42000D02*
Y97900D01*
X46000Y66916D02*
Y73894D01*
X44000Y66916D02*
Y97900D01*
X26234Y55984D02*
X80680D01*
X25472Y56283D02*
X80680D01*
X27373Y50484D02*
X51609D01*
X46000Y49100D02*
Y50484D01*
X44000Y49100D02*
Y50484D01*
X26880Y46300D02*
X52214D01*
X26300Y49100D02*
X51694D01*
X26389Y49500D02*
X51559D01*
X26799Y46220D02*
X52294D01*
X38000Y66916D02*
Y97900D01*
X36000Y66916D02*
Y96320D01*
X42000Y49100D02*
Y50484D01*
X40000Y66916D02*
Y97900D01*
X32000Y66916D02*
Y81320D01*
X34000Y66916D02*
Y94320D01*
X38000Y49100D02*
Y50484D01*
X36000Y49100D02*
Y50484D01*
X40000Y49100D02*
Y50484D01*
X32000Y49100D02*
Y50484D01*
X30000Y49100D02*
Y50484D01*
X34000Y49100D02*
Y50484D01*
X45295Y33500D02*
X68720D01*
X38965Y34449D02*
X45295D01*
X46000Y29628D02*
Y34500D01*
X45295Y25700D02*
Y34449D01*
X35955Y34500D02*
X69720D01*
X34955Y33500D02*
X38965D01*
Y25700D02*
Y34449D01*
X47331Y30282D02*
X49139Y32090D01*
X45295Y31500D02*
X48549D01*
X45295Y29500D02*
X45899D01*
X33605Y31500D02*
X38965D01*
X24035Y29500D02*
X38965D01*
X33957Y32502D02*
X35955Y34500D01*
X34000Y25700D02*
Y32545D01*
X38000Y25700D02*
Y34500D01*
X36000Y25700D02*
Y34500D01*
X26800Y38980D02*
X30176D01*
X25500Y37500D02*
X28696D01*
X25677Y34482D02*
X30176Y38980D01*
X32000Y25700D02*
Y30717D01*
X30000Y25700D02*
Y31052D01*
X24035Y27500D02*
X38965D01*
X28000Y25700D02*
Y30959D01*
X59376Y21756D02*
Y24419D01*
X57361Y23500D02*
X59376D01*
X51980Y27500D02*
X59321D01*
X54237Y25500D02*
X58922D01*
X65322Y19500D02*
X67379D01*
X57994Y21500D02*
X59391D01*
X50000Y19914D02*
Y23362D01*
X47980Y23500D02*
X49945D01*
X46220Y25700D02*
X47070Y26550D01*
X48000Y20870D02*
Y23520D01*
X58000Y20883D02*
Y21572D01*
X50201Y19500D02*
X53881D01*
X68000Y500D02*
Y17419D01*
X66000Y500D02*
Y19953D01*
X64782Y17500D02*
X67919D01*
X70000Y500D02*
Y16879D01*
X64000Y500D02*
Y16972D01*
X72000Y500D02*
Y16919D01*
X49691Y5500D02*
X83010D01*
X50258Y7500D02*
X82442D01*
X62000Y500D02*
Y17181D01*
X54000Y500D02*
Y19428D01*
X49863Y17500D02*
X55320D01*
X50000Y8103D02*
Y17692D01*
X52000Y500D02*
Y21945D01*
X58000Y500D02*
Y17118D01*
X56000Y500D02*
Y17016D01*
X60000Y500D02*
Y16821D01*
X50000Y500D02*
Y5881D01*
X48000Y9059D02*
Y16736D01*
Y500D02*
Y4925D01*
X45295Y25700D02*
X46220D01*
X46000D02*
Y27172D01*
X25506Y22900D02*
X46800D01*
X45295Y27500D02*
X45774D01*
X32391Y21500D02*
X52659D01*
X39980Y17500D02*
X46618D01*
X39980Y19500D02*
X46279D01*
X39980Y15500D02*
X91289D01*
X39980Y13500D02*
X88559D01*
X39980Y11500D02*
X88103D01*
X38778Y9500D02*
X88756D01*
X34000Y21457D02*
Y22900D01*
X32000Y21812D02*
Y22900D01*
X38000Y21457D02*
Y22900D01*
X36000Y21457D02*
Y22900D01*
X24926Y25700D02*
X38965D01*
X30000Y21920D02*
Y22900D01*
X24525Y21920D02*
X31500D01*
X38778Y9614D02*
X39980D01*
X32434Y21457D02*
X39980D01*
Y9614D02*
Y21457D01*
X31699Y9500D02*
X33278D01*
X32075Y9614D02*
X33278D01*
X29998Y9480D02*
X31500D01*
X46000Y500D02*
Y22900D01*
X44000Y500D02*
Y22900D01*
X40000Y500D02*
Y22900D01*
X38778Y6528D02*
Y9614D01*
X42000Y500D02*
Y22900D01*
X38578Y5500D02*
X46789D01*
X38778Y7500D02*
X46222D01*
X34889Y1500D02*
X139500D01*
X36889Y3500D02*
X139500D01*
X33889Y500D02*
X139500D01*
X33278Y7667D02*
Y9614D01*
X30668Y7500D02*
X33111D01*
X32000Y6389D02*
Y9585D01*
X30661Y5050D02*
X33278Y7667D01*
X33889Y500D02*
X37968Y4579D01*
X36000Y500D02*
Y2611D01*
X38000Y500D02*
Y4611D01*
X29983Y5500D02*
X31111D01*
X30000Y5050D02*
Y5522D01*
X29559Y5050D02*
X30661D01*
X24000Y66916D02*
Y69369D01*
X22000Y66916D02*
Y70223D01*
X26000Y66916D02*
Y68129D01*
X21666Y66916D02*
X27384D01*
X20000Y66354D02*
Y74840D01*
X18000Y64389D02*
Y76416D01*
X14272Y65500D02*
X19111D01*
X12280Y63500D02*
X17111D01*
X14600Y66400D02*
Y85820D01*
X16000Y62389D02*
Y87220D01*
X11800Y66980D02*
Y86400D01*
X10000Y65180D02*
Y67020D01*
X9400Y60620D02*
X14190Y65410D01*
X10280Y61500D02*
X15111D01*
X14000Y60389D02*
Y65220D01*
X12000Y58389D02*
Y63220D01*
X9400Y59500D02*
X13111D01*
X9400Y59361D02*
Y60620D01*
X9786Y57500D02*
X11111D01*
X28000Y49100D02*
Y50484D01*
X26000Y55974D02*
Y56283D01*
X25943Y49054D02*
X27373Y50484D01*
X24717Y55528D02*
X25472Y56283D01*
X25680Y45101D02*
X25680Y40100D01*
X25500Y36861D02*
Y44920D01*
X17850Y40961D02*
X22746Y45857D01*
X22389Y45500D02*
X22700D01*
Y36861D02*
Y45500D01*
X22000Y34449D02*
Y45111D01*
X12250Y43061D02*
X12807Y43617D01*
X10000Y56389D02*
Y61220D01*
X18389Y41500D02*
X22700D01*
X20389Y43500D02*
X22700D01*
X20000Y34449D02*
Y43111D01*
X18000Y34449D02*
Y41111D01*
X12350Y17500D02*
Y42100D01*
X12250Y14734D02*
Y43061D01*
X8480Y65500D02*
X10320D01*
X8000Y63180D02*
Y65020D01*
X7010Y62190D02*
X11800Y66980D01*
X6480Y63500D02*
X8320D01*
X2210Y63190D02*
X8149Y69129D01*
X4600Y61620D02*
X10539Y67559D01*
X8000Y54389D02*
Y56216D01*
X4600Y61500D02*
X6633D01*
X4600Y55500D02*
X9111D01*
X4000Y64980D02*
Y144134D01*
X2000Y62921D02*
Y165500D01*
X500Y65500D02*
X4520D01*
X500Y63500D02*
X2520D01*
X500Y61500D02*
X1800D01*
X6600Y59361D02*
Y61200D01*
X4600Y59500D02*
X6600D01*
X4600Y57500D02*
X6214D01*
X500D02*
X1800D01*
X500Y59500D02*
X1800D01*
X500Y55500D02*
X1800D01*
X5083Y51472D02*
X19717Y66106D01*
X6000Y52389D02*
Y63020D01*
X6450Y45061D02*
X22805Y61416D01*
X7559Y46148D02*
X22385Y60974D01*
X4600Y53500D02*
X7111D01*
X4600Y52661D02*
Y61620D01*
X6750Y13595D02*
Y44200D01*
X1759Y48148D02*
X3128Y49517D01*
X6450Y12239D02*
Y45061D01*
X2000Y48389D02*
Y49947D01*
X1800Y52661D02*
Y62200D01*
X500Y500D02*
Y165500D01*
Y53500D02*
X1800D01*
X500Y51500D02*
X1318D01*
X500Y49500D02*
X3111D01*
X500Y47500D02*
X1277D01*
X950Y11100D02*
Y46200D01*
X500Y43500D02*
X950D01*
X500Y45500D02*
X950D01*
X500Y41500D02*
X950D01*
X28000Y36804D02*
Y38980D01*
X25869Y39450D02*
X26150Y39169D01*
X25982Y35500D02*
X26696D01*
X26000Y34804D02*
Y39319D01*
X25500Y39500D02*
X25848D01*
X26000Y25700D02*
Y30729D01*
X28000Y21920D02*
Y22900D01*
X17850Y39500D02*
X22700D01*
X24035Y33323D02*
Y33717D01*
X17850Y34449D02*
Y40961D01*
Y37500D02*
X22700D01*
X17850Y35500D02*
X22218D01*
X17850Y34449D02*
X22608D01*
X24035Y25380D02*
Y31877D01*
X23615Y24969D02*
X23936Y25290D01*
X22528Y23882D02*
X23615Y24969D01*
X17850D02*
X23615D01*
X22000Y23777D02*
Y24969D01*
X17850Y23500D02*
X21486D01*
X26000Y21920D02*
Y22900D01*
X24525Y21920D02*
X25506Y22900D01*
X22780Y19420D02*
Y20122D01*
X22000Y19420D02*
Y20223D01*
X17850Y21500D02*
X20809D01*
X17850Y19500D02*
X22780D01*
X22780Y10500D02*
Y11680D01*
X22000Y10250D02*
Y11680D01*
X21500Y10250D02*
X22830D01*
X20846Y19420D02*
X22780D01*
X18600Y11680D02*
X22780D01*
X19475Y10250D02*
X21500D01*
X18500Y19420D02*
X19154D01*
X18110Y19342D02*
X18500Y19420D01*
X20000Y19146D02*
Y24969D01*
X18000Y19269D02*
Y24969D01*
X17850Y19168D02*
X18110Y19342D01*
X17850Y19168D02*
Y24969D01*
X16000Y10984D02*
Y13101D01*
X18000Y10250D02*
Y11848D01*
X17669Y12150D02*
X17950Y11869D01*
X20000Y10250D02*
Y11680D01*
X17349Y10250D02*
X19475D01*
X16900Y12950D02*
X17480D01*
X13159Y15552D02*
X14952Y13759D01*
X14000Y12984D02*
Y14711D01*
X500Y29500D02*
X950D01*
X500Y31500D02*
X950D01*
X12250Y15500D02*
X13211D01*
X13484Y13500D02*
X15250D01*
X6450D02*
X6752D01*
X500Y27500D02*
X950D01*
X500Y33500D02*
X950D01*
X500Y23500D02*
X950D01*
X500Y25500D02*
X950D01*
X500Y37500D02*
X950D01*
X500Y39500D02*
X950D01*
X500Y35500D02*
X950D01*
X500Y13500D02*
X950D01*
X500Y15500D02*
X950D01*
X500Y11500D02*
X950D01*
X500Y19500D02*
X950D01*
X500Y21500D02*
X950D01*
X500Y17500D02*
X950D01*
X15484Y11500D02*
X22780D01*
X12250Y14734D02*
X16298Y10685D01*
X10000Y8689D02*
Y9205D01*
X9189Y9500D02*
X9705D01*
X6450Y12239D02*
X12707Y5982D01*
X7559Y11646D02*
X12409Y6796D01*
X1759Y9152D02*
X10411Y500D01*
X12000Y6689D02*
Y7205D01*
X11189Y7500D02*
X11705D01*
X10000Y500D02*
Y911D01*
X500Y1500D02*
X9411D01*
X500Y500D02*
X10411D01*
X8000Y10689D02*
Y11205D01*
X7189Y11500D02*
X7705D01*
X2000Y500D02*
Y8911D01*
X500Y9500D02*
X1463D01*
X6000Y500D02*
Y4911D01*
X4000Y500D02*
Y6911D01*
X8000Y500D02*
Y2911D01*
X500Y5500D02*
X5411D01*
X500Y7500D02*
X3411D01*
X500Y3500D02*
X7411D01*
X123916Y127484D02*
X127200Y124200D01*
X108084Y127484D02*
X123916D01*
X105100Y124500D02*
X108084Y127484D01*
X124716Y128884D02*
X128900Y124700D01*
X88384Y128884D02*
X124716D01*
X78057Y118557D02*
X88384Y128884D01*
X105616Y107184D02*
X105800Y107000D01*
X102378Y107184D02*
X105616D01*
X90000Y94806D02*
X102378Y107184D01*
X90000Y88200D02*
Y94806D01*
X71000Y33800D02*
X94500D01*
X47429Y28400D02*
X50129Y31100D01*
X68300D02*
X71000Y33800D01*
X50129Y31100D02*
X68300D01*
X72200Y32400D02*
X93600D01*
X69000Y29200D02*
X72200Y32400D01*
X51700Y29200D02*
X69000D01*
X46800Y24300D02*
X51700Y29200D01*
X94500Y33800D02*
X97100Y31200D01*
X93600Y32400D02*
X95300Y30700D01*
Y24965D02*
Y30700D01*
X125000Y48900D02*
X128900Y52800D01*
X81800Y48900D02*
X125000D01*
X79316Y46416D02*
X81800Y48900D01*
X124000Y50400D02*
X127200Y53600D01*
X62400Y50400D02*
X124000D01*
X127200Y53600D02*
Y124200D01*
X105100Y121600D02*
Y124500D01*
X61900Y49900D02*
X62400Y50400D01*
X53400Y49900D02*
X61900D01*
X89300Y42700D02*
X91900D01*
X88716Y42116D02*
X89300Y42700D01*
X24200Y73574D02*
Y80300D01*
X22626Y72000D02*
X24200Y73574D01*
X25776Y70000D02*
Y79576D01*
X27400Y78700D02*
X31900Y83200D01*
X27400Y71681D02*
Y78700D01*
Y71681D02*
X28925Y70156D01*
Y68000D02*
Y70156D01*
X37000Y99300D02*
X68500D01*
X31900Y94200D02*
X37000Y99300D01*
X31900Y83200D02*
Y94200D01*
X68471Y102900D02*
X72500Y106929D01*
X35100Y102900D02*
X68471D01*
X28400Y96200D02*
X35100Y102900D01*
X68500Y99300D02*
X72500Y95300D01*
X28400Y84500D02*
Y96200D01*
X30100Y83900D02*
Y95200D01*
X25776Y79576D02*
X30100Y83900D01*
Y95200D02*
X36014Y101114D01*
X24200Y80300D02*
X28400Y84500D01*
X36014Y101114D02*
X72500D01*
X20300Y76700D02*
Y83300D01*
X18000Y78300D02*
Y84100D01*
X22300Y88400D01*
X75850Y42116D02*
X88716D01*
X75266Y42700D02*
X75850Y42116D01*
X59800Y42700D02*
X75266D01*
X54078Y46416D02*
X79316D01*
X66400Y48400D02*
X76900D01*
X33625Y37300D02*
X95480D01*
X35375Y35900D02*
X94700D01*
X28300Y128100D02*
X70414D01*
X22300Y122100D02*
X28300Y128100D01*
X22300Y101847D02*
Y122100D01*
X70471Y126400D02*
X72500Y124371D01*
X29400Y126400D02*
X70471D01*
X24500Y121500D02*
X29400Y126400D01*
X70414Y128100D02*
X72500Y130186D01*
Y118557D02*
X78057D01*
X60400Y117500D02*
X60716D01*
X61773Y118557D01*
X72500D01*
X19100Y136000D02*
X72500D01*
X14000Y130900D02*
X19100Y136000D01*
X104764Y28016D02*
Y28016D01*
Y28016D02*
X106590Y26190D01*
X107475D01*
X112000Y21665D01*
X95480Y37300D02*
X104764Y28016D01*
X128900Y52800D02*
Y124700D01*
X47358Y75200D02*
X70300D01*
X75100Y80000D01*
X84000D02*
X88016Y84016D01*
X75100Y80000D02*
X84000D01*
X76100Y77200D02*
X83200D01*
X76100Y74246D02*
X82246D01*
X88016Y94916D02*
X104600Y111500D01*
X88016Y84016D02*
Y94916D01*
X96600Y90600D02*
Y92500D01*
X83200Y77200D02*
X96600Y90600D01*
X102300Y94300D02*
Y102500D01*
X82246Y74246D02*
X102300Y94300D01*
X104476Y94476D02*
Y96776D01*
X81291Y71291D02*
X104476Y94476D01*
X76100Y71291D02*
X81291D01*
X104600Y111500D02*
Y113000D01*
X104476Y96776D02*
X104700Y97000D01*
X52794Y47700D02*
X54078Y46416D01*
X26300Y47700D02*
X52794D01*
X24100Y45500D02*
X26300Y47700D01*
X24100Y35600D02*
Y45500D01*
X13200Y66400D02*
Y86400D01*
X8000Y61200D02*
X13200Y66400D01*
X8000Y58100D02*
Y61200D01*
X9549Y68549D02*
Y80525D01*
X3200Y62200D02*
X9549Y68549D01*
X3200Y51400D02*
Y62200D01*
X31876Y38700D02*
X96200D01*
X25776Y32600D02*
X31876Y38700D01*
X104900Y30000D02*
X105700D01*
X96200Y38700D02*
X104900Y30000D01*
X94700Y35900D02*
X107000Y23600D01*
Y16665D02*
Y23600D01*
X97100Y16565D02*
Y31200D01*
X92000Y21665D02*
X95300Y24965D01*
X28925Y32600D02*
X33625Y37300D01*
X32075Y32600D02*
X35375Y35900D01*
X24500Y87500D02*
Y107752D01*
X20300Y83300D02*
X24500Y87500D01*
Y107752D02*
Y121500D01*
X14000Y100251D02*
Y130900D01*
X22300Y88400D02*
Y101847D01*
X13200Y86400D02*
X16835Y90035D01*
X22626Y22000D02*
X24926Y24300D01*
X107000Y16665D02*
X112000Y11665D01*
X24926Y24300D02*
X46800D01*
X97100Y16565D02*
X102000Y11665D01*
D16*
X128500Y156500D02*
X137000D01*
X128500Y148000D02*
Y156500D01*
Y165000D01*
X120000Y156500D02*
X128500D01*
X85500D02*
Y165000D01*
Y156500D02*
X94000D01*
X77000D02*
X85500D01*
Y148000D02*
Y156500D01*
X72500Y112743D02*
X76453D01*
X122000Y11665D02*
X126000D01*
X122000D02*
Y15665D01*
Y7665D02*
Y11665D01*
X118000D02*
X122000D01*
X77374Y21756D02*
Y24035D01*
X75094Y21756D02*
X77374D01*
X79654D01*
X68547Y112743D02*
X72500D01*
X55327Y21756D02*
Y24035D01*
Y21756D02*
X57606D01*
X53047D02*
X55327D01*
X96100Y137100D02*
X100200Y141200D01*
Y146400D01*
X96100Y134200D02*
Y137100D01*
D82*
X74475Y29400D02*
X80300D01*
X71075Y26000D02*
X74475Y29400D01*
X61626Y26000D02*
X71075D01*
X98299Y53234D02*
X107300Y62235D01*
X26234Y53234D02*
X98299D01*
X15100Y42100D02*
X26234Y53234D01*
X21666Y64166D02*
X78266D01*
X3700Y46200D02*
X21666Y64166D01*
X78266D02*
X122000Y107900D01*
Y118167D01*
X24333Y59033D02*
X83200D01*
Y118533D02*
X89667Y125000D01*
X83200Y90167D02*
Y118533D01*
X89667Y125000D02*
X91707D01*
X93747D01*
X97827D02*
X99867D01*
X15100Y17500D02*
Y42100D01*
X95787Y125000D02*
X97827D01*
X93747D02*
X95787D01*
X9500Y44200D02*
X24333Y59033D01*
X9500Y13595D02*
Y44200D01*
X122000Y118167D02*
Y120207D01*
Y122247D01*
Y124287D01*
X15100Y17500D02*
X16900Y15700D01*
X107300Y62235D02*
Y80700D01*
X104300D02*
X107300D01*
X101300D02*
X104300D01*
X110300D02*
X113300D01*
X107300D02*
X110300D01*
X23525Y7500D02*
X27406D01*
X21500D02*
X23525D01*
X19475D02*
X21500D01*
X15595D02*
X19475D01*
X31800Y2300D02*
X36028Y6528D01*
X12500Y2300D02*
X31800D01*
X3700Y11100D02*
X12500Y2300D01*
X3700Y11100D02*
Y46200D01*
X9500Y13595D02*
X15595Y7500D01*
X16900Y15700D02*
X21100D01*
X36028Y6528D02*
Y15535D01*
D84*
X80524Y24315D02*
D03*
X52177D02*
D03*
D85*
X84461Y18803D02*
D03*
Y6992D02*
D03*
X48240Y18803D02*
D03*
Y6992D02*
D03*
D86*
X77374Y21756D02*
D03*
X75799Y19000D02*
D03*
X72650D02*
D03*
X71075Y21756D02*
D03*
X69500Y19000D02*
D03*
X67925Y21756D02*
D03*
X64776D02*
D03*
X63201Y19000D02*
D03*
X61626Y21756D02*
D03*
X55327D02*
D03*
X60051Y19000D02*
D03*
X56902D02*
D03*
D87*
X27406Y7500D02*
D03*
X15595D02*
D03*
D88*
X122000Y11665D02*
D03*
X112000D02*
D03*
X102000D02*
D03*
X92000D02*
D03*
Y21665D02*
D03*
X102000D02*
D03*
X112000D02*
D03*
X122000D02*
D03*
D89*
X110000Y125500D02*
D03*
X112000D02*
D03*
X103200Y105200D02*
D03*
X105800Y107000D02*
D03*
X113500Y93000D02*
D03*
X100000Y3500D02*
D03*
X102000D02*
D03*
X104000D02*
D03*
X106000D02*
D03*
X108000D02*
D03*
X110000D02*
D03*
X112000D02*
D03*
X114000D02*
D03*
X130000Y7500D02*
D03*
X132000Y9500D02*
D03*
Y7500D02*
D03*
X128000Y5500D02*
D03*
X130000D02*
D03*
X132000D02*
D03*
X134000D02*
D03*
Y7500D02*
D03*
Y9500D02*
D03*
Y11500D02*
D03*
X136000Y13500D02*
D03*
Y11500D02*
D03*
Y9500D02*
D03*
Y7500D02*
D03*
Y5500D02*
D03*
Y3500D02*
D03*
X134000D02*
D03*
X132000D02*
D03*
X130000D02*
D03*
X128000D02*
D03*
X126000D02*
D03*
X124000D02*
D03*
X122000D02*
D03*
X118000D02*
D03*
X120000D02*
D03*
X116000D02*
D03*
X102000Y37500D02*
D03*
X66400Y33200D02*
D03*
X90700Y29400D02*
D03*
X88620D02*
D03*
X86540D02*
D03*
X84460D02*
D03*
X82380D02*
D03*
X20000Y19620D02*
D03*
Y21500D02*
D03*
X38000Y31500D02*
D03*
X36000D02*
D03*
X83300Y46800D02*
D03*
X101900D02*
D03*
X40000Y75500D02*
D03*
X84200Y44100D02*
D03*
X28925Y68000D02*
D03*
X18000Y78300D02*
D03*
X22626Y72000D02*
D03*
X25776Y70000D02*
D03*
X91900Y42700D02*
D03*
X76900Y48400D02*
D03*
X59800Y42700D02*
D03*
X62000Y67500D02*
D03*
X64000D02*
D03*
X70000D02*
D03*
X68000D02*
D03*
X66000D02*
D03*
X116000Y149500D02*
D03*
X112000D02*
D03*
X36000Y111500D02*
D03*
X42000D02*
D03*
X48000D02*
D03*
Y117500D02*
D03*
X42000D02*
D03*
X36000D02*
D03*
X8000Y85500D02*
D03*
X76000Y83500D02*
D03*
X66000Y81500D02*
D03*
X52000Y17500D02*
D03*
X80000D02*
D03*
X111900Y107100D02*
D03*
X122200Y85500D02*
D03*
X89200Y116200D02*
D03*
X47358Y75200D02*
D03*
X76100Y74246D02*
D03*
X90000Y88200D02*
D03*
X76100Y77200D02*
D03*
Y71291D02*
D03*
X96600Y92500D02*
D03*
X104700Y97000D02*
D03*
X102300Y102550D02*
D03*
X104600Y113000D02*
D03*
X60400Y117500D02*
D03*
X91707Y125000D02*
D03*
X66400Y48400D02*
D03*
X53400Y49900D02*
D03*
X24100Y35600D02*
D03*
X105100Y121600D02*
D03*
X122000Y120207D02*
D03*
Y122247D02*
D03*
Y124287D02*
D03*
Y118167D02*
D03*
X96100Y134200D02*
D03*
X100200Y146400D02*
D03*
X81900Y134000D02*
D03*
X89667Y125000D02*
D03*
X19475Y7500D02*
D03*
X23525D02*
D03*
X21500D02*
D03*
X95787Y125000D02*
D03*
X93747D02*
D03*
X83200Y88133D02*
D03*
Y86100D02*
D03*
Y84067D02*
D03*
Y63100D02*
D03*
Y61067D02*
D03*
Y57000D02*
D03*
X99867Y125000D02*
D03*
X97827D02*
D03*
X83200Y90167D02*
D03*
Y59033D02*
D03*
X8000Y58100D02*
D03*
X3200Y51400D02*
D03*
X30200Y19800D02*
D03*
X28200D02*
D03*
Y17775D02*
D03*
X30200D02*
D03*
X110300Y80700D02*
D03*
X107300D02*
D03*
X101300D02*
D03*
X104300D02*
D03*
X113300D02*
D03*
X28200Y13725D02*
D03*
Y11700D02*
D03*
X30200D02*
D03*
Y13725D02*
D03*
X28200Y15750D02*
D03*
X30200D02*
D03*
X80300Y29400D02*
D03*
X117900Y78400D02*
D03*
Y80800D02*
D03*
X120900Y78400D02*
D03*
Y80800D02*
D03*
X123900D02*
D03*
Y78400D02*
D03*
Y58500D02*
D03*
Y60900D02*
D03*
X120900D02*
D03*
Y58500D02*
D03*
X117900Y60900D02*
D03*
Y58500D02*
D03*
X25776Y32600D02*
D03*
X14000Y100251D02*
D03*
X24500Y107752D02*
D03*
X22300Y101847D02*
D03*
X16835Y90035D02*
D03*
X20300Y76700D02*
D03*
X9549Y80525D02*
D03*
X32075Y32600D02*
D03*
X28925D02*
D03*
X105700Y30000D02*
D03*
X47429Y28400D02*
D03*
X22626Y22000D02*
D03*
X28300Y41300D02*
D03*
Y44300D02*
D03*
X119000Y133000D02*
D03*
X125000Y142000D02*
D03*
X122000Y133000D02*
D03*
X125000Y139000D02*
D03*
Y136000D02*
D03*
Y133000D02*
D03*
X119000Y136000D02*
D03*
X122000D02*
D03*
Y139000D02*
D03*
X119000D02*
D03*
X122000Y142000D02*
D03*
X119000D02*
D03*
Y41500D02*
D03*
X122000D02*
D03*
X119000Y38500D02*
D03*
X122000D02*
D03*
Y35500D02*
D03*
X119000D02*
D03*
D90*
X26972Y15535D02*
D03*
X36028D02*
D03*
D91*
X20870Y29709D02*
D03*
X42130D02*
D03*
D92*
X72500Y124371D02*
D03*
Y118557D02*
D03*
Y130186D02*
D03*
Y136000D02*
D03*
Y112743D02*
D03*
Y106929D02*
D03*
Y101114D02*
D03*
Y95300D02*
D03*
D93*
X21100Y15700D02*
D03*
D94*
X61626Y26000D02*
D03*
X71075D02*
D03*
D95*
X85500Y156500D02*
D03*
X128500D02*
D03*
D96*
X71075Y21756D02*
Y26000D01*
X61626Y21756D02*
Y26000D01*
D97*
X123900Y58500D02*
Y60900D01*
Y78400D01*
Y80800D01*
X120900Y58500D02*
Y60900D01*
Y78400D01*
Y80800D01*
X117900Y58500D02*
Y60900D01*
Y78400D01*
Y80800D01*
M02*
