G04*
G04 #@! TF.GenerationSoftware,Altium Limited,Altium Designer,19.1.5 (86)*
G04*
G04 Layer_Color=65535*
%FSLAX25Y25*%
%MOIN*%
G70*
G01*
G75*
%ADD10C,0.00000*%
%ADD11C,0.00600*%
%ADD12C,0.00787*%
%ADD13C,0.00591*%
%ADD14C,0.00800*%
%ADD15C,0.00500*%
%ADD16C,0.01000*%
%ADD17C,0.00394*%
G36*
X48096Y77121D02*
X48895Y75747D01*
X47999D01*
X47191Y76980D01*
X46827Y75747D01*
X46028D01*
X46831Y78499D01*
X47626D01*
X47270Y77261D01*
X48644Y78499D01*
X49535D01*
X48096Y77121D01*
D02*
G37*
G36*
X39917Y76072D02*
X39904Y76045D01*
X39886Y76014D01*
X39873Y75993D01*
X39869Y75988D01*
Y75984D01*
X39842Y75944D01*
X39820Y75909D01*
X39803Y75883D01*
X39798Y75878D01*
Y75874D01*
X39777Y75839D01*
X39755Y75808D01*
X39737Y75791D01*
X39733Y75782D01*
X39711Y75760D01*
X39693Y75751D01*
X39684Y75747D01*
X39184D01*
X39171Y75751D01*
X39162Y75760D01*
X39153Y75773D01*
X39144Y75791D01*
X39131Y75839D01*
X39118Y75892D01*
X39109Y75940D01*
X39100Y75988D01*
Y76006D01*
X39096Y76019D01*
Y76028D01*
Y76032D01*
X39092Y76089D01*
X39087Y76155D01*
X39079Y76221D01*
X39074Y76295D01*
X39061Y76449D01*
X39048Y76598D01*
X39039Y76669D01*
X39035Y76734D01*
X39026Y76796D01*
X39021Y76849D01*
X39017Y76888D01*
Y76923D01*
X39013Y76941D01*
Y76950D01*
X38525Y76072D01*
X38508Y76045D01*
X38490Y76014D01*
X38477Y75993D01*
X38473Y75988D01*
Y75984D01*
X38451Y75944D01*
X38433Y75909D01*
X38416Y75883D01*
X38411Y75878D01*
Y75874D01*
X38389Y75839D01*
X38367Y75808D01*
X38350Y75791D01*
X38345Y75782D01*
X38319Y75760D01*
X38301Y75751D01*
X38288Y75747D01*
X37792D01*
X37783Y75751D01*
X37770Y75755D01*
X37757Y75773D01*
X37748Y75786D01*
X37744Y75795D01*
X37731Y75835D01*
X37722Y75874D01*
X37718Y75887D01*
Y75900D01*
X37713Y75909D01*
Y75914D01*
X37709Y75966D01*
X37704Y76019D01*
X37700Y76036D01*
Y76054D01*
Y76063D01*
Y76067D01*
Y76124D01*
Y76173D01*
Y76190D01*
Y76203D01*
Y76212D01*
Y76216D01*
Y78499D01*
X38385D01*
Y77138D01*
X39092Y78499D01*
X39733D01*
X39803Y77231D01*
X40444Y78499D01*
X41177D01*
X39917Y76072D01*
D02*
G37*
G36*
X57086Y75747D02*
X56292D01*
X56739Y77292D01*
X55611Y75747D01*
X55322D01*
X55093Y77292D01*
X54645Y75747D01*
X53846D01*
X54650Y78499D01*
X55655D01*
X55866Y77116D01*
X56884Y78499D01*
X57894D01*
X57086Y75747D01*
D02*
G37*
G36*
X70498D02*
X69488D01*
X69255Y77292D01*
X68808Y75747D01*
X68009D01*
X68812Y78499D01*
X69817D01*
X70054Y76950D01*
X70507Y78499D01*
X71297D01*
X70498Y75747D01*
D02*
G37*
G36*
X78698Y78495D02*
X78746Y78486D01*
X78786Y78473D01*
X78821Y78460D01*
X78852Y78447D01*
X78869Y78433D01*
X78883Y78425D01*
X78887Y78420D01*
X78918Y78389D01*
X78948Y78359D01*
X78970Y78324D01*
X78988Y78293D01*
X79005Y78267D01*
X79014Y78245D01*
X79023Y78227D01*
Y78223D01*
X79054Y78130D01*
X79063Y78087D01*
X79071Y78047D01*
X79080Y78016D01*
Y77986D01*
X79084Y77968D01*
Y77964D01*
X79093Y77863D01*
X79098Y77819D01*
X79102Y77784D01*
Y77749D01*
Y77727D01*
Y77709D01*
Y77705D01*
X79098Y77608D01*
X79084Y77525D01*
X79067Y77450D01*
X79049Y77384D01*
X79032Y77336D01*
X79014Y77296D01*
X79001Y77274D01*
X78997Y77266D01*
X78957Y77204D01*
X78913Y77152D01*
X78869Y77103D01*
X78825Y77064D01*
X78790Y77033D01*
X78760Y77011D01*
X78742Y76998D01*
X78733Y76993D01*
X78672Y76958D01*
X78615Y76928D01*
X78553Y76901D01*
X78501Y76884D01*
X78457Y76866D01*
X78417Y76857D01*
X78395Y76853D01*
X78391Y76849D01*
X78386D01*
X78321Y76835D01*
X78255Y76822D01*
X78193Y76809D01*
X78141Y76800D01*
X78097Y76796D01*
X78066Y76792D01*
X78044Y76787D01*
X78035D01*
X78852Y75747D01*
X77956D01*
X77105Y76730D01*
X77061Y76691D01*
X76784Y75747D01*
X75985D01*
X76789Y78499D01*
X78645D01*
X78698Y78495D01*
D02*
G37*
G36*
X76530Y78438D02*
X76499Y78376D01*
X76481Y78346D01*
X76473Y78328D01*
X76464Y78310D01*
X76459Y78306D01*
X76411Y78223D01*
X76385Y78183D01*
X76363Y78148D01*
X76345Y78122D01*
X76328Y78100D01*
X76319Y78082D01*
X76314Y78078D01*
X76262Y77999D01*
X76235Y77964D01*
X76214Y77937D01*
X76192Y77911D01*
X76178Y77893D01*
X76170Y77885D01*
X76165Y77880D01*
X76139Y77854D01*
X76117Y77832D01*
X76099Y77819D01*
X76086Y77806D01*
X76064Y77797D01*
X74778D01*
X74545Y76980D01*
X74940Y77459D01*
X75902D01*
X75300Y76756D01*
X74475D01*
X74383Y76445D01*
X75976D01*
X75972Y76436D01*
X75963Y76418D01*
X75959Y76405D01*
X75955Y76401D01*
X75946Y76379D01*
X75933Y76353D01*
X75928Y76339D01*
X75924Y76331D01*
X75911Y76304D01*
X75902Y76287D01*
X75893Y76269D01*
X75889Y76265D01*
X75880Y76247D01*
X75875Y76234D01*
X75871Y76230D01*
X75836Y76177D01*
X75805Y76129D01*
X75788Y76111D01*
X75779Y76094D01*
X75770Y76085D01*
X75766Y76080D01*
X75722Y76023D01*
X75678Y75971D01*
X75665Y75953D01*
X75652Y75935D01*
X75643Y75927D01*
X75638Y75922D01*
X75595Y75870D01*
X75559Y75830D01*
X75537Y75804D01*
X75533Y75799D01*
X75529Y75795D01*
X75516Y75777D01*
X75502Y75769D01*
X75489Y75751D01*
X75480Y75747D01*
X73386D01*
X74190Y78499D01*
X76560D01*
X76530Y78438D01*
D02*
G37*
G36*
X73935Y78490D02*
X73918Y78464D01*
X73896Y78429D01*
X73865Y78381D01*
X73830Y78324D01*
X73786Y78258D01*
X73698Y78126D01*
X73694Y78117D01*
X73676Y78095D01*
X73654Y78065D01*
X73619Y78021D01*
X73580Y77972D01*
X73531Y77915D01*
X73483Y77858D01*
X73426Y77797D01*
X72324D01*
X72306Y77792D01*
X72263Y77779D01*
X72219Y77753D01*
X72214D01*
X72210Y77744D01*
X72184Y77722D01*
X72144Y77683D01*
X72104Y77634D01*
Y77630D01*
X72096Y77621D01*
X72087Y77608D01*
X72074Y77586D01*
X72047Y77538D01*
X72012Y77472D01*
Y77468D01*
X72008Y77454D01*
X71999Y77437D01*
X71990Y77415D01*
X71968Y77358D01*
X71946Y77292D01*
Y77288D01*
X71942Y77283D01*
X71938Y77252D01*
X71929Y77217D01*
X71920Y77173D01*
Y77169D01*
Y77165D01*
X71916Y77143D01*
X71911Y77112D01*
Y77081D01*
Y77077D01*
Y77064D01*
X71916Y77042D01*
Y77015D01*
X71920Y76985D01*
X71929Y76950D01*
X71951Y76866D01*
Y76862D01*
X71960Y76849D01*
X71968Y76827D01*
X71977Y76800D01*
X72012Y76734D01*
X72052Y76664D01*
X72056Y76660D01*
X72065Y76651D01*
X72078Y76633D01*
X72096Y76612D01*
X72140Y76559D01*
X72192Y76506D01*
X72197Y76502D01*
X72205Y76497D01*
X72223Y76489D01*
X72241Y76475D01*
X72289Y76453D01*
X72320Y76449D01*
X72346Y76445D01*
X72596D01*
X72688Y76783D01*
X72223D01*
Y76787D01*
Y76792D01*
X72232Y76805D01*
X72236Y76818D01*
X72245Y76835D01*
X72258Y76862D01*
X72271Y76888D01*
X72276Y76892D01*
X72280Y76906D01*
X72289Y76923D01*
X72302Y76945D01*
X72320Y76976D01*
X72342Y77007D01*
X72385Y77081D01*
X72390Y77086D01*
X72399Y77099D01*
X72412Y77121D01*
X72429Y77152D01*
X72447Y77182D01*
X72473Y77217D01*
X72526Y77296D01*
X72530Y77301D01*
X72539Y77314D01*
X72552Y77331D01*
X72570Y77358D01*
X72614Y77411D01*
X72636Y77437D01*
X72658Y77459D01*
X73654D01*
X73136Y75747D01*
X72447D01*
X72421Y75751D01*
X72355Y75755D01*
X72276Y75760D01*
X72192Y75773D01*
X72100Y75786D01*
X72008Y75804D01*
X72004D01*
X71999Y75808D01*
X71986D01*
X71968Y75817D01*
X71920Y75830D01*
X71863Y75852D01*
X71793Y75878D01*
X71718Y75914D01*
X71644Y75953D01*
X71569Y76001D01*
X71560Y76010D01*
X71538Y76028D01*
X71503Y76058D01*
X71459Y76102D01*
X71411Y76159D01*
X71358Y76225D01*
X71305Y76300D01*
X71257Y76388D01*
Y76392D01*
X71253Y76401D01*
X71248Y76414D01*
X71240Y76432D01*
X71231Y76458D01*
X71218Y76484D01*
X71209Y76519D01*
X71200Y76559D01*
X71178Y76647D01*
X71156Y76752D01*
X71143Y76875D01*
X71139Y77007D01*
Y77011D01*
Y77020D01*
Y77033D01*
Y77051D01*
X71143Y77072D01*
Y77099D01*
X71147Y77165D01*
X71161Y77244D01*
X71174Y77327D01*
X71196Y77424D01*
X71222Y77520D01*
Y77525D01*
X71226Y77533D01*
X71231Y77547D01*
X71240Y77564D01*
X71248Y77591D01*
X71257Y77617D01*
X71284Y77683D01*
X71319Y77757D01*
X71358Y77836D01*
X71406Y77920D01*
X71459Y78003D01*
Y78008D01*
X71468Y78012D01*
X71485Y78038D01*
X71516Y78078D01*
X71560Y78130D01*
X71608Y78188D01*
X71670Y78245D01*
X71736Y78306D01*
X71806Y78359D01*
X71810D01*
X71815Y78363D01*
X71841Y78381D01*
X71881Y78403D01*
X71933Y78429D01*
X71995Y78455D01*
X72065Y78477D01*
X72144Y78495D01*
X72223Y78499D01*
X73939D01*
X73935Y78490D01*
D02*
G37*
G36*
X68553Y78438D02*
X68522Y78376D01*
X68505Y78346D01*
X68496Y78328D01*
X68487Y78310D01*
X68483Y78306D01*
X68434Y78223D01*
X68408Y78183D01*
X68386Y78148D01*
X68369Y78122D01*
X68351Y78100D01*
X68342Y78082D01*
X68338Y78078D01*
X68285Y77999D01*
X68259Y77964D01*
X68237Y77937D01*
X68215Y77911D01*
X68202Y77893D01*
X68193Y77885D01*
X68189Y77880D01*
X68162Y77854D01*
X68140Y77832D01*
X68123Y77819D01*
X68110Y77806D01*
X68088Y77797D01*
X66801D01*
X66569Y76980D01*
X66964Y77459D01*
X67925D01*
X67324Y76756D01*
X66498D01*
X66406Y76445D01*
X68000D01*
X67995Y76436D01*
X67987Y76418D01*
X67982Y76405D01*
X67978Y76401D01*
X67969Y76379D01*
X67956Y76353D01*
X67952Y76339D01*
X67947Y76331D01*
X67934Y76304D01*
X67925Y76287D01*
X67916Y76269D01*
X67912Y76265D01*
X67903Y76247D01*
X67899Y76234D01*
X67894Y76230D01*
X67859Y76177D01*
X67829Y76129D01*
X67811Y76111D01*
X67802Y76094D01*
X67793Y76085D01*
X67789Y76080D01*
X67745Y76023D01*
X67701Y75971D01*
X67688Y75953D01*
X67675Y75935D01*
X67666Y75927D01*
X67662Y75922D01*
X67618Y75870D01*
X67583Y75830D01*
X67561Y75804D01*
X67556Y75799D01*
X67552Y75795D01*
X67539Y75777D01*
X67526Y75769D01*
X67513Y75751D01*
X67504Y75747D01*
X65410D01*
X66213Y78499D01*
X68584D01*
X68553Y78438D01*
D02*
G37*
G36*
X65972Y78490D02*
X65958Y78469D01*
X65936Y78433D01*
X65910Y78389D01*
X65879Y78337D01*
X65840Y78275D01*
X65800Y78210D01*
X65756Y78144D01*
X65752Y78135D01*
X65734Y78113D01*
X65713Y78078D01*
X65677Y78034D01*
X65638Y77981D01*
X65590Y77920D01*
X65541Y77858D01*
X65484Y77792D01*
X64106D01*
X64088Y77784D01*
X64075Y77775D01*
X64058Y77757D01*
X64044Y77740D01*
X64031Y77713D01*
Y77709D01*
X64027Y77700D01*
X64022Y77687D01*
X64018Y77670D01*
X64005Y77630D01*
X64000Y77591D01*
Y77564D01*
Y77560D01*
X64005Y77551D01*
X64014Y77538D01*
X64018Y77533D01*
X64022Y77529D01*
X64040Y77511D01*
X64044Y77507D01*
X64053Y77498D01*
X64066Y77485D01*
X64088Y77472D01*
X64093Y77468D01*
X64106Y77463D01*
X64115Y77459D01*
X64123Y77454D01*
X64936D01*
X64962Y77450D01*
X64997Y77446D01*
X65032Y77432D01*
X65072Y77419D01*
X65111Y77397D01*
X65151Y77371D01*
X65155Y77367D01*
X65168Y77358D01*
X65186Y77340D01*
X65208Y77318D01*
X65230Y77288D01*
X65256Y77252D01*
X65282Y77213D01*
X65304Y77169D01*
X65309Y77165D01*
X65313Y77147D01*
X65326Y77125D01*
X65339Y77094D01*
X65353Y77055D01*
X65366Y77011D01*
X65392Y76910D01*
Y76906D01*
X65396Y76888D01*
X65401Y76857D01*
X65405Y76827D01*
X65410Y76787D01*
X65414Y76743D01*
X65418Y76651D01*
Y76616D01*
Y76612D01*
Y76594D01*
X65414Y76568D01*
Y76533D01*
X65405Y76489D01*
X65396Y76440D01*
X65388Y76388D01*
X65370Y76331D01*
Y76322D01*
X65361Y76304D01*
X65353Y76274D01*
X65335Y76238D01*
X65317Y76194D01*
X65295Y76146D01*
X65238Y76045D01*
X65234Y76041D01*
X65225Y76023D01*
X65208Y76001D01*
X65186Y75971D01*
X65155Y75935D01*
X65124Y75900D01*
X65050Y75830D01*
X65045Y75826D01*
X65032Y75817D01*
X65010Y75804D01*
X64984Y75791D01*
X64949Y75773D01*
X64914Y75760D01*
X64874Y75751D01*
X64830Y75747D01*
X62710D01*
Y75751D01*
X62714Y75755D01*
X62719Y75769D01*
X62727Y75786D01*
X62741Y75808D01*
X62758Y75835D01*
X62776Y75870D01*
X62798Y75909D01*
X62802Y75914D01*
X62811Y75931D01*
X62824Y75953D01*
X62841Y75979D01*
X62859Y76014D01*
X62881Y76054D01*
X62934Y76142D01*
X62938Y76146D01*
X62947Y76164D01*
X62960Y76186D01*
X62978Y76212D01*
X63021Y76278D01*
X63065Y76348D01*
X63070Y76353D01*
X63074Y76361D01*
X63096Y76396D01*
X63122Y76427D01*
X63131Y76436D01*
X63140Y76440D01*
X64567D01*
X64589Y76445D01*
X64615Y76458D01*
X64624Y76471D01*
X64628Y76484D01*
Y76489D01*
Y76493D01*
X64633Y76515D01*
X64637Y76546D01*
Y76585D01*
Y76616D01*
Y76651D01*
Y76660D01*
Y76677D01*
X64633Y76704D01*
X64628Y76734D01*
Y76743D01*
X64619Y76756D01*
X64606Y76770D01*
X64580Y76778D01*
X63728D01*
X63706Y76783D01*
X63676Y76787D01*
X63640Y76796D01*
X63601Y76809D01*
X63561Y76827D01*
X63522Y76853D01*
X63518Y76857D01*
X63504Y76866D01*
X63487Y76884D01*
X63465Y76906D01*
X63434Y76932D01*
X63408Y76967D01*
X63377Y77002D01*
X63351Y77046D01*
X63346Y77051D01*
X63338Y77068D01*
X63324Y77090D01*
X63311Y77125D01*
X63294Y77160D01*
X63276Y77204D01*
X63241Y77305D01*
Y77310D01*
X63237Y77331D01*
X63232Y77358D01*
X63223Y77393D01*
X63219Y77432D01*
X63210Y77481D01*
X63206Y77577D01*
Y77582D01*
Y77599D01*
X63210Y77626D01*
X63215Y77661D01*
X63219Y77705D01*
X63232Y77753D01*
X63245Y77806D01*
X63263Y77863D01*
X63267Y77871D01*
X63272Y77889D01*
X63285Y77920D01*
X63302Y77959D01*
X63324Y78003D01*
X63351Y78056D01*
X63412Y78161D01*
X63417Y78166D01*
X63430Y78188D01*
X63447Y78214D01*
X63474Y78245D01*
X63504Y78284D01*
X63539Y78324D01*
X63579Y78363D01*
X63619Y78403D01*
X63623Y78407D01*
X63640Y78416D01*
X63662Y78433D01*
X63693Y78451D01*
X63728Y78469D01*
X63768Y78486D01*
X63812Y78495D01*
X63856Y78499D01*
X65976D01*
X65972Y78490D01*
D02*
G37*
G36*
X63228D02*
X63215Y78469D01*
X63193Y78433D01*
X63166Y78389D01*
X63136Y78337D01*
X63096Y78275D01*
X63057Y78210D01*
X63013Y78144D01*
X63008Y78135D01*
X62991Y78113D01*
X62969Y78078D01*
X62934Y78034D01*
X62894Y77981D01*
X62846Y77920D01*
X62798Y77858D01*
X62741Y77792D01*
X61362D01*
X61344Y77784D01*
X61331Y77775D01*
X61314Y77757D01*
X61301Y77740D01*
X61287Y77713D01*
Y77709D01*
X61283Y77700D01*
X61279Y77687D01*
X61274Y77670D01*
X61261Y77630D01*
X61257Y77591D01*
Y77564D01*
Y77560D01*
X61261Y77551D01*
X61270Y77538D01*
X61274Y77533D01*
X61279Y77529D01*
X61296Y77511D01*
X61301Y77507D01*
X61309Y77498D01*
X61323Y77485D01*
X61344Y77472D01*
X61349Y77468D01*
X61362Y77463D01*
X61371Y77459D01*
X61380Y77454D01*
X62192D01*
X62218Y77450D01*
X62253Y77446D01*
X62288Y77432D01*
X62328Y77419D01*
X62367Y77397D01*
X62407Y77371D01*
X62411Y77367D01*
X62424Y77358D01*
X62442Y77340D01*
X62464Y77318D01*
X62486Y77288D01*
X62512Y77252D01*
X62539Y77213D01*
X62561Y77169D01*
X62565Y77165D01*
X62569Y77147D01*
X62582Y77125D01*
X62596Y77094D01*
X62609Y77055D01*
X62622Y77011D01*
X62648Y76910D01*
Y76906D01*
X62653Y76888D01*
X62657Y76857D01*
X62661Y76827D01*
X62666Y76787D01*
X62670Y76743D01*
X62675Y76651D01*
Y76616D01*
Y76612D01*
Y76594D01*
X62670Y76568D01*
Y76533D01*
X62661Y76489D01*
X62653Y76440D01*
X62644Y76388D01*
X62626Y76331D01*
Y76322D01*
X62618Y76304D01*
X62609Y76274D01*
X62591Y76238D01*
X62574Y76194D01*
X62552Y76146D01*
X62495Y76045D01*
X62490Y76041D01*
X62482Y76023D01*
X62464Y76001D01*
X62442Y75971D01*
X62411Y75935D01*
X62381Y75900D01*
X62306Y75830D01*
X62302Y75826D01*
X62288Y75817D01*
X62266Y75804D01*
X62240Y75791D01*
X62205Y75773D01*
X62170Y75760D01*
X62130Y75751D01*
X62086Y75747D01*
X59966D01*
Y75751D01*
X59970Y75755D01*
X59975Y75769D01*
X59984Y75786D01*
X59997Y75808D01*
X60014Y75835D01*
X60032Y75870D01*
X60054Y75909D01*
X60058Y75914D01*
X60067Y75931D01*
X60080Y75953D01*
X60098Y75979D01*
X60115Y76014D01*
X60137Y76054D01*
X60190Y76142D01*
X60194Y76146D01*
X60203Y76164D01*
X60216Y76186D01*
X60234Y76212D01*
X60278Y76278D01*
X60322Y76348D01*
X60326Y76353D01*
X60330Y76361D01*
X60352Y76396D01*
X60379Y76427D01*
X60387Y76436D01*
X60396Y76440D01*
X61823D01*
X61845Y76445D01*
X61871Y76458D01*
X61880Y76471D01*
X61884Y76484D01*
Y76489D01*
Y76493D01*
X61889Y76515D01*
X61893Y76546D01*
Y76585D01*
Y76616D01*
Y76651D01*
Y76660D01*
Y76677D01*
X61889Y76704D01*
X61884Y76734D01*
Y76743D01*
X61876Y76756D01*
X61863Y76770D01*
X61836Y76778D01*
X60985D01*
X60963Y76783D01*
X60932Y76787D01*
X60897Y76796D01*
X60857Y76809D01*
X60818Y76827D01*
X60778Y76853D01*
X60774Y76857D01*
X60761Y76866D01*
X60743Y76884D01*
X60721Y76906D01*
X60690Y76932D01*
X60664Y76967D01*
X60633Y77002D01*
X60607Y77046D01*
X60603Y77051D01*
X60594Y77068D01*
X60581Y77090D01*
X60567Y77125D01*
X60550Y77160D01*
X60532Y77204D01*
X60497Y77305D01*
Y77310D01*
X60493Y77331D01*
X60488Y77358D01*
X60480Y77393D01*
X60475Y77432D01*
X60466Y77481D01*
X60462Y77577D01*
Y77582D01*
Y77599D01*
X60466Y77626D01*
X60471Y77661D01*
X60475Y77705D01*
X60488Y77753D01*
X60502Y77806D01*
X60519Y77863D01*
X60524Y77871D01*
X60528Y77889D01*
X60541Y77920D01*
X60559Y77959D01*
X60581Y78003D01*
X60607Y78056D01*
X60668Y78161D01*
X60673Y78166D01*
X60686Y78188D01*
X60704Y78214D01*
X60730Y78245D01*
X60761Y78284D01*
X60796Y78324D01*
X60835Y78363D01*
X60875Y78403D01*
X60879Y78407D01*
X60897Y78416D01*
X60919Y78433D01*
X60949Y78451D01*
X60985Y78469D01*
X61024Y78486D01*
X61068Y78495D01*
X61112Y78499D01*
X63232D01*
X63228Y78490D01*
D02*
G37*
G36*
X60466Y78438D02*
X60436Y78376D01*
X60418Y78346D01*
X60409Y78328D01*
X60401Y78310D01*
X60396Y78306D01*
X60348Y78223D01*
X60322Y78183D01*
X60300Y78148D01*
X60282Y78122D01*
X60265Y78100D01*
X60256Y78082D01*
X60251Y78078D01*
X60199Y77999D01*
X60172Y77964D01*
X60150Y77937D01*
X60128Y77911D01*
X60115Y77893D01*
X60107Y77885D01*
X60102Y77880D01*
X60076Y77854D01*
X60054Y77832D01*
X60036Y77819D01*
X60023Y77806D01*
X60001Y77797D01*
X58715D01*
X58482Y76980D01*
X58877Y77459D01*
X59839D01*
X59237Y76756D01*
X58412D01*
X58320Y76445D01*
X59913D01*
X59909Y76436D01*
X59900Y76418D01*
X59896Y76405D01*
X59891Y76401D01*
X59883Y76379D01*
X59869Y76353D01*
X59865Y76339D01*
X59861Y76331D01*
X59848Y76304D01*
X59839Y76287D01*
X59830Y76269D01*
X59826Y76265D01*
X59817Y76247D01*
X59812Y76234D01*
X59808Y76230D01*
X59773Y76177D01*
X59742Y76129D01*
X59725Y76111D01*
X59716Y76094D01*
X59707Y76085D01*
X59703Y76080D01*
X59659Y76023D01*
X59615Y75971D01*
X59602Y75953D01*
X59588Y75935D01*
X59580Y75927D01*
X59575Y75922D01*
X59531Y75870D01*
X59496Y75830D01*
X59474Y75804D01*
X59470Y75799D01*
X59466Y75795D01*
X59452Y75777D01*
X59439Y75769D01*
X59426Y75751D01*
X59417Y75747D01*
X57323D01*
X58127Y78499D01*
X60497D01*
X60466Y78438D01*
D02*
G37*
G36*
X53122D02*
X53091Y78376D01*
X53074Y78346D01*
X53065Y78328D01*
X53056Y78310D01*
X53052Y78306D01*
X53004Y78223D01*
X52977Y78183D01*
X52955Y78148D01*
X52938Y78122D01*
X52920Y78100D01*
X52911Y78082D01*
X52907Y78078D01*
X52854Y77999D01*
X52828Y77964D01*
X52806Y77937D01*
X52784Y77911D01*
X52771Y77893D01*
X52762Y77885D01*
X52758Y77880D01*
X52731Y77854D01*
X52709Y77832D01*
X52692Y77819D01*
X52679Y77806D01*
X52657Y77797D01*
X51371D01*
X51138Y76980D01*
X51533Y77459D01*
X52494D01*
X51893Y76756D01*
X51068D01*
X50975Y76445D01*
X52569D01*
X52565Y76436D01*
X52556Y76418D01*
X52551Y76405D01*
X52547Y76401D01*
X52538Y76379D01*
X52525Y76353D01*
X52521Y76339D01*
X52516Y76331D01*
X52503Y76304D01*
X52494Y76287D01*
X52486Y76269D01*
X52481Y76265D01*
X52472Y76247D01*
X52468Y76234D01*
X52464Y76230D01*
X52428Y76177D01*
X52398Y76129D01*
X52380Y76111D01*
X52371Y76094D01*
X52363Y76085D01*
X52358Y76080D01*
X52314Y76023D01*
X52270Y75971D01*
X52257Y75953D01*
X52244Y75935D01*
X52235Y75927D01*
X52231Y75922D01*
X52187Y75870D01*
X52152Y75830D01*
X52130Y75804D01*
X52126Y75799D01*
X52121Y75795D01*
X52108Y75777D01*
X52095Y75769D01*
X52082Y75751D01*
X52073Y75747D01*
X49979D01*
X50782Y78499D01*
X53153D01*
X53122Y78438D01*
D02*
G37*
G36*
X49737Y75747D02*
X48938D01*
X49737Y78499D01*
X50541D01*
X49737Y75747D01*
D02*
G37*
G36*
X44698Y76445D02*
X46019D01*
X46015Y76436D01*
X46010Y76423D01*
X45997Y76410D01*
X45984Y76388D01*
X45966Y76357D01*
X45962Y76353D01*
X45958Y76339D01*
X45944Y76322D01*
X45931Y76300D01*
X45909Y76269D01*
X45887Y76234D01*
X45835Y76151D01*
X45830Y76146D01*
X45821Y76133D01*
X45804Y76107D01*
X45786Y76080D01*
X45760Y76045D01*
X45729Y76006D01*
X45668Y75918D01*
X45663Y75914D01*
X45655Y75900D01*
X45637Y75878D01*
X45620Y75852D01*
X45576Y75799D01*
X45549Y75769D01*
X45527Y75747D01*
X43701D01*
X44504Y78499D01*
X45299D01*
X44698Y76445D01*
D02*
G37*
G36*
X43038Y78495D02*
X43051Y78490D01*
X43078Y78473D01*
X43095Y78451D01*
X43100Y78447D01*
Y78442D01*
X43122Y78398D01*
X43144Y78350D01*
X43148Y78332D01*
X43152Y78315D01*
X43157Y78306D01*
Y78302D01*
X43174Y78240D01*
X43187Y78183D01*
X43192Y78161D01*
X43196Y78144D01*
X43201Y78130D01*
Y78126D01*
X43214Y78065D01*
X43227Y78016D01*
X43231Y77999D01*
Y77986D01*
X43236Y77977D01*
Y77972D01*
X43512Y75747D01*
X42770D01*
X42683Y76331D01*
X42678Y76317D01*
X42669Y76300D01*
X42647Y76260D01*
X42639Y76243D01*
X42630Y76225D01*
X42626Y76216D01*
X42621Y76212D01*
X42582Y76146D01*
X42547Y76085D01*
X42529Y76058D01*
X42520Y76041D01*
X42511Y76028D01*
X42507Y76023D01*
X42459Y75953D01*
X42437Y75922D01*
X42419Y75896D01*
X42402Y75874D01*
X42388Y75856D01*
X42384Y75848D01*
X42380Y75843D01*
X42358Y75817D01*
X42340Y75795D01*
X42323Y75777D01*
X42309Y75764D01*
X42292Y75751D01*
X42287Y75747D01*
X40527D01*
X40536Y75769D01*
X40540Y75777D01*
Y75782D01*
Y75795D01*
X42037Y78188D01*
X42046Y78214D01*
X42064Y78240D01*
X42077Y78262D01*
X42081Y78271D01*
X42112Y78310D01*
X42138Y78341D01*
X42156Y78363D01*
X42165Y78372D01*
X42195Y78407D01*
X42226Y78433D01*
X42244Y78451D01*
X42252Y78460D01*
X42283Y78482D01*
X42305Y78495D01*
X42323Y78499D01*
X43025D01*
X43038Y78495D01*
D02*
G37*
G36*
X31175Y78083D02*
X31278Y78068D01*
X31380Y78024D01*
X31512Y77980D01*
X31629Y77907D01*
X31746Y77819D01*
X31761Y77805D01*
X31790Y77775D01*
X31819Y77746D01*
X31849Y77702D01*
X31863Y77687D01*
X31878Y77658D01*
X31951Y77570D01*
X36138Y70309D01*
X36153Y70294D01*
X36168Y70250D01*
X36197Y70177D01*
X36226Y70075D01*
X36255Y69972D01*
X36270Y69840D01*
Y69694D01*
X36255Y69533D01*
Y69518D01*
X36241Y69489D01*
X36226Y69445D01*
X36211Y69387D01*
Y69372D01*
X36197Y69343D01*
X36182Y69299D01*
X36153Y69240D01*
X36138D01*
X36124Y69226D01*
X36094Y69182D01*
X36051Y69123D01*
X35992Y69035D01*
X35904Y68962D01*
X35802Y68874D01*
X35684Y68801D01*
X35538Y68742D01*
X35523D01*
X35480Y68728D01*
X35436Y68713D01*
X35348D01*
X35304Y68699D01*
X26769D01*
X26695Y68713D01*
X26593Y68728D01*
X26476Y68757D01*
X26344Y68816D01*
X26227Y68874D01*
X26095Y68977D01*
X26081Y68991D01*
X26066Y69021D01*
X25993Y69094D01*
X25978Y69108D01*
X25964Y69138D01*
X25905Y69226D01*
Y69240D01*
X25890Y69255D01*
X25876Y69299D01*
X25846Y69372D01*
X25817Y69460D01*
X25788Y69577D01*
X25759Y69694D01*
Y69840D01*
X25773Y69987D01*
Y70001D01*
X25788Y70045D01*
X25802Y70104D01*
X25817Y70133D01*
Y70148D01*
X25832Y70177D01*
X25861Y70221D01*
X25890Y70280D01*
Y70294D01*
X25905D01*
X30092Y77556D01*
Y77570D01*
X30107Y77585D01*
X30180Y77673D01*
X30268Y77790D01*
X30399Y77907D01*
X30429Y77922D01*
X30487Y77951D01*
X30502D01*
X30531Y77980D01*
X30575Y77995D01*
X30648Y78024D01*
X30824Y78068D01*
X31029Y78097D01*
X31102D01*
X31175Y78083D01*
D02*
G37*
G36*
X36138Y67191D02*
X35963D01*
X35260Y68245D01*
Y67191D01*
X35099D01*
Y68523D01*
X35275D01*
X35977Y67483D01*
Y68523D01*
X36138D01*
Y67191D01*
D02*
G37*
G36*
X31702D02*
X31527D01*
X30824Y68245D01*
Y67191D01*
X30663D01*
Y68523D01*
X30839D01*
X31541Y67483D01*
Y68523D01*
X31702D01*
Y67191D01*
D02*
G37*
G36*
X33342D02*
X33166D01*
Y68523D01*
X33342D01*
Y67191D01*
D02*
G37*
G36*
X32961Y68362D02*
X32522D01*
Y67191D01*
X32332D01*
Y68362D01*
X31893D01*
Y68523D01*
X32961D01*
Y68362D01*
D02*
G37*
G36*
X30385D02*
X29594D01*
Y67952D01*
X30341D01*
Y67805D01*
X29594D01*
Y67352D01*
X30414D01*
Y67191D01*
X29419D01*
Y68523D01*
X30385D01*
Y68362D01*
D02*
G37*
G36*
X29243D02*
X28804D01*
Y67191D01*
X28628D01*
Y68362D01*
X28189D01*
Y68523D01*
X29243D01*
Y68362D01*
D02*
G37*
G36*
X28101D02*
X27662D01*
Y67191D01*
X27486D01*
Y68362D01*
X27047D01*
Y68523D01*
X28101D01*
Y68362D01*
D02*
G37*
G36*
X27149Y67191D02*
X26944D01*
X26783Y67601D01*
X26227D01*
X26081Y67191D01*
X25905D01*
X26417Y68523D01*
X26608D01*
X27149Y67191D01*
D02*
G37*
G36*
X34352Y68537D02*
X34455Y68523D01*
X34572Y68464D01*
X34601Y68450D01*
X34660Y68406D01*
X34733Y68318D01*
X34791Y68215D01*
X34806Y68186D01*
X34835Y68113D01*
X34850Y67996D01*
X34865Y67849D01*
Y67835D01*
Y67820D01*
X34850Y67732D01*
X34835Y67615D01*
X34791Y67498D01*
X34777Y67469D01*
X34733Y67410D01*
X34660Y67322D01*
X34557Y67249D01*
X34528Y67234D01*
X34469Y67220D01*
X34367Y67191D01*
X34235Y67176D01*
X34206D01*
X34118Y67191D01*
X34016Y67220D01*
X33898Y67264D01*
X33869Y67278D01*
X33811Y67322D01*
X33737Y67410D01*
X33679Y67513D01*
X33664Y67542D01*
X33635Y67615D01*
X33606Y67718D01*
X33591Y67849D01*
Y67864D01*
Y67908D01*
X33606Y67967D01*
X33620Y68040D01*
X33679Y68201D01*
X33723Y68289D01*
X33781Y68362D01*
X33796Y68376D01*
X33811Y68391D01*
X33854Y68420D01*
X33898Y68464D01*
X34045Y68523D01*
X34133Y68537D01*
X34235Y68552D01*
X34264D01*
X34352Y68537D01*
D02*
G37*
G36*
X34674Y66971D02*
X34718Y66942D01*
X34733Y66927D01*
X34762Y66898D01*
X34791Y66854D01*
X34821Y66795D01*
X34733Y66781D01*
Y66795D01*
X34718Y66825D01*
X34689Y66854D01*
X34660Y66883D01*
X34630Y66898D01*
X34557Y66912D01*
X34513D01*
X34425Y66883D01*
X34411D01*
X34396Y66854D01*
X34367Y66825D01*
X34352Y66781D01*
Y66766D01*
X34338Y66737D01*
X34323Y66649D01*
Y66634D01*
Y66605D01*
X34352Y66502D01*
Y66488D01*
X34367Y66473D01*
X34425Y66415D01*
X34469D01*
X34543Y66400D01*
X34587D01*
X34674Y66429D01*
X34689D01*
X34704Y66459D01*
X34718Y66488D01*
X34733Y66546D01*
X34821Y66532D01*
Y66517D01*
X34806Y66473D01*
X34777Y66415D01*
X34733Y66385D01*
X34718Y66371D01*
X34689Y66356D01*
X34630Y66341D01*
X34557Y66327D01*
X34499D01*
X34440Y66341D01*
X34381Y66371D01*
X34367D01*
X34338Y66400D01*
X34308Y66429D01*
X34279Y66473D01*
Y66488D01*
X34264Y66532D01*
X34250Y66590D01*
X34235Y66649D01*
Y66663D01*
Y66707D01*
X34250Y66766D01*
X34279Y66839D01*
Y66854D01*
X34308Y66883D01*
X34338Y66927D01*
X34396Y66956D01*
X34411D01*
X34440Y66971D01*
X34499Y66986D01*
X34616D01*
X34674Y66971D01*
D02*
G37*
G36*
X32127D02*
X32142D01*
X32156Y66956D01*
X32215Y66898D01*
X32229Y66869D01*
X32244Y66795D01*
X32171Y66781D01*
Y66795D01*
X32156Y66825D01*
X32142Y66854D01*
X32112Y66883D01*
X32083Y66898D01*
X32054Y66912D01*
X31951D01*
X31922Y66898D01*
X31893Y66883D01*
X31878Y66869D01*
X31863Y66839D01*
X31849Y66810D01*
Y66795D01*
X31878Y66751D01*
X31907Y66737D01*
X31951Y66722D01*
X32010Y66707D01*
X32024D01*
X32068Y66693D01*
X32112Y66678D01*
X32156Y66663D01*
X32171D01*
X32186Y66649D01*
X32244Y66590D01*
X32259Y66576D01*
X32273Y66502D01*
Y66473D01*
X32244Y66400D01*
X32215Y66385D01*
X32156Y66356D01*
X32142D01*
X32112Y66341D01*
X32024Y66327D01*
X31981D01*
X31878Y66356D01*
X31863D01*
X31849Y66371D01*
X31776Y66415D01*
Y66429D01*
X31761Y66444D01*
X31746Y66532D01*
X31819D01*
Y66502D01*
X31849Y66459D01*
X31863Y66444D01*
X31893Y66429D01*
X31922Y66400D01*
X32112D01*
X32127Y66415D01*
X32171Y66444D01*
X32186Y66459D01*
Y66488D01*
Y66502D01*
Y66517D01*
X32171Y66546D01*
X32156Y66561D01*
X32112Y66590D01*
X32083D01*
X32054Y66605D01*
X31995Y66620D01*
X31981D01*
X31937Y66634D01*
X31893Y66649D01*
X31863Y66663D01*
X31849D01*
X31834Y66678D01*
X31805Y66707D01*
X31790Y66722D01*
Y66737D01*
X31776Y66751D01*
X31761Y66810D01*
Y66825D01*
Y66839D01*
X31790Y66898D01*
Y66912D01*
X31819Y66927D01*
X31878Y66971D01*
X31893D01*
X31922Y66986D01*
X32039D01*
X32127Y66971D01*
D02*
G37*
G36*
X29536D02*
X29594Y66942D01*
X29609Y66927D01*
X29638Y66898D01*
X29667Y66854D01*
X29682Y66795D01*
X29609Y66781D01*
Y66795D01*
X29594Y66825D01*
X29565Y66854D01*
X29536Y66883D01*
X29506Y66898D01*
X29433Y66912D01*
X29389D01*
X29345Y66898D01*
X29301Y66883D01*
X29287D01*
X29272Y66854D01*
X29243Y66825D01*
X29228Y66781D01*
Y66766D01*
X29214Y66737D01*
X29199Y66649D01*
Y66634D01*
Y66605D01*
X29228Y66502D01*
Y66488D01*
X29243Y66473D01*
X29301Y66415D01*
X29345D01*
X29419Y66400D01*
X29463D01*
X29506Y66415D01*
X29536Y66429D01*
X29550D01*
X29565Y66459D01*
X29594Y66488D01*
X29609Y66546D01*
X29697Y66532D01*
Y66517D01*
X29682Y66473D01*
X29653Y66415D01*
X29609Y66385D01*
X29594Y66371D01*
X29550Y66356D01*
X29492Y66341D01*
X29433Y66327D01*
X29360D01*
X29301Y66341D01*
X29243Y66371D01*
X29228D01*
X29214Y66400D01*
X29170Y66429D01*
X29140Y66473D01*
Y66488D01*
X29126Y66532D01*
X29111Y66649D01*
Y66663D01*
Y66707D01*
X29126Y66766D01*
X29155Y66839D01*
Y66854D01*
X29184Y66883D01*
X29214Y66927D01*
X29272Y66956D01*
X29287D01*
X29316Y66971D01*
X29360Y66986D01*
X29492D01*
X29536Y66971D01*
D02*
G37*
G36*
X34103Y66327D02*
X34016D01*
Y66986D01*
X34103D01*
Y66327D01*
D02*
G37*
G36*
X33913Y66898D02*
X33693D01*
Y66327D01*
X33606D01*
Y66898D01*
X33386D01*
Y66986D01*
X33913D01*
Y66898D01*
D02*
G37*
G36*
X33445Y66327D02*
X33342D01*
X33254Y66517D01*
X32976D01*
X32903Y66327D01*
X32815D01*
X33064Y66986D01*
X33166D01*
X33445Y66327D01*
D02*
G37*
G36*
X32859Y66898D02*
X32639D01*
Y66327D01*
X32552D01*
Y66898D01*
X32332D01*
Y66986D01*
X32859D01*
Y66898D01*
D02*
G37*
G36*
X31453Y66971D02*
X31512Y66942D01*
X31527D01*
X31541Y66912D01*
X31585Y66883D01*
X31615Y66825D01*
X31629Y66810D01*
X31644Y66781D01*
X31659Y66722D01*
Y66649D01*
Y66634D01*
Y66590D01*
X31644Y66532D01*
X31615Y66473D01*
X31600Y66459D01*
X31585Y66429D01*
X31497Y66356D01*
X31483D01*
X31453Y66341D01*
X31395Y66327D01*
X31278D01*
X31219Y66341D01*
X31175Y66371D01*
X31161D01*
X31131Y66400D01*
X31087Y66429D01*
X31058Y66473D01*
Y66488D01*
X31044Y66517D01*
X31029Y66576D01*
Y66634D01*
Y66649D01*
Y66663D01*
X31044Y66737D01*
X31058Y66825D01*
X31102Y66898D01*
X31117Y66912D01*
X31175Y66942D01*
X31249Y66971D01*
X31336Y66986D01*
X31395D01*
X31453Y66971D01*
D02*
G37*
G36*
X30809D02*
X30824D01*
X30839Y66956D01*
X30883Y66898D01*
X30897Y66869D01*
X30912Y66795D01*
Y66781D01*
Y66751D01*
X30897Y66722D01*
X30868Y66678D01*
X30853D01*
X30839Y66649D01*
X30795Y66634D01*
X30722Y66620D01*
X30736Y66605D01*
X30780Y66590D01*
X30795Y66561D01*
X30853Y66502D01*
X30970Y66327D01*
X30853D01*
X30765Y66459D01*
Y66473D01*
X30736Y66502D01*
X30722Y66532D01*
X30707Y66546D01*
Y66561D01*
X30692Y66576D01*
X30678Y66590D01*
X30663D01*
X30648Y66605D01*
X30473D01*
Y66327D01*
X30385D01*
Y66986D01*
X30722D01*
X30809Y66971D01*
D02*
G37*
G36*
X30282Y66898D02*
X30063D01*
Y66327D01*
X29975D01*
Y66898D01*
X29755D01*
Y66986D01*
X30282D01*
Y66898D01*
D02*
G37*
G36*
X28994D02*
X28613D01*
Y66693D01*
X28979D01*
Y66620D01*
X28613D01*
Y66400D01*
X29023D01*
Y66327D01*
X28526D01*
Y66986D01*
X28994D01*
Y66898D01*
D02*
G37*
G36*
X28086Y66400D02*
X28408D01*
Y66327D01*
X27999D01*
Y66986D01*
X28086D01*
Y66400D01*
D02*
G37*
G36*
X27867Y66898D02*
X27471D01*
Y66693D01*
X27837D01*
Y66620D01*
X27471D01*
Y66400D01*
X27881D01*
Y66327D01*
X27384D01*
Y66986D01*
X27867D01*
Y66898D01*
D02*
G37*
G36*
X29140Y66078D02*
X29155D01*
X29170Y66063D01*
X29228Y66019D01*
Y66005D01*
X29243Y65990D01*
X29258Y65902D01*
X29184D01*
Y65917D01*
X29170Y65946D01*
X29155Y65975D01*
X29140Y65990D01*
X29126Y66005D01*
X29111Y66019D01*
X29067Y66034D01*
X28979D01*
X28935Y66019D01*
X28906Y66005D01*
X28892Y65990D01*
X28877Y65961D01*
X28862Y65931D01*
Y65902D01*
X28892Y65873D01*
X28921Y65858D01*
X28965Y65844D01*
X29023Y65829D01*
X29038D01*
X29067Y65814D01*
X29170Y65785D01*
X29184D01*
X29199Y65771D01*
X29258Y65712D01*
X29272Y65683D01*
X29287Y65624D01*
Y65609D01*
Y65595D01*
X29258Y65522D01*
Y65507D01*
X29228Y65492D01*
X29199Y65463D01*
X29170Y65448D01*
X29155D01*
X29126Y65434D01*
X29038Y65419D01*
X28994D01*
X28892Y65448D01*
X28877D01*
X28848Y65463D01*
X28818Y65492D01*
X28789Y65522D01*
Y65536D01*
X28774Y65566D01*
X28760Y65639D01*
X28833Y65653D01*
X28848Y65624D01*
X28862Y65566D01*
X28877Y65551D01*
X28906Y65536D01*
X28935Y65522D01*
X28950D01*
X28965Y65507D01*
X29038Y65492D01*
X29067D01*
X29126Y65507D01*
X29140Y65522D01*
X29184Y65551D01*
X29199Y65566D01*
Y65609D01*
Y65624D01*
X29184Y65668D01*
X29170Y65683D01*
X29126Y65697D01*
X29111D01*
X29082Y65712D01*
X28994Y65741D01*
X28979D01*
X28950Y65756D01*
X28906D01*
X28877Y65771D01*
X28862D01*
X28848Y65785D01*
X28818Y65814D01*
X28804Y65844D01*
X28789Y65858D01*
X28774Y65917D01*
Y65931D01*
Y65946D01*
X28804Y66019D01*
Y66034D01*
X28833Y66049D01*
X28892Y66078D01*
X28906D01*
X28935Y66093D01*
X29009Y66107D01*
X29053D01*
X29140Y66078D01*
D02*
G37*
G36*
X27237D02*
X27252D01*
X27266Y66063D01*
X27325Y66019D01*
Y66005D01*
X27340Y65990D01*
X27354Y65902D01*
X27266D01*
Y65917D01*
Y65931D01*
X27252Y65961D01*
X27223Y65990D01*
X27208Y66005D01*
X27193Y66019D01*
X27149Y66034D01*
X27062D01*
X27018Y66019D01*
X26988Y66005D01*
X26974Y65990D01*
X26959Y65931D01*
Y65917D01*
X26974Y65873D01*
X27003Y65858D01*
X27047Y65844D01*
X27105Y65829D01*
X27120D01*
X27164Y65814D01*
X27208Y65800D01*
X27252Y65785D01*
X27266D01*
X27281Y65771D01*
X27340Y65712D01*
X27354Y65683D01*
X27369Y65624D01*
Y65609D01*
Y65595D01*
X27340Y65522D01*
X27325Y65492D01*
X27252Y65448D01*
X27237D01*
X27223Y65434D01*
X27135Y65419D01*
X27076D01*
X26974Y65448D01*
X26959D01*
X26944Y65463D01*
X26915Y65492D01*
X26886Y65522D01*
Y65536D01*
X26871Y65566D01*
X26857Y65595D01*
X26842Y65639D01*
X26930Y65653D01*
Y65639D01*
Y65624D01*
X26959Y65566D01*
X26974Y65551D01*
X27018Y65522D01*
X27032D01*
X27047Y65507D01*
X27120Y65492D01*
X27149D01*
X27208Y65507D01*
X27223D01*
X27237Y65522D01*
X27266Y65551D01*
X27281Y65566D01*
X27296Y65609D01*
Y65624D01*
X27266Y65668D01*
X27252Y65683D01*
X27208Y65697D01*
X27193D01*
X27179Y65712D01*
X27091Y65741D01*
X27076D01*
X27047Y65756D01*
X27003D01*
X26959Y65771D01*
X26930Y65785D01*
X26886Y65844D01*
Y65858D01*
X26871Y65917D01*
Y65931D01*
Y65946D01*
X26901Y66019D01*
Y66034D01*
X26930Y66049D01*
X26988Y66078D01*
X27003D01*
X27032Y66093D01*
X27105Y66107D01*
X27149D01*
X27237Y66078D01*
D02*
G37*
G36*
X34557Y66093D02*
X34601Y66063D01*
X34616Y66049D01*
X34645Y66019D01*
X34674Y65975D01*
X34704Y65917D01*
X34616Y65888D01*
Y65902D01*
X34601Y65931D01*
X34587Y65975D01*
X34557Y66005D01*
X34543D01*
X34528Y66019D01*
X34440Y66034D01*
X34396D01*
X34352Y66019D01*
X34308Y65990D01*
X34294D01*
X34279Y65975D01*
X34250Y65946D01*
X34235Y65902D01*
Y65888D01*
Y65858D01*
X34220Y65771D01*
Y65756D01*
Y65727D01*
X34250Y65624D01*
Y65609D01*
X34264Y65580D01*
X34294Y65551D01*
X34323Y65522D01*
X34338D01*
X34352Y65507D01*
X34425Y65492D01*
X34469D01*
X34513Y65507D01*
X34557Y65536D01*
X34572Y65551D01*
X34587Y65566D01*
X34601Y65609D01*
X34630Y65668D01*
X34718Y65639D01*
Y65624D01*
X34689Y65580D01*
X34660Y65522D01*
X34616Y65478D01*
X34601Y65463D01*
X34572Y65448D01*
X34513Y65434D01*
X34440Y65419D01*
X34381D01*
X34323Y65434D01*
X34264Y65463D01*
X34250Y65478D01*
X34220Y65492D01*
X34191Y65536D01*
X34162Y65595D01*
Y65609D01*
X34147Y65639D01*
X34133Y65697D01*
Y65771D01*
Y65785D01*
Y65829D01*
X34162Y65946D01*
X34177Y65961D01*
X34191Y65990D01*
X34279Y66063D01*
X34294Y66078D01*
X34323Y66093D01*
X34381Y66107D01*
X34499D01*
X34557Y66093D01*
D02*
G37*
G36*
X28643Y65434D02*
X28555D01*
X28203Y65946D01*
Y65434D01*
X28116D01*
Y66093D01*
X28203D01*
X28555Y65580D01*
Y66093D01*
X28643D01*
Y65434D01*
D02*
G37*
G36*
X33562D02*
X33459D01*
X33210Y66093D01*
X33298D01*
X33474Y65609D01*
Y65595D01*
X33489Y65566D01*
X33503Y65536D01*
Y65522D01*
X33518Y65536D01*
X33547Y65609D01*
X33723Y66093D01*
X33811D01*
X33562Y65434D01*
D02*
G37*
G36*
X30765D02*
X30678D01*
X30414Y66093D01*
X30517D01*
X30692Y65609D01*
Y65595D01*
X30707Y65566D01*
X30722Y65507D01*
Y65522D01*
X30736Y65536D01*
X30765Y65609D01*
X30941Y66093D01*
X31029D01*
X30765Y65434D01*
D02*
G37*
G36*
X35304Y66019D02*
X34909D01*
Y65814D01*
X35289D01*
Y65727D01*
X34909D01*
Y65507D01*
X35318D01*
Y65434D01*
X34821D01*
Y66093D01*
X35304D01*
Y66019D01*
D02*
G37*
G36*
X34001Y65434D02*
X33913D01*
Y66093D01*
X34001D01*
Y65434D01*
D02*
G37*
G36*
X33137Y66019D02*
X32742D01*
Y65814D01*
X33108D01*
Y65727D01*
X32742D01*
Y65507D01*
X33152D01*
Y65434D01*
X32654D01*
Y66093D01*
X33137D01*
Y66019D01*
D02*
G37*
G36*
X32361Y66078D02*
X32434Y66034D01*
X32449Y66019D01*
X32464Y66005D01*
X32508Y65917D01*
Y65902D01*
X32522Y65873D01*
X32537Y65829D01*
Y65771D01*
Y65756D01*
Y65727D01*
Y65683D01*
X32522Y65639D01*
Y65624D01*
X32508Y65609D01*
X32478Y65536D01*
X32449Y65507D01*
X32405Y65478D01*
X32390Y65463D01*
X32332Y65434D01*
X31981D01*
Y66093D01*
X32347D01*
X32361Y66078D01*
D02*
G37*
G36*
X31585Y66019D02*
X31190D01*
Y65814D01*
X31556D01*
Y65727D01*
X31190D01*
Y65507D01*
X31600D01*
Y65434D01*
X31102D01*
Y66093D01*
X31585D01*
Y66019D01*
D02*
G37*
G36*
X30341Y65434D02*
X30238D01*
Y66093D01*
X30341D01*
Y65434D01*
D02*
G37*
G36*
X30136Y66019D02*
X29916D01*
Y65434D01*
X29829D01*
Y66019D01*
X29609D01*
Y66093D01*
X30136D01*
Y66019D01*
D02*
G37*
G36*
X29506Y65434D02*
X29419D01*
Y66093D01*
X29506D01*
Y65434D01*
D02*
G37*
G36*
X27969Y66019D02*
X27589D01*
Y65814D01*
X27955D01*
Y65727D01*
X27589D01*
Y65507D01*
X27999D01*
Y65434D01*
X27501D01*
Y66093D01*
X27969D01*
Y66019D01*
D02*
G37*
%LPC*%
G36*
X78228Y77801D02*
X77381D01*
X77148Y76993D01*
X77513Y77454D01*
X78176D01*
X78198Y77459D01*
X78215Y77468D01*
X78242Y77490D01*
X78259Y77516D01*
X78264Y77520D01*
Y77525D01*
X78281Y77573D01*
X78286Y77612D01*
X78290Y77639D01*
Y77643D01*
Y77648D01*
Y77705D01*
Y77731D01*
X78286Y77753D01*
X78281Y77766D01*
Y77771D01*
X78268Y77788D01*
X78246Y77797D01*
X78228Y77801D01*
D02*
G37*
G36*
X42533Y77661D02*
X41840Y76493D01*
Y76440D01*
X42683D01*
X42533Y77661D01*
D02*
G37*
G36*
X31029Y77395D02*
X31000D01*
X30926Y77380D01*
X30839Y77365D01*
X30736Y77307D01*
X30722Y77292D01*
X30707D01*
X30692Y77277D01*
X30678Y77263D01*
X30634Y77234D01*
X30575Y77160D01*
X30517Y77087D01*
X28643Y73837D01*
X29258Y73486D01*
X29272Y73500D01*
X29301Y73530D01*
X29360Y73588D01*
X29448Y73661D01*
X29463Y73676D01*
X29506Y73705D01*
X29580Y73764D01*
X29682Y73837D01*
X29697Y73852D01*
X29726Y73866D01*
X29741D01*
X29755Y73881D01*
X29814Y73910D01*
X29843Y73925D01*
X29887Y73954D01*
X29960Y73998D01*
X30004Y74027D01*
X30019Y74042D01*
X30063Y74071D01*
X30136Y74115D01*
X30224Y74174D01*
X30429Y74306D01*
X30546Y74349D01*
X30648Y74393D01*
X30663D01*
X30707Y74408D01*
X30765Y74423D01*
X30853Y74437D01*
X30970Y74467D01*
X31087Y74481D01*
X31702D01*
X31849Y74467D01*
X32083D01*
X32142Y74481D01*
X32273Y74496D01*
X32420Y74540D01*
X32888Y74730D01*
X31527Y77102D01*
X31512D01*
X31497Y77117D01*
X31468Y77175D01*
Y77190D01*
X31453Y77204D01*
X31410Y77234D01*
X31380Y77263D01*
X31307Y77307D01*
X31175Y77351D01*
X31029Y77380D01*
Y77395D01*
D02*
G37*
G36*
X32961Y74598D02*
X32478Y74408D01*
X32464D01*
X32434Y74393D01*
X32390Y74379D01*
X32347Y74364D01*
X32200Y74320D01*
X32024Y74306D01*
X31732D01*
X31556Y74320D01*
X31527D01*
X31453Y74335D01*
X31131D01*
X30926Y74306D01*
X30707Y74247D01*
X30692D01*
X30663Y74232D01*
X30604Y74203D01*
X30531Y74174D01*
X30443Y74130D01*
X30341Y74071D01*
X30224Y73998D01*
X30092Y73910D01*
X30077Y73896D01*
X30048Y73881D01*
X29975Y73837D01*
X29887Y73779D01*
X29858Y73764D01*
X29829Y73749D01*
X29770Y73705D01*
X29755Y73691D01*
X29697Y73661D01*
X29623Y73603D01*
X29536Y73544D01*
X29521Y73530D01*
X29492Y73500D01*
X29389Y73413D01*
X32390Y71670D01*
X32405D01*
X32434Y71685D01*
X32493Y71714D01*
X32581Y71758D01*
X32669Y71817D01*
X32786Y71905D01*
X32917Y72007D01*
X33049Y72139D01*
X33064Y72154D01*
X33079Y72168D01*
X33152Y72241D01*
X33166Y72256D01*
X33181Y72271D01*
X33240Y72344D01*
X33254Y72359D01*
X33269Y72402D01*
X33313Y72476D01*
X33357Y72607D01*
Y72622D01*
X33371Y72637D01*
X33401Y72710D01*
X33430Y72812D01*
X33474Y72900D01*
X33489Y72929D01*
X33532Y72973D01*
X33591Y73061D01*
X33650Y73134D01*
X33664Y73149D01*
X33693Y73164D01*
X33767Y73222D01*
X32961Y74598D01*
D02*
G37*
G36*
X30809Y72051D02*
Y72036D01*
X30795Y72022D01*
Y71978D01*
Y71949D01*
Y71934D01*
Y71905D01*
X30824Y71817D01*
X30839Y71788D01*
X30853Y71773D01*
X30868Y71729D01*
X30897Y71685D01*
X30926Y71641D01*
X30956Y71656D01*
X31014Y71714D01*
X31087Y71773D01*
X31175Y71831D01*
X30809Y72051D01*
D02*
G37*
G36*
X30399Y72285D02*
Y72271D01*
X30370Y72256D01*
X30341Y72168D01*
Y72154D01*
Y72124D01*
X30326Y72022D01*
Y72007D01*
Y71978D01*
Y71905D01*
Y71817D01*
Y71788D01*
Y71773D01*
Y71744D01*
Y71685D01*
Y71612D01*
X30341Y71553D01*
Y71539D01*
X30356Y71495D01*
X30370Y71465D01*
X30385Y71436D01*
X30399Y71421D01*
X30414Y71378D01*
X30443Y71319D01*
X30487Y71231D01*
X30502Y71246D01*
X30517Y71260D01*
X30531Y71275D01*
X30546Y71290D01*
X30560Y71319D01*
X30619Y71378D01*
X30707Y71451D01*
X30795Y71539D01*
Y71553D01*
X30765Y71583D01*
X30736Y71641D01*
X30692Y71729D01*
X30678Y71758D01*
Y71773D01*
X30663Y71817D01*
X30648Y71875D01*
X30634Y71949D01*
Y71963D01*
Y72007D01*
X30648Y72066D01*
X30663Y72139D01*
X30399Y72285D01*
D02*
G37*
G36*
X30033Y72505D02*
Y72490D01*
X30004Y72432D01*
X29960Y72344D01*
X29902Y72227D01*
X29887Y72212D01*
X29858Y72154D01*
X29829Y72095D01*
X29799Y72036D01*
Y72022D01*
Y71978D01*
X29814Y71875D01*
X29829Y71817D01*
X29858Y71729D01*
Y71714D01*
X29872Y71685D01*
X29902Y71597D01*
X29931Y71480D01*
Y71378D01*
Y71348D01*
X29916Y71290D01*
X29902Y71202D01*
Y71099D01*
Y71070D01*
X29916Y71056D01*
Y71041D01*
X29931D01*
X29946Y71026D01*
X29960D01*
Y71012D01*
X30004Y70997D01*
X30019D01*
X30033Y70982D01*
X30048Y70968D01*
Y70953D01*
X30077Y70938D01*
X30107Y70909D01*
X30151Y70880D01*
X30165D01*
X30180Y70865D01*
X30238Y70821D01*
X30253Y70851D01*
X30282Y70909D01*
X30326Y70997D01*
X30399Y71099D01*
X30385Y71129D01*
X30356Y71187D01*
X30297Y71275D01*
X30253Y71378D01*
Y71392D01*
X30238Y71407D01*
X30224Y71436D01*
X30209D01*
Y71451D01*
Y71465D01*
X30195Y71509D01*
Y71524D01*
Y71539D01*
X30180Y71583D01*
X30165Y71656D01*
Y71773D01*
Y71788D01*
Y71817D01*
Y71890D01*
Y71905D01*
Y71934D01*
Y72022D01*
Y72036D01*
Y72080D01*
X30180Y72139D01*
X30195Y72212D01*
Y72227D01*
X30209Y72271D01*
X30238Y72315D01*
X30268Y72373D01*
X30033Y72505D01*
D02*
G37*
G36*
X31761Y71114D02*
X31746D01*
X31732Y71099D01*
X31688Y71070D01*
X31629Y71041D01*
X31585Y70997D01*
X31571Y70982D01*
X31527Y70953D01*
X31483Y70880D01*
X31424Y70792D01*
X31410Y70777D01*
Y70763D01*
X31395Y70748D01*
X31410D01*
X31424Y70733D01*
X31497Y70704D01*
X31527D01*
X31585Y70689D01*
X31673Y70675D01*
X31790Y70660D01*
X31849D01*
X31907Y70675D01*
X31937Y70704D01*
X31951D01*
Y70719D01*
X31966Y70763D01*
X31981Y70807D01*
Y70851D01*
Y70865D01*
Y70880D01*
X31951Y70924D01*
Y70938D01*
X31937D01*
Y70953D01*
Y70968D01*
X31907Y70982D01*
X31863Y71041D01*
X31790Y71085D01*
X31761Y71114D01*
D02*
G37*
G36*
X31322Y71758D02*
X31293Y71744D01*
X31234Y71685D01*
X31131Y71612D01*
X31000Y71509D01*
X30985D01*
X30970Y71480D01*
X30897Y71421D01*
X30780Y71319D01*
X30663Y71187D01*
X30648Y71173D01*
X30604Y71129D01*
X30546Y71056D01*
X30487Y70953D01*
X30429Y70836D01*
X30370Y70719D01*
X30326Y70587D01*
X30313Y70472D01*
X30312Y70470D01*
Y70455D01*
X30313Y70472D01*
X30326Y70485D01*
X30356Y70543D01*
X30370Y70558D01*
X30414Y70587D01*
X30473Y70631D01*
X30560Y70660D01*
X30575D01*
X30590Y70675D01*
X30634D01*
X30648Y70689D01*
X30663D01*
X30692Y70704D01*
X30722D01*
X30809Y70719D01*
X31000D01*
X31014Y70704D01*
X31073Y70689D01*
X31117D01*
X31205Y70660D01*
Y70675D01*
X31219Y70689D01*
Y70719D01*
Y70733D01*
X31234Y70763D01*
X31249Y70807D01*
X31278Y70865D01*
Y70880D01*
X31293Y70894D01*
X31336Y70953D01*
X31410Y71041D01*
X31497Y71129D01*
X31512D01*
X31527Y71158D01*
X31585Y71187D01*
X31673Y71246D01*
X31688D01*
X31702Y71260D01*
X31761Y71304D01*
X31834Y71363D01*
X31907Y71421D01*
X31322Y71758D01*
D02*
G37*
G36*
X31351Y70602D02*
X31336Y70587D01*
X31322Y70543D01*
Y70529D01*
X31307Y70470D01*
X31278Y70382D01*
X31219Y70294D01*
X31234Y70280D01*
X31263Y70265D01*
X31322Y70236D01*
X31395Y70221D01*
X31439D01*
X31483Y70236D01*
X31527Y70265D01*
X31541Y70280D01*
X31556Y70294D01*
Y70309D01*
X31571Y70323D01*
Y70353D01*
Y70367D01*
Y70411D01*
Y70470D01*
X31527Y70543D01*
X31497Y70558D01*
X31439D01*
X31410Y70572D01*
X31380Y70587D01*
X31351Y70602D01*
D02*
G37*
G36*
X29096Y73047D02*
Y73017D01*
X29067Y72929D01*
X29023Y72798D01*
X28935Y72622D01*
Y72607D01*
X28921Y72593D01*
X28892Y72519D01*
X28862Y72432D01*
X28833Y72359D01*
Y72329D01*
Y72300D01*
Y72256D01*
Y72197D01*
X28848Y72110D01*
X28862Y72022D01*
X28892Y71905D01*
Y71890D01*
X28906Y71861D01*
X28921Y71817D01*
X28935Y71773D01*
Y71758D01*
Y71729D01*
X28950Y71656D01*
X28979Y71539D01*
X28994Y71363D01*
Y71348D01*
Y71334D01*
X29009Y71231D01*
X29038Y71129D01*
X29053Y71012D01*
X29067Y70997D01*
X29082Y70938D01*
X29126Y70851D01*
X29170Y70748D01*
X29184Y70733D01*
X29199Y70689D01*
X29214Y70631D01*
X29228Y70572D01*
X29243D01*
X29258Y70587D01*
X29272D01*
X29287Y70602D01*
X29360D01*
X29448Y70572D01*
X29506Y70543D01*
X29550Y70514D01*
X29609Y70455D01*
X29653Y70382D01*
X29667Y70367D01*
X29697Y70323D01*
X29711Y70309D01*
X29726Y70280D01*
X29770Y70192D01*
Y70162D01*
Y70104D01*
Y70075D01*
Y70031D01*
X29785Y70045D01*
X29799Y70060D01*
X29814Y70075D01*
X29858Y70133D01*
X29902Y70206D01*
X29931Y70294D01*
Y70323D01*
Y70353D01*
X29916Y70397D01*
Y70470D01*
X29887Y70558D01*
X29858Y70660D01*
X29814Y70807D01*
Y70821D01*
X29799Y70851D01*
X29785Y70909D01*
Y70938D01*
X29770Y70997D01*
Y71012D01*
X29755Y71041D01*
Y71056D01*
Y71085D01*
Y71099D01*
Y71114D01*
Y71187D01*
Y71304D01*
X29770Y71421D01*
Y71436D01*
Y71465D01*
X29755Y71539D01*
X29741Y71597D01*
X29711Y71670D01*
Y71685D01*
X29697Y71714D01*
X29682Y71758D01*
X29667Y71831D01*
X29653Y71949D01*
Y72022D01*
Y72066D01*
Y72080D01*
X29667Y72139D01*
X29711Y72212D01*
X29770Y72315D01*
Y72329D01*
X29785Y72344D01*
X29829Y72417D01*
X29872Y72505D01*
X29887Y72593D01*
X29096Y73047D01*
D02*
G37*
G36*
X30985Y70646D02*
X30868D01*
X30809Y70631D01*
X30736D01*
X30678Y70616D01*
X30663Y70602D01*
X30619D01*
X30604Y70587D01*
X30575D01*
X30531Y70558D01*
X30473Y70529D01*
X30414Y70485D01*
X30399Y70455D01*
X30385Y70411D01*
X30341Y70338D01*
Y70323D01*
X30326Y70265D01*
Y70236D01*
X30341Y70192D01*
X30370Y70119D01*
X30429Y70060D01*
X30443Y70031D01*
X30473Y70016D01*
X30531Y70001D01*
X30604D01*
X30663Y70016D01*
X30692D01*
X30751Y70031D01*
X30780Y70045D01*
X30809Y70060D01*
X30853Y70089D01*
X30868Y70104D01*
X30912Y70133D01*
X30970Y70206D01*
X31044Y70309D01*
Y70323D01*
X31058Y70338D01*
X31117Y70411D01*
X31161Y70499D01*
X31175Y70572D01*
X31161Y70587D01*
X31131Y70602D01*
X31073Y70616D01*
X30985Y70646D01*
D02*
G37*
G36*
X29389Y70514D02*
X29272D01*
X29258Y70499D01*
X29272Y70455D01*
Y70441D01*
X29287Y70411D01*
X29316Y70353D01*
X29331Y70294D01*
X29389Y70177D01*
X29419Y70119D01*
X29448Y70075D01*
X29463Y70060D01*
X29492Y70031D01*
X29550Y70001D01*
X29609Y69987D01*
X29667D01*
X29682Y70001D01*
Y70031D01*
Y70045D01*
X29697Y70060D01*
Y70104D01*
Y70119D01*
Y70133D01*
Y70148D01*
X29682Y70162D01*
Y70177D01*
X29667Y70206D01*
X29623Y70280D01*
Y70294D01*
X29609Y70309D01*
Y70323D01*
X29594Y70353D01*
Y70367D01*
X29580Y70382D01*
X29521Y70441D01*
X29433Y70485D01*
X29389Y70514D01*
D02*
G37*
G36*
X33840Y73090D02*
X33811Y73076D01*
X33767Y73017D01*
X33752Y73003D01*
X33723Y72973D01*
X33664Y72900D01*
X33606Y72812D01*
Y72798D01*
X33576Y72754D01*
X33547Y72666D01*
X33503Y72549D01*
Y72534D01*
X33489Y72519D01*
X33459Y72432D01*
X33415Y72344D01*
X33357Y72256D01*
Y72241D01*
X33327Y72227D01*
X33283Y72154D01*
X33269Y72139D01*
X33240Y72110D01*
X33210Y72066D01*
X33166Y72022D01*
X33152Y72007D01*
X33108Y71963D01*
X33049Y71919D01*
X32976Y71846D01*
X32771Y71700D01*
X32669Y71627D01*
X32566Y71568D01*
X35582Y69826D01*
Y69855D01*
Y69914D01*
Y69928D01*
Y69958D01*
Y69972D01*
Y69987D01*
X35567Y70045D01*
X35553Y70119D01*
X35509Y70206D01*
X33840Y73090D01*
D02*
G37*
G36*
X28408Y73442D02*
X26535Y70192D01*
Y70177D01*
X26520Y70162D01*
X26491Y70104D01*
Y70089D01*
X26476Y70031D01*
Y70016D01*
Y69987D01*
X26461Y69958D01*
Y69899D01*
X26476Y69767D01*
X26535Y69621D01*
X26549Y69606D01*
X26593Y69548D01*
X26608Y69533D01*
X26652Y69489D01*
X26666D01*
X26681Y69460D01*
X26769Y69416D01*
X26886Y69357D01*
X26959Y69343D01*
X27047Y69328D01*
X35011D01*
Y69343D01*
X35113D01*
X35143Y69357D01*
X35187D01*
X35231Y69372D01*
X35289Y69401D01*
X35333Y69431D01*
X32039Y71334D01*
X32024Y71319D01*
X31995Y71290D01*
X31893Y71202D01*
X31907Y71187D01*
X31937Y71173D01*
X31981Y71129D01*
X32054Y71056D01*
Y71041D01*
X32068Y71026D01*
X32083Y71012D01*
X32112Y70968D01*
X32127Y70909D01*
X32142Y70836D01*
Y70821D01*
X32127Y70792D01*
X32112Y70733D01*
X32098Y70660D01*
X32083Y70646D01*
X32068Y70602D01*
X32054Y70587D01*
X32010Y70558D01*
X31922Y70529D01*
X31790Y70514D01*
X31717D01*
Y70499D01*
X31732Y70455D01*
Y70397D01*
Y70323D01*
X31717Y70309D01*
X31702Y70250D01*
X31688Y70221D01*
X31659Y70177D01*
X31644Y70162D01*
X31629Y70148D01*
X31571Y70119D01*
X31483Y70089D01*
X31380Y70075D01*
X31366D01*
X31307Y70089D01*
X31219Y70119D01*
X31131Y70162D01*
X31117Y70148D01*
X31073Y70089D01*
X31014Y70031D01*
X30941Y69972D01*
X30926D01*
X30912Y69943D01*
X30824Y69899D01*
X30809D01*
X30780Y69884D01*
X30678Y69855D01*
X30502D01*
X30443Y69870D01*
X30370Y69899D01*
X30312Y69943D01*
X30282Y69972D01*
X30238Y70060D01*
X30209Y70119D01*
X30195Y70192D01*
X30165Y70294D01*
Y70397D01*
Y70411D01*
Y70426D01*
Y70441D01*
Y70455D01*
Y70514D01*
Y70587D01*
X30180Y70660D01*
X30165Y70675D01*
X30136Y70704D01*
X30077Y70748D01*
X30063D01*
X30033Y70763D01*
X30004Y70792D01*
X29975Y70807D01*
Y70792D01*
X29989Y70748D01*
X30019Y70675D01*
X30033Y70602D01*
X30077Y70426D01*
X30092Y70353D01*
Y70294D01*
Y70280D01*
Y70265D01*
X30063Y70177D01*
X30004Y70060D01*
X29960Y70001D01*
X29902Y69943D01*
X29887Y69928D01*
X29858Y69914D01*
X29770Y69855D01*
X29755D01*
X29711Y69840D01*
X29609Y69826D01*
X29580D01*
X29521Y69855D01*
X29419Y69899D01*
X29331Y69987D01*
X29316Y70001D01*
X29287Y70031D01*
X29272Y70075D01*
X29243Y70133D01*
X29199Y70206D01*
X29170Y70294D01*
X29126Y70411D01*
Y70426D01*
Y70441D01*
X29111Y70455D01*
Y70470D01*
Y70485D01*
X29096Y70514D01*
X29067Y70572D01*
X29053Y70631D01*
X29023Y70689D01*
Y70704D01*
X29009Y70719D01*
X28979Y70792D01*
X28935Y70894D01*
X28906Y70968D01*
Y70982D01*
X28892Y71056D01*
X28877Y71173D01*
X28862Y71246D01*
X28848Y71334D01*
Y71348D01*
Y71378D01*
X28833Y71421D01*
X28818Y71480D01*
X28804Y71612D01*
X28789Y71714D01*
X28774Y71729D01*
Y71744D01*
Y71758D01*
X28760Y71817D01*
X28745Y71875D01*
Y71890D01*
X28730Y71934D01*
X28716Y72007D01*
X28701Y72080D01*
X28672Y72256D01*
Y72329D01*
X28687Y72402D01*
Y72417D01*
X28716Y72476D01*
X28745Y72563D01*
X28804Y72695D01*
Y72710D01*
X28818Y72739D01*
X28848Y72783D01*
X28877Y72842D01*
X28921Y72988D01*
X28950Y73120D01*
X28408Y73442D01*
D02*
G37*
G36*
X26505Y68376D02*
Y68362D01*
X26491Y68303D01*
X26461Y68215D01*
X26432Y68128D01*
X26286Y67747D01*
X26739D01*
X26593Y68113D01*
X26578Y68142D01*
X26564Y68201D01*
X26535Y68289D01*
X26505Y68376D01*
D02*
G37*
G36*
X34235Y68391D02*
X34206D01*
X34118Y68376D01*
X34016Y68347D01*
X33913Y68274D01*
X33898Y68245D01*
X33854Y68171D01*
X33825Y68113D01*
X33796Y68040D01*
X33781Y67937D01*
Y67835D01*
Y67820D01*
Y67791D01*
X33796Y67703D01*
X33840Y67571D01*
X33913Y67454D01*
X33942Y67439D01*
X34001Y67396D01*
X34103Y67337D01*
X34235Y67322D01*
X34264D01*
X34352Y67337D01*
X34455Y67381D01*
X34557Y67454D01*
X34572Y67483D01*
X34630Y67557D01*
X34674Y67688D01*
X34689Y67849D01*
Y67864D01*
Y67879D01*
Y67952D01*
X34660Y68040D01*
X34630Y68142D01*
X34616Y68157D01*
X34601Y68215D01*
X34543Y68274D01*
X34469Y68332D01*
X34455Y68347D01*
X34396Y68362D01*
X34323Y68376D01*
X34235Y68391D01*
D02*
G37*
G36*
X33108Y66912D02*
Y66898D01*
Y66883D01*
X33093Y66839D01*
X33079Y66781D01*
X33005Y66590D01*
X33240D01*
X33166Y66781D01*
Y66795D01*
X33137Y66825D01*
X33123Y66869D01*
X33108Y66912D01*
D02*
G37*
G36*
X31336D02*
X31278D01*
X31234Y66883D01*
X31175Y66854D01*
X31161Y66839D01*
X31146Y66795D01*
X31131Y66737D01*
X31117Y66634D01*
Y66620D01*
X31131Y66561D01*
X31146Y66502D01*
X31175Y66444D01*
X31190D01*
X31219Y66429D01*
X31263Y66415D01*
X31336Y66400D01*
X31395D01*
X31453Y66415D01*
X31497Y66444D01*
X31512Y66459D01*
X31541Y66502D01*
X31556Y66561D01*
X31571Y66649D01*
Y66663D01*
Y66693D01*
X31541Y66795D01*
Y66810D01*
X31527Y66825D01*
X31453Y66883D01*
X31439D01*
X31424Y66898D01*
X31336Y66912D01*
D02*
G37*
G36*
X30722D02*
X30473D01*
Y66678D01*
X30678D01*
X30751Y66693D01*
X30765Y66707D01*
X30795Y66737D01*
X30809Y66751D01*
X30824Y66795D01*
Y66810D01*
Y66825D01*
X30809Y66854D01*
X30780Y66883D01*
X30751Y66898D01*
X30722Y66912D01*
D02*
G37*
G36*
X32303Y66019D02*
X32068D01*
Y65507D01*
X32288D01*
X32317Y65522D01*
X32332D01*
X32347Y65536D01*
X32376Y65551D01*
Y65566D01*
X32390Y65580D01*
X32420Y65639D01*
Y65653D01*
X32434Y65683D01*
X32449Y65771D01*
Y65785D01*
Y65829D01*
X32434Y65888D01*
X32405Y65931D01*
Y65946D01*
X32390Y65961D01*
X32361Y65990D01*
X32332Y66005D01*
X32317D01*
X32303Y66019D01*
D02*
G37*
%LPD*%
D10*
X95991Y120404D02*
G03*
X96991Y120396I509J998D01*
G01*
X13783Y58264D02*
G03*
X13783Y58264I-1000J0D01*
G01*
D11*
X89800Y140000D02*
G03*
X92200Y140000I1200J0D01*
G01*
X21114Y54300D02*
G03*
X21114Y54300I-1414J0D01*
G01*
X92200Y140000D02*
X93100D01*
X89800D02*
X92200D01*
X94400Y132700D02*
Y135300D01*
X88900Y128000D02*
X93100D01*
X88900Y140000D02*
X89800D01*
X43886Y30114D02*
Y56886D01*
X17114D02*
X43886D01*
X17114Y30114D02*
X43886D01*
X17114D02*
Y56886D01*
D12*
X100378Y146516D02*
G03*
X100378Y146516I-394J0D01*
G01*
X59429Y48307D02*
G03*
X59429Y48307I-276J0D01*
G01*
X3118Y29500D02*
G03*
X3118Y29500I-394J0D01*
G01*
X10394Y17500D02*
G03*
X10394Y17500I-394J0D01*
G01*
X60794Y35026D02*
G03*
X60794Y35026I-394J0D01*
G01*
X93063Y31189D02*
G03*
X92276Y31189I-394J0D01*
G01*
D02*
G03*
X93063Y31189I394J0D01*
G01*
X99000Y148736D02*
Y161335D01*
X91000Y146535D02*
Y161496D01*
X87000Y148701D02*
Y161299D01*
X79000Y146500D02*
Y161461D01*
X101319Y155035D02*
X103681D01*
X112819Y106110D02*
X115181D01*
Y94890D02*
Y106110D01*
X116559Y94102D02*
X121283D01*
X112819Y94890D02*
Y106110D01*
Y94890D02*
X115181D01*
X135602Y116661D02*
Y122468D01*
X135268Y100716D02*
Y115284D01*
X123732D02*
X135268D01*
X123732Y100716D02*
X135268D01*
X123732D02*
Y115284D01*
X115018Y61500D02*
Y77500D01*
X127018D01*
X128695Y59244D02*
X134699D01*
X127018Y61500D02*
Y77500D01*
X115018Y61500D02*
X127018D01*
X107319Y47756D02*
X113323D01*
X114701Y27854D02*
Y47146D01*
Y27854D02*
X127299D01*
Y47146D01*
X114701D02*
X127299D01*
D13*
X88764Y110408D02*
G03*
X88764Y110408I-295J0D01*
G01*
Y99886D02*
G03*
X88764Y99886I-295J0D01*
G01*
D14*
X67240Y144957D02*
Y161886D01*
X65500Y83736D02*
X68500D01*
Y86500D01*
X9760Y161886D02*
X67240D01*
X9760Y144957D02*
Y161886D01*
X8500Y83736D02*
Y86500D01*
Y83736D02*
X11500D01*
D15*
X82000Y85500D02*
Y93000D01*
Y121500D02*
Y133700D01*
X103000Y103500D02*
X104500Y102000D01*
Y93500D02*
Y102000D01*
X125823Y144429D02*
Y150728D01*
X111177Y149705D02*
Y150728D01*
X125823D01*
Y124272D02*
Y130138D01*
X111177Y124272D02*
X125823D01*
X111177D02*
Y125256D01*
X94020Y112432D02*
X98980D01*
X94020Y103267D02*
X98980D01*
X94020Y101909D02*
X98980D01*
X94020Y92744D02*
X98980D01*
X81000Y50000D02*
Y58000D01*
X73634Y72039D02*
X75406D01*
Y69874D02*
Y72039D01*
X73240Y51961D02*
X75406D01*
Y54323D01*
X55327Y72039D02*
X57689D01*
X55327Y69874D02*
Y72039D01*
Y51961D02*
Y54126D01*
Y51961D02*
X57689D01*
X16224Y21669D02*
Y26000D01*
X2224Y21669D02*
Y26000D01*
X34689Y5531D02*
Y9469D01*
X9689Y2185D02*
X33311D01*
X9689Y12815D02*
X33311D01*
X8311Y5531D02*
Y9469D01*
X60640Y36825D02*
Y43227D01*
X72160Y36825D02*
Y43227D01*
X82700Y55500D02*
Y57999D01*
X83950D01*
X84366Y57583D01*
Y56750D01*
X83950Y56333D01*
X82700D01*
X83533D02*
X84366Y55500D01*
X85199D02*
X86032D01*
X85616D01*
Y57999D01*
X85199Y57583D01*
X88948Y57999D02*
X88115Y57583D01*
X87282Y56750D01*
Y55917D01*
X87698Y55500D01*
X88531D01*
X88948Y55917D01*
Y56333D01*
X88531Y56750D01*
X87282D01*
X82700Y51500D02*
Y53999D01*
X83950D01*
X84366Y53583D01*
Y52750D01*
X83950Y52333D01*
X82700D01*
X83533D02*
X84366Y51500D01*
X85199D02*
X86032D01*
X85616D01*
Y53999D01*
X85199Y53583D01*
X88948Y53999D02*
X87282D01*
Y52750D01*
X88115Y53166D01*
X88531D01*
X88948Y52750D01*
Y51916D01*
X88531Y51500D01*
X87698D01*
X87282Y51916D01*
X100500Y92499D02*
X102166D01*
X101333D01*
Y90000D01*
X104665D02*
X102999D01*
X104665Y91666D01*
Y92083D01*
X104249Y92499D01*
X103416D01*
X102999Y92083D01*
X89500Y92499D02*
X91166D01*
X90333D01*
Y90000D01*
X91999D02*
X92832D01*
X92416D01*
Y92499D01*
X91999Y92083D01*
X74500Y127100D02*
Y129599D01*
X75750D01*
X76166Y129183D01*
Y128350D01*
X75750Y127933D01*
X74500D01*
X75333D02*
X76166Y127100D01*
X76999D02*
X77832D01*
X77416D01*
Y129599D01*
X76999Y129183D01*
X80331Y127100D02*
Y129599D01*
X79082Y128350D01*
X80748D01*
X74500Y85500D02*
Y87999D01*
X75750D01*
X76166Y87583D01*
Y86750D01*
X75750Y86333D01*
X74500D01*
X75333D02*
X76166Y85500D01*
X76999D02*
X77832D01*
X77416D01*
Y87999D01*
X76999Y87583D01*
X79082D02*
X79498Y87999D01*
X80331D01*
X80748Y87583D01*
Y87166D01*
X80331Y86750D01*
X79915D01*
X80331D01*
X80748Y86333D01*
Y85917D01*
X80331Y85500D01*
X79498D01*
X79082Y85917D01*
X74500Y89300D02*
Y91799D01*
X75750D01*
X76166Y91383D01*
Y90550D01*
X75750Y90133D01*
X74500D01*
X75333D02*
X76166Y89300D01*
X76999D02*
X77832D01*
X77416D01*
Y91799D01*
X76999Y91383D01*
X80748Y89300D02*
X79082D01*
X80748Y90966D01*
Y91383D01*
X80331Y91799D01*
X79498D01*
X79082Y91383D01*
X122056Y159334D02*
X119557D01*
Y160583D01*
X119974Y161000D01*
X120807D01*
X121223Y160583D01*
Y159334D01*
Y160167D02*
X122056Y161000D01*
X119557Y161833D02*
Y163499D01*
X119974D01*
X121640Y161833D01*
X122056D01*
X127555Y154335D02*
X130054D01*
Y156002D01*
X127555Y158501D02*
Y156835D01*
X130054D01*
Y158501D01*
X128804Y156835D02*
Y157668D01*
X127555Y159334D02*
X130054D01*
Y160583D01*
X129637Y161000D01*
X127971D01*
X127555Y160583D01*
Y159334D01*
X127971Y161833D02*
X127555Y162250D01*
Y163083D01*
X127971Y163499D01*
X128388D01*
X128804Y163083D01*
Y162666D01*
Y163083D01*
X129221Y163499D01*
X129637D01*
X130054Y163083D01*
Y162250D01*
X129637Y161833D01*
X136417Y161000D02*
X136001Y160583D01*
Y159750D01*
X136417Y159334D01*
X138083D01*
X138500Y159750D01*
Y160583D01*
X138083Y161000D01*
Y161833D02*
X138500Y162250D01*
Y163083D01*
X138083Y163499D01*
X136417D01*
X136001Y163083D01*
Y162250D01*
X136417Y161833D01*
X136834D01*
X137250Y162250D01*
Y163499D01*
X111917Y161000D02*
X111501Y160583D01*
Y159750D01*
X111917Y159334D01*
X113584D01*
X114000Y159750D01*
Y160583D01*
X113584Y161000D01*
X114000Y163499D02*
Y161833D01*
X112334Y163499D01*
X111917D01*
X111501Y163083D01*
Y162250D01*
X111917Y161833D01*
X76583Y131200D02*
Y133699D01*
X77832D01*
X78249Y133283D01*
Y132450D01*
X77832Y132033D01*
X76583D01*
X77416D02*
X78249Y131200D01*
X80748Y133699D02*
X79915Y133283D01*
X79082Y132450D01*
Y131616D01*
X79498Y131200D01*
X80331D01*
X80748Y131616D01*
Y132033D01*
X80331Y132450D01*
X79082D01*
X3001Y44100D02*
X5500D01*
Y45766D01*
X3001Y48265D02*
Y46599D01*
X5500D01*
Y48265D01*
X4250Y46599D02*
Y47432D01*
X3001Y49098D02*
X5500D01*
Y50348D01*
X5083Y50765D01*
X3417D01*
X3001Y50348D01*
Y49098D01*
Y53264D02*
Y51598D01*
X4250D01*
X3834Y52431D01*
Y52847D01*
X4250Y53264D01*
X5083D01*
X5500Y52847D01*
Y52014D01*
X5083Y51598D01*
X3001Y77500D02*
X5500D01*
Y79166D01*
X3001Y81665D02*
Y79999D01*
X5500D01*
Y81665D01*
X4250Y79999D02*
Y80832D01*
X3001Y82498D02*
X5500D01*
Y83748D01*
X5083Y84165D01*
X3417D01*
X3001Y83748D01*
Y82498D01*
X5500Y86247D02*
X3001D01*
X4250Y84998D01*
Y86664D01*
X84500Y77999D02*
Y75500D01*
X86166D01*
X88665Y77999D02*
X86999D01*
Y75500D01*
X88665D01*
X86999Y76750D02*
X87832D01*
X89498Y77999D02*
Y75500D01*
X90748D01*
X91164Y75916D01*
Y77583D01*
X90748Y77999D01*
X89498D01*
X93664Y75500D02*
X91998D01*
X93664Y77166D01*
Y77583D01*
X93247Y77999D01*
X92414D01*
X91998Y77583D01*
X85333Y62999D02*
Y60500D01*
X86999D01*
X89498Y62999D02*
X87832D01*
Y60500D01*
X89498D01*
X87832Y61750D02*
X88665D01*
X90331Y62999D02*
Y60500D01*
X91581D01*
X91998Y60917D01*
Y62583D01*
X91581Y62999D01*
X90331D01*
X92831Y60500D02*
X93664D01*
X93247D01*
Y62999D01*
X92831Y62583D01*
X89498Y70500D02*
Y72999D01*
X90748D01*
X91164Y72583D01*
Y71750D01*
X90748Y71333D01*
X89498D01*
X90331D02*
X91164Y70500D01*
X91998Y72583D02*
X92414Y72999D01*
X93247D01*
X93664Y72583D01*
Y72166D01*
X93247Y71750D01*
X92831D01*
X93247D01*
X93664Y71333D01*
Y70916D01*
X93247Y70500D01*
X92414D01*
X91998Y70916D01*
X76583Y123100D02*
Y125599D01*
X77832D01*
X78249Y125183D01*
Y124350D01*
X77832Y123933D01*
X76583D01*
X77416D02*
X78249Y123100D01*
X80748D02*
X79082D01*
X80748Y124766D01*
Y125183D01*
X80331Y125599D01*
X79498D01*
X79082Y125183D01*
X90331Y65500D02*
Y67999D01*
X91581D01*
X91998Y67583D01*
Y66750D01*
X91581Y66333D01*
X90331D01*
X91164D02*
X91998Y65500D01*
X92831D02*
X93664D01*
X93247D01*
Y67999D01*
X92831Y67583D01*
X88700Y27500D02*
X86201D01*
Y28750D01*
X86617Y29166D01*
X87450D01*
X87867Y28750D01*
Y27500D01*
Y28333D02*
X88700Y29166D01*
X88283Y29999D02*
X88700Y30416D01*
Y31249D01*
X88283Y31665D01*
X86617D01*
X86201Y31249D01*
Y30416D01*
X86617Y29999D01*
X87034D01*
X87450Y30416D01*
Y31665D01*
X74317Y48166D02*
X73901Y47750D01*
Y46916D01*
X74317Y46500D01*
X75984D01*
X76400Y46916D01*
Y47750D01*
X75984Y48166D01*
X73901Y50665D02*
X74317Y49832D01*
X75150Y48999D01*
X75984D01*
X76400Y49416D01*
Y50249D01*
X75984Y50665D01*
X75567D01*
X75150Y50249D01*
Y48999D01*
X54917Y48166D02*
X54501Y47750D01*
Y46916D01*
X54917Y46500D01*
X56583D01*
X57000Y46916D01*
Y47750D01*
X56583Y48166D01*
X54501Y50665D02*
Y48999D01*
X55750D01*
X55334Y49832D01*
Y50249D01*
X55750Y50665D01*
X56583D01*
X57000Y50249D01*
Y49416D01*
X56583Y48999D01*
X16000Y60000D02*
X13501D01*
Y61250D01*
X13917Y61666D01*
X14750D01*
X15167Y61250D01*
Y60000D01*
Y60833D02*
X16000Y61666D01*
Y62499D02*
Y63332D01*
Y62916D01*
X13501D01*
X13917Y62499D01*
X16000Y64582D02*
Y65415D01*
Y64998D01*
X13501D01*
X13917Y64582D01*
X10500Y59167D02*
X8001D01*
Y60417D01*
X8417Y60833D01*
X9250D01*
X9667Y60417D01*
Y59167D01*
Y60000D02*
X10500Y60833D01*
Y61666D02*
Y62499D01*
Y62083D01*
X8001D01*
X8417Y61666D01*
Y63749D02*
X8001Y64165D01*
Y64998D01*
X8417Y65415D01*
X10084D01*
X10500Y64998D01*
Y64165D01*
X10084Y63749D01*
X8417D01*
X3001Y15000D02*
X3417D01*
X4250Y15833D01*
X3417Y16666D01*
X3001D01*
X4250Y15833D02*
X5500D01*
Y17499D02*
Y18332D01*
Y17916D01*
X3001D01*
X3417Y17499D01*
X56401Y31026D02*
X58900D01*
Y32276D01*
X58483Y32692D01*
X56817D01*
X56401Y32276D01*
Y31026D01*
X58900Y33525D02*
Y34358D01*
Y33942D01*
X56401D01*
X56817Y33525D01*
X103917Y29166D02*
X103501Y28750D01*
Y27916D01*
X103917Y27500D01*
X104334D01*
X104750Y27916D01*
Y28750D01*
X105167Y29166D01*
X105584D01*
X106000Y28750D01*
Y27916D01*
X105584Y27500D01*
X106000Y29999D02*
Y30832D01*
Y30416D01*
X103501D01*
X103917Y29999D01*
X49701Y67600D02*
X51784D01*
X52200Y68016D01*
Y68850D01*
X51784Y69266D01*
X49701D01*
Y71765D02*
X50117Y70932D01*
X50950Y70099D01*
X51784D01*
X52200Y70516D01*
Y71349D01*
X51784Y71765D01*
X51367D01*
X50950Y71349D01*
Y70099D01*
X98501Y123000D02*
X100584D01*
X101000Y123416D01*
Y124250D01*
X100584Y124666D01*
X98501D01*
Y127165D02*
Y125499D01*
X99750D01*
X99334Y126332D01*
Y126749D01*
X99750Y127165D01*
X100584D01*
X101000Y126749D01*
Y125916D01*
X100584Y125499D01*
X89001Y3666D02*
Y2833D01*
Y3250D01*
X91084D01*
X91500Y2833D01*
Y2417D01*
X91084Y2000D01*
X91500Y4499D02*
Y5332D01*
Y4916D01*
X89001D01*
X89417Y4499D01*
X110500Y92499D02*
X111333D01*
X110916D01*
Y90000D01*
X110500D01*
X111333D01*
X114249Y92083D02*
X113832Y92499D01*
X112999D01*
X112583Y92083D01*
Y90417D01*
X112999Y90000D01*
X113832D01*
X114249Y90417D01*
X115082Y92083D02*
X115498Y92499D01*
X116331D01*
X116748Y92083D01*
Y91666D01*
X116331Y91250D01*
X115915D01*
X116331D01*
X116748Y90833D01*
Y90417D01*
X116331Y90000D01*
X115498D01*
X115082Y90417D01*
X108000Y51500D02*
X105501D01*
Y52750D01*
X105917Y53166D01*
X106750D01*
X107167Y52750D01*
Y51500D01*
Y52333D02*
X108000Y53166D01*
X105917Y53999D02*
X105501Y54416D01*
Y55249D01*
X105917Y55665D01*
X106334D01*
X106750Y55249D01*
X107167Y55665D01*
X107583D01*
X108000Y55249D01*
Y54416D01*
X107583Y53999D01*
X107167D01*
X106750Y54416D01*
X106334Y53999D01*
X105917D01*
X106750Y54416D02*
Y55249D01*
X41417Y3666D02*
X41001Y3250D01*
Y2417D01*
X41417Y2000D01*
X41834D01*
X42250Y2417D01*
Y3250D01*
X42667Y3666D01*
X43084D01*
X43500Y3250D01*
Y2417D01*
X43084Y2000D01*
X41001Y4499D02*
X43500D01*
X42667Y5332D01*
X43500Y6165D01*
X41001D01*
X43500Y6998D02*
Y7831D01*
Y7415D01*
X41001D01*
X41417Y6998D01*
X136001Y135500D02*
X138083D01*
X138500Y135916D01*
Y136750D01*
X138083Y137166D01*
X136001D01*
X138500Y139249D02*
X136001D01*
X137250Y137999D01*
Y139665D01*
X106925Y109500D02*
X104426D01*
Y110750D01*
X104842Y111166D01*
X105676D01*
X106092Y110750D01*
Y109500D01*
Y110333D02*
X106925Y111166D01*
X104426Y113665D02*
Y111999D01*
X105676D01*
X105259Y112832D01*
Y113249D01*
X105676Y113665D01*
X106509D01*
X106925Y113249D01*
Y112416D01*
X106509Y111999D01*
X108661Y83500D02*
X106162D01*
Y84750D01*
X106579Y85166D01*
X107412D01*
X107828Y84750D01*
Y83500D01*
Y84333D02*
X108661Y85166D01*
Y87249D02*
X106162D01*
X107412Y85999D01*
Y87665D01*
X129666Y90417D02*
Y92083D01*
X129250Y92499D01*
X128417D01*
X128000Y92083D01*
Y90417D01*
X128417Y90000D01*
X129250D01*
X128833Y90833D02*
X129666Y90000D01*
X129250D02*
X129666Y90417D01*
X130499Y90000D02*
X131332D01*
X130916D01*
Y92499D01*
X130499Y92083D01*
X136001Y35000D02*
Y35833D01*
Y35416D01*
X138500D01*
Y35000D01*
Y35833D01*
X136417Y38749D02*
X136001Y38332D01*
Y37499D01*
X136417Y37083D01*
X138084D01*
X138500Y37499D01*
Y38332D01*
X138084Y38749D01*
X138500Y40832D02*
X136001D01*
X137250Y39582D01*
Y41248D01*
X136001Y66000D02*
Y66833D01*
Y66417D01*
X138500D01*
Y66000D01*
Y66833D01*
X136417Y69749D02*
X136001Y69332D01*
Y68499D01*
X136417Y68083D01*
X138084D01*
X138500Y68499D01*
Y69332D01*
X138084Y69749D01*
X138500Y72248D02*
Y70582D01*
X136834Y72248D01*
X136417D01*
X136001Y71831D01*
Y70998D01*
X136417Y70582D01*
X85001Y123000D02*
Y123833D01*
Y123416D01*
X87500D01*
Y123000D01*
Y123833D01*
X85417Y126749D02*
X85001Y126332D01*
Y125499D01*
X85417Y125083D01*
X87084D01*
X87500Y125499D01*
Y126332D01*
X87084Y126749D01*
X87500Y127582D02*
Y128415D01*
Y127998D01*
X85001D01*
X85417Y127582D01*
X101666Y163499D02*
X100000D01*
Y162250D01*
X100833D01*
X100000D01*
Y161000D01*
X102499Y163499D02*
Y161000D01*
X103749D01*
X104165Y161416D01*
Y161833D01*
X103749Y162250D01*
X102499D01*
X103749D01*
X104165Y162666D01*
Y163083D01*
X103749Y163499D01*
X102499D01*
X104998Y161000D02*
X105831D01*
X105415D01*
Y163499D01*
X104998Y163083D01*
X136417Y52166D02*
X136001Y51750D01*
Y50916D01*
X136417Y50500D01*
X138084D01*
X138500Y50916D01*
Y51750D01*
X138084Y52166D01*
X138500Y52999D02*
Y53832D01*
Y53416D01*
X136001D01*
X136417Y52999D01*
X138084Y55082D02*
X138500Y55498D01*
Y56331D01*
X138084Y56748D01*
X136417D01*
X136001Y56331D01*
Y55498D01*
X136417Y55082D01*
X136834D01*
X137250Y55498D01*
Y56748D01*
X93917Y142333D02*
X93501Y141917D01*
Y141084D01*
X93917Y140667D01*
X95583D01*
X96000Y141084D01*
Y141917D01*
X95583Y142333D01*
X93917Y143166D02*
X93501Y143583D01*
Y144416D01*
X93917Y144832D01*
X94334D01*
X94750Y144416D01*
X95167Y144832D01*
X95583D01*
X96000Y144416D01*
Y143583D01*
X95583Y143166D01*
X95167D01*
X94750Y143583D01*
X94334Y143166D01*
X93917D01*
X94750Y143583D02*
Y144416D01*
X104842Y119743D02*
X104426Y119326D01*
Y118493D01*
X104842Y118077D01*
X106509D01*
X106925Y118493D01*
Y119326D01*
X106509Y119743D01*
X104426Y120576D02*
Y122242D01*
X104842D01*
X106509Y120576D01*
X106925D01*
X121498Y85166D02*
X121081Y84750D01*
Y83916D01*
X121498Y83500D01*
X123164D01*
X123581Y83916D01*
Y84750D01*
X123164Y85166D01*
X123581Y87249D02*
X121081D01*
X122331Y85999D01*
Y87665D01*
X136417Y85166D02*
X136001Y84750D01*
Y83916D01*
X136417Y83500D01*
X138084D01*
X138500Y83916D01*
Y84750D01*
X138084Y85166D01*
X136417Y85999D02*
X136001Y86416D01*
Y87249D01*
X136417Y87665D01*
X136834D01*
X137250Y87249D01*
Y86832D01*
Y87249D01*
X137667Y87665D01*
X138084D01*
X138500Y87249D01*
Y86416D01*
X138084Y85999D01*
X81917Y143166D02*
X81501Y142750D01*
Y141917D01*
X81917Y141500D01*
X83583D01*
X84000Y141917D01*
Y142750D01*
X83583Y143166D01*
X84000Y143999D02*
Y144832D01*
Y144416D01*
X81501D01*
X81917Y143999D01*
X19001Y66000D02*
X21083D01*
X21500Y66417D01*
Y67250D01*
X21083Y67666D01*
X19001D01*
X21500Y68499D02*
Y69332D01*
Y68916D01*
X19001D01*
X19417Y68499D01*
X69000Y161499D02*
Y159416D01*
X69416Y159000D01*
X70250D01*
X70666Y159416D01*
Y161499D01*
X73165Y159000D02*
X71499D01*
X73165Y160666D01*
Y161083D01*
X72749Y161499D01*
X71916D01*
X71499Y161083D01*
D16*
X47846Y496D02*
X84854D01*
D17*
X103299Y34732D02*
Y51169D01*
X90701Y34732D02*
Y51169D01*
M02*
