G04*
G04 #@! TF.GenerationSoftware,Altium Limited,Altium Designer,19.1.5 (86)*
G04*
G04 Layer_Physical_Order=1*
G04 Layer_Color=255*
%FSLAX25Y25*%
%MOIN*%
G70*
G01*
G75*
%ADD14C,0.00800*%
%ADD16C,0.01000*%
%ADD18C,0.00984*%
%ADD19C,0.03000*%
%ADD20R,0.06299X0.03150*%
%ADD21R,0.03150X0.06299*%
%ADD22R,0.04882X0.01575*%
%ADD23R,0.03543X0.03740*%
%ADD24R,0.04921X0.07087*%
%ADD25R,0.05000X0.02200*%
%ADD26R,0.03937X0.03347*%
%ADD27R,0.03819X0.04095*%
%ADD28R,0.03740X0.03543*%
%ADD29R,0.05158X0.12756*%
%ADD30R,0.05158X0.03661*%
%ADD31R,0.03937X0.05709*%
%ADD32R,0.04724X0.02559*%
%ADD33R,0.04016X0.05787*%
%ADD34R,0.01772X0.05807*%
%ADD35R,0.06004X0.02756*%
%ADD36R,0.09894X0.13394*%
%ADD37R,0.03976X0.01063*%
%ADD38R,0.01063X0.03976*%
%ADD39R,0.12795X0.12795*%
%ADD40R,0.05906X0.02165*%
%ADD41R,0.02165X0.05906*%
%ADD42R,0.01181X0.04331*%
%ADD43R,0.01968X0.06693*%
%ADD44R,0.03937X0.03150*%
%ADD45R,0.02756X0.04331*%
%ADD46R,0.02362X0.05354*%
%ADD47R,0.02559X0.04134*%
%ADD82C,0.03500*%
%ADD83C,0.01500*%
%ADD84C,0.02953*%
%ADD85C,0.02362*%
%ADD86C,0.02559*%
%ADD87C,0.04724*%
%ADD88C,0.06000*%
%ADD89C,0.01968*%
G36*
X85500Y142349D02*
Y141700D01*
X91800D01*
Y131800D01*
X98554D01*
X98836Y131636D01*
X99000Y131353D01*
Y129246D01*
X98836Y128964D01*
X98554Y128800D01*
X89500D01*
Y139500D01*
X85500D01*
X53848Y139500D01*
X49902D01*
X47800D01*
X47800Y133752D01*
Y130376D01*
X47709Y130155D01*
X47445Y129891D01*
X47224Y129800D01*
X9811D01*
X9694Y129849D01*
X6000D01*
Y132318D01*
X6069Y132485D01*
Y132703D01*
X6480Y132953D01*
X6611Y133000D01*
X43500D01*
X43500Y143100D01*
X75500Y143100D01*
X80500D01*
X80500Y151691D01*
Y153176D01*
X80500Y153176D01*
X80946Y153400D01*
X81677D01*
X81735Y153376D01*
X82339D01*
X82398Y153400D01*
X85500D01*
X85500Y142349D01*
D02*
G37*
G36*
X136000Y130500D02*
X116600Y130500D01*
Y139500D01*
X108300Y139500D01*
Y135300D01*
X102300D01*
Y139700D01*
X92500D01*
Y153500D01*
X98000D01*
Y144000D01*
X116600D01*
Y145000D01*
X121800D01*
Y158100D01*
X136000D01*
Y130500D01*
D02*
G37*
G36*
X91851Y153500D02*
Y142383D01*
X91800Y142349D01*
X86149D01*
X86149Y153400D01*
X86117Y153478D01*
X86350Y153978D01*
X91550D01*
X91851Y153500D01*
D02*
G37*
G36*
X88800Y136200D02*
X82700Y136200D01*
Y135926D01*
X82200Y135556D01*
X81900Y135615D01*
X81282Y135492D01*
X80758Y135142D01*
X80408Y134618D01*
X80285Y134000D01*
X80408Y133382D01*
X80758Y132858D01*
X81282Y132508D01*
X81900Y132385D01*
X82200Y132444D01*
X82700Y132074D01*
Y131700D01*
X88700Y131700D01*
Y126800D01*
X102300D01*
Y130571D01*
X102338Y130662D01*
X102429Y130700D01*
X107853D01*
X108300Y130571D01*
Y123300D01*
X82200D01*
Y122651D01*
X82200Y122651D01*
X82200D01*
Y116929D01*
X82162Y116838D01*
X82071Y116800D01*
X78029D01*
X77938Y116838D01*
X77900Y116929D01*
Y138800D01*
X77900Y138800D01*
X88800D01*
Y136200D01*
D02*
G37*
G36*
X139500Y500D02*
X94749D01*
X94542Y1000D01*
X97321Y3779D01*
X97542Y4110D01*
X97620Y4500D01*
Y15843D01*
X100341Y18564D01*
X101086Y18255D01*
X102000Y18135D01*
X102914Y18255D01*
X103765Y18608D01*
X104496Y19169D01*
X105057Y19900D01*
X105410Y20752D01*
X105530Y21665D01*
X105410Y22579D01*
X105057Y23430D01*
X104496Y24162D01*
X103765Y24723D01*
X102914Y25075D01*
X102000Y25196D01*
X101086Y25075D01*
X100235Y24723D01*
X99504Y24162D01*
X98943Y23430D01*
X98590Y22579D01*
X98470Y21665D01*
X98590Y20752D01*
X98899Y20006D01*
X95879Y16986D01*
X95658Y16656D01*
X95580Y16265D01*
Y13474D01*
X95080Y13374D01*
X95057Y13430D01*
X94496Y14162D01*
X93765Y14723D01*
X92914Y15075D01*
X92000Y15196D01*
X91086Y15075D01*
X90916Y15005D01*
X90500Y15282D01*
Y18048D01*
X90916Y18326D01*
X91086Y18255D01*
X92000Y18135D01*
X92914Y18255D01*
X93765Y18608D01*
X94496Y19169D01*
X95057Y19900D01*
X95410Y20752D01*
X95530Y21665D01*
X95410Y22579D01*
X95057Y23430D01*
X94496Y24162D01*
X93765Y24723D01*
X92914Y25075D01*
X92000Y25196D01*
X91086Y25075D01*
X90916Y25005D01*
X90500Y25282D01*
Y26750D01*
X99300D01*
X99759Y26941D01*
X99949Y27400D01*
Y31764D01*
X100732D01*
Y34831D01*
Y37898D01*
X99949D01*
X99949Y48502D01*
X103112D01*
X103180Y48031D01*
Y37898D01*
X101732D01*
Y34831D01*
Y31764D01*
X103180D01*
Y31500D01*
X103258Y31110D01*
X103479Y30779D01*
X104199Y30060D01*
X104187Y30000D01*
X104302Y29421D01*
X104630Y28930D01*
X105121Y28602D01*
X105700Y28487D01*
X106221Y28590D01*
X106387Y28545D01*
X106721Y28367D01*
Y28022D01*
X113925D01*
Y31350D01*
X124500Y31351D01*
X124850Y31496D01*
X125350Y31279D01*
Y26149D01*
X118129Y26149D01*
X118010Y26100D01*
X117881Y26100D01*
X117789Y26062D01*
X117698Y25971D01*
X117670Y25959D01*
X117658Y25931D01*
X117569Y25842D01*
X117541Y25830D01*
X117529Y25802D01*
X117438Y25711D01*
X117400Y25619D01*
X117400Y25490D01*
X117350Y25371D01*
X117351Y16629D01*
X117400Y16510D01*
X117400Y16381D01*
X117438Y16289D01*
X117529Y16198D01*
X117541Y16170D01*
X117569Y16158D01*
X117658Y16069D01*
X117670Y16041D01*
X117698Y16029D01*
X117789Y15938D01*
X117881Y15900D01*
X118010Y15900D01*
X118129Y15851D01*
X120345D01*
X120444Y15351D01*
X119983Y15159D01*
X119147Y14518D01*
X118506Y13683D01*
X118103Y12710D01*
X118031Y12165D01*
X122000D01*
X125969D01*
X125897Y12710D01*
X125494Y13683D01*
X124853Y14518D01*
X124017Y15159D01*
X123556Y15351D01*
X123655Y15851D01*
X137871Y15851D01*
X137990Y15900D01*
X138119Y15900D01*
X138211Y15938D01*
X138302Y16029D01*
X138330Y16041D01*
X138342Y16069D01*
X138431Y16158D01*
X138459Y16170D01*
X138471Y16198D01*
X138562Y16289D01*
X138600Y16381D01*
X138600Y16510D01*
X138649Y16629D01*
Y47871D01*
X138600Y47990D01*
X138600Y48119D01*
X138562Y48211D01*
X138471Y48302D01*
X138459Y48330D01*
X138431Y48342D01*
X138342Y48431D01*
X138330Y48459D01*
X138302Y48471D01*
X138211Y48562D01*
X138119Y48600D01*
X137990Y48600D01*
X137871Y48649D01*
X126129D01*
X126010Y48600D01*
X125881D01*
X125751Y48546D01*
X125660Y48455D01*
X125541Y48406D01*
X125532Y48384D01*
X125271Y48335D01*
X124984Y48399D01*
X124959Y48459D01*
X124500Y48649D01*
X120122Y48649D01*
Y50046D01*
X121297D01*
Y52378D01*
X123703D01*
Y50006D01*
X128919D01*
Y56994D01*
X127154D01*
X127149Y57000D01*
Y62200D01*
X126959Y62659D01*
X126565Y62823D01*
Y74726D01*
X126900Y74951D01*
X134700D01*
X134873Y75022D01*
X135297D01*
Y75473D01*
X135349Y75600D01*
Y88301D01*
X135628Y88489D01*
X135811Y88547D01*
X136380Y87978D01*
Y68422D01*
X135978Y68020D01*
X135297D01*
Y68978D01*
X128093D01*
Y65022D01*
X135297D01*
Y65980D01*
X136400D01*
X136790Y66058D01*
X137121Y66279D01*
X138121Y67279D01*
X138342Y67610D01*
X138420Y68000D01*
Y88400D01*
X138342Y88790D01*
X138121Y89121D01*
X136521Y90721D01*
X136190Y90942D01*
X135800Y91020D01*
X97952D01*
X97833Y91192D01*
X97730Y91520D01*
X97998Y91921D01*
X98113Y92500D01*
X98095Y92594D01*
X98412Y92980D01*
X99681D01*
Y94768D01*
X100181D01*
Y95268D01*
X103622D01*
Y95334D01*
X104121Y95602D01*
X104700Y95487D01*
X105279Y95602D01*
X105616Y95827D01*
X106095Y95626D01*
X106116Y95606D01*
Y94880D01*
X112041D01*
Y95892D01*
X112321Y96079D01*
X113019Y96776D01*
X113480Y96585D01*
Y95800D01*
X113558Y95410D01*
X113779Y95079D01*
X115679Y93179D01*
X116010Y92958D01*
X116400Y92880D01*
X123128D01*
X123519Y92958D01*
X123676Y93063D01*
X124176Y92930D01*
Y92930D01*
X126335D01*
Y92529D01*
X127720D01*
Y96433D01*
Y100337D01*
X126335D01*
Y99937D01*
X125632D01*
X125441Y100399D01*
X126382Y101340D01*
X126603Y101671D01*
X126681Y102061D01*
Y115503D01*
X127138Y115843D01*
X127181Y115850D01*
X131800Y115850D01*
X132259Y116041D01*
X132269Y116063D01*
X134824D01*
Y123071D01*
X132449D01*
Y125700D01*
X132259Y126159D01*
X131800Y126349D01*
X114800Y126349D01*
X114341Y126159D01*
X114151Y125700D01*
Y117208D01*
X113919Y117026D01*
X113419Y117260D01*
Y123071D01*
X109103D01*
X108949Y123300D01*
Y130571D01*
X108887Y130722D01*
X108869Y130884D01*
X108795Y130943D01*
X108759Y131030D01*
X108608Y131093D01*
X108481Y131195D01*
X108034Y131324D01*
X107940Y131313D01*
X107853Y131349D01*
X102429D01*
X102310Y131300D01*
X102181Y131300D01*
X102089Y131262D01*
X101998Y131171D01*
X101970Y131159D01*
X101958Y131131D01*
X101869Y131042D01*
X101841Y131030D01*
X101829Y131002D01*
X101738Y130911D01*
X101700Y130819D01*
X101700Y130690D01*
X101651Y130571D01*
Y127449D01*
X89349D01*
Y128050D01*
X89500Y128151D01*
X98554D01*
X98710Y128216D01*
X98879Y128238D01*
X99162Y128402D01*
X99264Y128536D01*
X99398Y128638D01*
X99562Y128921D01*
X99585Y129090D01*
X99649Y129246D01*
Y131018D01*
X100116Y131435D01*
X100500Y131359D01*
X101319Y131522D01*
X102014Y131986D01*
X102478Y132681D01*
X102641Y133500D01*
X102512Y134151D01*
X102762Y134567D01*
X102858Y134651D01*
X108300D01*
X108759Y134841D01*
X108949Y135300D01*
Y138851D01*
X115951Y138850D01*
Y130500D01*
X116141Y130041D01*
X116600Y129850D01*
X136000Y129851D01*
X136459Y130041D01*
X136649Y130500D01*
Y158100D01*
X136459Y158559D01*
X136000Y158749D01*
X135697D01*
Y161150D01*
X132787D01*
X129878D01*
Y158749D01*
X126999D01*
X126925Y159219D01*
X126925Y159249D01*
Y164159D01*
X122182D01*
Y162811D01*
X119027D01*
Y164061D01*
X114086D01*
Y159317D01*
X119027D01*
Y160567D01*
X122182D01*
Y159249D01*
X122182Y159219D01*
X122108Y158749D01*
X121800D01*
X121341Y158559D01*
X121151Y158100D01*
Y145649D01*
X116600D01*
X116141Y145459D01*
X115951Y145000D01*
Y144649D01*
X108909D01*
Y146016D01*
X105331D01*
Y147016D01*
X108909D01*
Y149346D01*
X105458D01*
X105069Y149613D01*
Y154159D01*
X102252D01*
X102045Y154659D01*
X103293Y155907D01*
X103293Y155907D01*
X103296Y155912D01*
X105069D01*
Y160283D01*
X105547Y160510D01*
X105991Y160427D01*
X105991Y159111D01*
X105590Y158870D01*
X105590Y158761D01*
X105591Y158761D01*
Y156323D01*
X108500D01*
X111409D01*
Y158761D01*
X111409Y158761D01*
Y158870D01*
X111010Y159111D01*
X111009Y159370D01*
Y164297D01*
X105991D01*
Y162771D01*
X103750D01*
X103750Y162771D01*
X103320Y162686D01*
X102956Y162443D01*
X102956Y162443D01*
X101707Y161193D01*
X101464Y160829D01*
X101390Y160458D01*
X99932D01*
Y156222D01*
X98461D01*
Y159654D01*
X95000D01*
X91539D01*
Y156222D01*
X86461D01*
Y159618D01*
X83000D01*
X79539D01*
Y155575D01*
X83235D01*
X83427Y155113D01*
X82339Y154025D01*
X81735D01*
X81677Y154049D01*
X80946D01*
X80888Y154025D01*
X79939D01*
Y153484D01*
X79919Y153466D01*
X79919Y153466D01*
X79916Y153417D01*
X79884Y153380D01*
X79891Y153274D01*
X79851Y153176D01*
Y151691D01*
X79851Y143749D01*
X75500D01*
Y165500D01*
X139500D01*
Y500D01*
D02*
G37*
G36*
X131800Y125700D02*
Y116500D01*
X127147Y116500D01*
Y123071D01*
X124176D01*
Y116500D01*
X114800Y116500D01*
Y125700D01*
X131800Y125700D01*
D02*
G37*
G36*
X85547Y122189D02*
X85232Y121874D01*
X85011Y121543D01*
X84996Y121470D01*
X83581D01*
Y116530D01*
X88324D01*
Y121180D01*
X89778D01*
Y119287D01*
X89378D01*
Y118000D01*
X92819D01*
Y117000D01*
X89378D01*
Y115713D01*
Y115400D01*
X92819D01*
Y114400D01*
X89378D01*
Y113320D01*
X88324D01*
Y115683D01*
X83581D01*
Y110742D01*
X88324D01*
Y111280D01*
X89378D01*
Y110908D01*
X92819D01*
Y109908D01*
X89378D01*
Y108621D01*
X89778D01*
Y106310D01*
X88510D01*
X88324Y106495D01*
Y109895D01*
X83581D01*
Y104955D01*
X86981D01*
X87328Y104608D01*
X87311Y104446D01*
X87157Y104108D01*
X83581D01*
Y99168D01*
X88324D01*
Y100654D01*
X89378D01*
Y100386D01*
X92819D01*
Y99386D01*
X89378D01*
Y98098D01*
X89778D01*
Y95787D01*
X88324D01*
Y98321D01*
X83581D01*
Y94367D01*
X83081Y94160D01*
X82419Y94822D01*
Y98321D01*
X81067D01*
Y99168D01*
X82419D01*
Y104108D01*
X81067D01*
Y104955D01*
X82419D01*
Y109895D01*
X81067D01*
Y110742D01*
X82419D01*
Y115683D01*
X82419D01*
X82313Y116183D01*
X82319Y116200D01*
X82411Y116238D01*
X82502Y116329D01*
X82530Y116341D01*
X82542Y116369D01*
X82631Y116458D01*
X82659Y116470D01*
X82671Y116498D01*
X82762Y116589D01*
X82800Y116681D01*
X82800Y116810D01*
X82849Y116929D01*
Y122651D01*
X85355D01*
X85547Y122189D01*
D02*
G37*
G36*
X123080Y109878D02*
Y103122D01*
X122383Y102425D01*
X121883Y102632D01*
Y106120D01*
X115959D01*
Y105260D01*
X115740D01*
X115492Y105210D01*
X115344Y105270D01*
X115137Y105428D01*
X115020Y105563D01*
Y107609D01*
X115172Y108046D01*
X120309D01*
Y110480D01*
X122478D01*
X123080Y109878D01*
D02*
G37*
G36*
X77251Y138800D02*
Y116929D01*
X77300Y116810D01*
X77300Y116681D01*
X77338Y116589D01*
X77429Y116498D01*
X77441Y116470D01*
X77469Y116458D01*
X77558Y116369D01*
X77570Y116341D01*
X77598Y116329D01*
X77689Y116238D01*
X77781Y116200D01*
X77787Y116183D01*
X77676Y115683D01*
X77676D01*
Y110742D01*
X79028D01*
Y109895D01*
X77676D01*
Y104955D01*
X79028D01*
Y104108D01*
X77676D01*
Y99168D01*
X79028D01*
Y98321D01*
X77676D01*
Y93380D01*
X80977D01*
X81821Y92536D01*
X81772Y92039D01*
X81506Y91861D01*
X80986Y91084D01*
X80804Y90167D01*
Y90000D01*
X75500D01*
Y138850D01*
X77217D01*
X77251Y138800D01*
D02*
G37*
G36*
X99251Y88900D02*
Y79400D01*
X99232Y79372D01*
X94624D01*
Y74628D01*
X94624D01*
X94723Y74470D01*
Y69530D01*
X94723D01*
Y69470D01*
X94723D01*
Y64530D01*
X94624Y64372D01*
X94624D01*
Y59818D01*
X94241Y59659D01*
X94051Y59200D01*
Y53836D01*
X90888D01*
X90500Y54106D01*
Y57500D01*
Y84143D01*
X91000Y84500D01*
X91100Y84480D01*
X92853D01*
Y82046D01*
X97990D01*
Y88954D01*
X98479Y88980D01*
X99197D01*
X99251Y88900D01*
D02*
G37*
G36*
X134700Y75600D02*
X126900D01*
Y77000D01*
X116100Y77000D01*
X116100Y82000D01*
X131200Y82000D01*
Y88400D01*
X134700D01*
Y75600D01*
D02*
G37*
G36*
X114700Y75054D02*
X114571Y75000D01*
X106700D01*
Y79400D01*
X99900Y79400D01*
Y88900D01*
X114700Y88900D01*
Y75054D01*
D02*
G37*
G36*
X42851Y133649D02*
X6611D01*
X6506Y133606D01*
X6393Y133612D01*
X6262Y133565D01*
X6244Y133549D01*
X5420D01*
Y132614D01*
X5400Y132566D01*
Y132481D01*
X5045Y132410D01*
X4681Y132167D01*
X4681Y132167D01*
X3207Y130693D01*
X2964Y130329D01*
X2878Y129900D01*
X2878Y129900D01*
Y76923D01*
X1628D01*
Y71983D01*
X6372D01*
Y76923D01*
X5122D01*
Y87484D01*
X5420Y87861D01*
X5622Y87861D01*
X12412D01*
X12619Y87361D01*
X8828Y83570D01*
X8607Y83239D01*
X8530Y82849D01*
Y81628D01*
X8479Y81595D01*
X8151Y81104D01*
X8036Y80525D01*
X8151Y79945D01*
X8479Y79454D01*
X8530Y79421D01*
Y76824D01*
X7079D01*
Y72081D01*
X11889Y72081D01*
X12130Y71681D01*
X12261Y71681D01*
X12261Y71681D01*
X14500D01*
Y74453D01*
Y77224D01*
X12261D01*
X12261Y77224D01*
X12130D01*
X11889Y76824D01*
X11630Y76824D01*
X10569D01*
Y79421D01*
X10619Y79454D01*
X10947Y79945D01*
X11062Y80525D01*
X10947Y81104D01*
X10619Y81595D01*
X10569Y81628D01*
Y82427D01*
X14721Y86579D01*
X14942Y86910D01*
X15020Y87300D01*
Y89188D01*
X15520Y89333D01*
X15765Y88965D01*
X16256Y88637D01*
X16835Y88522D01*
X17415Y88637D01*
X17906Y88965D01*
X17939Y89016D01*
X64081D01*
Y87861D01*
X71580D01*
Y92210D01*
X64081D01*
Y91055D01*
X17939D01*
X17906Y91106D01*
X17415Y91434D01*
X16835Y91549D01*
X16256Y91434D01*
X15765Y91106D01*
X15520Y90738D01*
X15020Y90882D01*
Y99147D01*
X15070Y99181D01*
X15398Y99672D01*
X15513Y100251D01*
X15398Y100830D01*
X15070Y101321D01*
X14579Y101649D01*
X14000Y101765D01*
X13940Y101753D01*
X13126Y102567D01*
X12919Y102706D01*
Y104021D01*
X5622D01*
X5420Y104021D01*
X5122Y104398D01*
Y105201D01*
X5420Y105577D01*
X5622Y105577D01*
X12919D01*
Y109927D01*
X5622D01*
X5420Y109927D01*
X5122Y110303D01*
Y111106D01*
X5420Y111483D01*
X5622Y111483D01*
X12919D01*
Y115832D01*
X5622D01*
X5420Y115832D01*
X5122Y116209D01*
Y117012D01*
X5420Y117388D01*
X5622Y117388D01*
X12919D01*
Y121738D01*
X5622D01*
X5420Y121738D01*
X5122Y122114D01*
Y122917D01*
X5420Y123294D01*
X5622Y123294D01*
X12919D01*
Y127643D01*
X5622D01*
X5420Y127643D01*
X5122Y128020D01*
Y128823D01*
X5420Y129199D01*
X9694D01*
X9811Y129151D01*
X47224D01*
X47344Y129200D01*
X47473D01*
X47693Y129291D01*
X47785Y129383D01*
X47904Y129432D01*
X48168Y129696D01*
X48217Y129815D01*
X48309Y129907D01*
X48400Y130127D01*
Y130256D01*
X48449Y130376D01*
Y133752D01*
X48449Y138851D01*
X53848D01*
X74500Y138850D01*
Y89000D01*
X80804D01*
Y84067D01*
Y74645D01*
X80304Y74438D01*
X77601Y77140D01*
X77613Y77200D01*
X77498Y77779D01*
X77170Y78270D01*
X76679Y78598D01*
X76100Y78713D01*
X75521Y78598D01*
X75030Y78270D01*
X74702Y77779D01*
X74587Y77200D01*
X74702Y76621D01*
X75030Y76130D01*
X75189Y76024D01*
Y75422D01*
X75030Y75316D01*
X74702Y74825D01*
X74587Y74246D01*
X74702Y73667D01*
X75030Y73176D01*
X75040Y73169D01*
X75075Y72621D01*
X74754Y72311D01*
X72403D01*
Y73879D01*
X58329D01*
Y69398D01*
X57968D01*
Y69037D01*
X53487D01*
Y68925D01*
X50817D01*
X48378Y71364D01*
Y74096D01*
X48428Y74130D01*
X48756Y74621D01*
X48872Y75200D01*
X48756Y75779D01*
X48428Y76270D01*
X48378Y76304D01*
Y80380D01*
X49533D01*
Y87880D01*
X45184D01*
Y80380D01*
X46339D01*
Y76304D01*
X46288Y76270D01*
X45960Y75779D01*
X45845Y75200D01*
X45960Y74621D01*
X46288Y74130D01*
X46339Y74096D01*
Y70942D01*
X46416Y70552D01*
X46637Y70221D01*
X49674Y67185D01*
X50004Y66963D01*
X50394Y66886D01*
X53487D01*
Y63020D01*
X51522D01*
X41821Y72721D01*
X41490Y72942D01*
X41100Y73020D01*
X23730D01*
X23696Y73070D01*
X23205Y73398D01*
X22626Y73513D01*
X22047Y73398D01*
X21556Y73070D01*
X21228Y72579D01*
X21113Y72000D01*
X21228Y71421D01*
X21556Y70930D01*
X21606Y70896D01*
Y63982D01*
X20496D01*
Y75226D01*
X20879Y75302D01*
X21370Y75630D01*
X21698Y76121D01*
X21813Y76700D01*
X21698Y77279D01*
X21370Y77770D01*
X20879Y78098D01*
X20300Y78213D01*
X19994Y78152D01*
X19620Y78267D01*
X19470Y78519D01*
X19398Y78879D01*
X19070Y79370D01*
X18579Y79698D01*
X18000Y79813D01*
X17421Y79698D01*
X16930Y79370D01*
X16602Y78879D01*
X16487Y78300D01*
X16602Y77721D01*
X16332Y77224D01*
X15500D01*
Y74453D01*
Y71681D01*
X16980D01*
Y70919D01*
X12530D01*
Y66176D01*
X13980D01*
Y65322D01*
X12130Y63472D01*
X6343D01*
Y64923D01*
X1600D01*
Y59983D01*
X6343D01*
Y61433D01*
X12553D01*
X12943Y61511D01*
X13274Y61732D01*
X15680Y64139D01*
X15851Y64119D01*
X16180Y63967D01*
Y57429D01*
X14958Y56206D01*
X10018D01*
Y52522D01*
X4193D01*
X3779Y52798D01*
X3200Y52913D01*
X2621Y52798D01*
X2130Y52470D01*
X1802Y51979D01*
X1687Y51400D01*
X1802Y50821D01*
X2130Y50330D01*
X2621Y50002D01*
X3200Y49887D01*
X3779Y50002D01*
X4193Y50278D01*
X9618D01*
Y48724D01*
X17524D01*
Y50307D01*
X17124D01*
Y52841D01*
Y55488D01*
X17921Y56285D01*
X18142Y56616D01*
X18194Y56876D01*
X43206D01*
Y62799D01*
X43668Y62990D01*
X49990Y56668D01*
X49799Y56206D01*
X43876D01*
Y52841D01*
Y49691D01*
Y47157D01*
X43476D01*
Y45575D01*
X51382D01*
Y47157D01*
X50982D01*
Y48942D01*
X51482Y49110D01*
X51710Y48958D01*
X52100Y48880D01*
X52296D01*
X52330Y48830D01*
X52821Y48502D01*
X53400Y48387D01*
X53979Y48502D01*
X54470Y48830D01*
X54798Y49321D01*
X54831Y49487D01*
X55318Y49596D01*
X55363Y49595D01*
X58780Y46178D01*
Y45948D01*
X58509Y45561D01*
X53491D01*
Y43933D01*
X52713D01*
X52323Y43855D01*
X51992Y43634D01*
X51844Y43486D01*
X51382Y43677D01*
Y44575D01*
X43476D01*
Y42992D01*
X43876D01*
Y40242D01*
Y37449D01*
X30749Y37449D01*
X30749Y46300D01*
X30559Y46759D01*
X30100Y46949D01*
X17524D01*
Y47724D01*
X9618D01*
Y46142D01*
X9951D01*
X9950Y44008D01*
X9618D01*
Y42425D01*
X13571D01*
Y41425D01*
X9618D01*
Y39843D01*
X9951D01*
Y37600D01*
X9534Y37300D01*
X1200D01*
Y19500D01*
X17200D01*
Y36951D01*
X22618D01*
X22883Y36451D01*
X22702Y36179D01*
X22587Y35600D01*
X22599Y35540D01*
X18755Y31697D01*
X18534Y31367D01*
X18457Y30976D01*
Y30124D01*
X17794D01*
Y23018D01*
X20993D01*
X21160Y22707D01*
X21216Y22518D01*
X21113Y22000D01*
X21228Y21421D01*
X21556Y20930D01*
X22047Y20602D01*
X22626Y20487D01*
X23205Y20602D01*
X23696Y20930D01*
X24024Y21421D01*
X24139Y22000D01*
X24036Y22518D01*
X24092Y22707D01*
X24259Y23018D01*
X37354D01*
Y20726D01*
X37432Y20336D01*
X37653Y20005D01*
X39780Y17878D01*
Y4400D01*
X39858Y4010D01*
X40079Y3679D01*
X42758Y1000D01*
X42551Y500D01*
X39232D01*
Y2472D01*
X36264D01*
X33295D01*
Y500D01*
X9705D01*
Y2472D01*
X6736D01*
X3768D01*
Y500D01*
X500D01*
Y143100D01*
X42851D01*
X42851Y133649D01*
D02*
G37*
G36*
X115211Y74429D02*
X115471Y74253D01*
Y64564D01*
X115300Y64449D01*
X105838D01*
X105372Y64530D01*
Y65878D01*
X106739D01*
Y65022D01*
X113943D01*
Y68978D01*
X106739D01*
Y68122D01*
X105372D01*
Y69470D01*
X105372D01*
Y69530D01*
X105372D01*
Y70878D01*
X106739D01*
Y70022D01*
X113943D01*
Y73978D01*
X114250Y74351D01*
X114571D01*
X114690Y74400D01*
X114819D01*
X114948Y74454D01*
X114971Y74476D01*
X115211Y74429D01*
D02*
G37*
G36*
X42214Y64444D02*
X42023Y63982D01*
X29945D01*
Y66896D01*
X29995Y66930D01*
X30029Y66980D01*
X39678D01*
X42214Y64444D01*
D02*
G37*
G36*
X80804Y66355D02*
Y63100D01*
Y61067D01*
Y57000D01*
X80986Y56083D01*
X81506Y55306D01*
X81692Y55181D01*
X81741Y54683D01*
X80786Y53728D01*
X72403D01*
Y54602D01*
X72764D01*
Y54963D01*
X77246D01*
Y56932D01*
Y60869D01*
Y64917D01*
X78237D01*
X78627Y64995D01*
X78958Y65216D01*
X80304Y66562D01*
X80804Y66355D01*
D02*
G37*
G36*
X116160Y50046D02*
X117878D01*
Y48649D01*
X105720Y48649D01*
X105220Y49033D01*
Y51078D01*
X106622Y52480D01*
X108679D01*
Y50046D01*
X113816D01*
Y56351D01*
X116160D01*
Y50046D01*
D02*
G37*
G36*
X88546Y88500D02*
X88487Y88200D01*
X88602Y87621D01*
X88930Y87130D01*
X88980Y87096D01*
Y86600D01*
X89058Y86210D01*
X89279Y85879D01*
X89500Y85658D01*
Y49970D01*
X87806D01*
X87674Y50168D01*
X86321Y51521D01*
X85990Y51742D01*
X85600Y51820D01*
X82469D01*
X82262Y52320D01*
X83921Y53979D01*
X84142Y54310D01*
X84220Y54700D01*
Y54855D01*
X84894Y55306D01*
X85414Y56083D01*
X85596Y57000D01*
Y59033D01*
Y63100D01*
Y84067D01*
Y89000D01*
X88194D01*
X88546Y88500D01*
D02*
G37*
G36*
X30100Y36800D02*
X50400Y36800D01*
Y34600D01*
X26300D01*
Y37600D01*
X10600D01*
Y40000D01*
X26300D01*
X26300Y43900D01*
X10600D01*
X10600Y46300D01*
X30100D01*
X30100Y36800D01*
D02*
G37*
G36*
X124500Y32000D02*
X105500Y32000D01*
X105500Y48000D01*
X124500Y48000D01*
X124500Y32000D01*
D02*
G37*
G36*
X115300Y62200D02*
X126500D01*
Y57000D01*
X108200D01*
Y54800D01*
X99300Y54800D01*
X99300Y27400D01*
X79100Y27400D01*
X79100Y31500D01*
X94700Y31500D01*
Y59200D01*
X101100D01*
Y63800D01*
X115300D01*
Y62200D01*
D02*
G37*
G36*
X75378Y48404D02*
X75421Y48229D01*
X75502Y47821D01*
X75830Y47330D01*
X75880Y47296D01*
Y45561D01*
X72891D01*
Y40266D01*
X72491Y40134D01*
Y37587D01*
X75400D01*
Y37087D01*
X75900D01*
Y34039D01*
X77435D01*
Y31245D01*
X77513Y30855D01*
X77697Y30579D01*
X77677Y30500D01*
Y26913D01*
X76677D01*
Y30079D01*
X75587D01*
Y29679D01*
X69818D01*
X69627Y30141D01*
X70252Y30766D01*
X70252Y30766D01*
X70495Y31130D01*
X70581Y31559D01*
Y32123D01*
X71921D01*
Y38677D01*
X71160D01*
Y41375D01*
X71921D01*
Y47929D01*
X70551D01*
X70504Y48131D01*
X70880Y48601D01*
X74920D01*
X75378Y48404D01*
D02*
G37*
G36*
X53491Y41543D02*
X53491Y40375D01*
X53091Y40134D01*
X53091Y40025D01*
X53091Y40025D01*
Y37587D01*
X56000D01*
X58909D01*
Y40025D01*
X58909Y40025D01*
Y40134D01*
X58509Y40375D01*
X58509Y41176D01*
X59009Y41443D01*
X59221Y41302D01*
X59800Y41187D01*
X60379Y41302D01*
X60403Y41317D01*
X60879Y41375D01*
X60879Y41375D01*
X60879Y41375D01*
X61640D01*
Y38677D01*
X60879D01*
Y32123D01*
X62219D01*
Y31559D01*
X62219Y31559D01*
X62305Y31130D01*
X62548Y30766D01*
X63173Y30141D01*
X62982Y29679D01*
X57114D01*
Y30079D01*
X56024D01*
Y26913D01*
X55524D01*
Y26413D01*
X53933D01*
Y26076D01*
X53433Y25853D01*
X52948Y26177D01*
X52177Y26330D01*
X51406Y26177D01*
X50752Y25740D01*
X50315Y25086D01*
X50162Y24315D01*
X50315Y23544D01*
X50752Y22890D01*
X51406Y22453D01*
X52177Y22300D01*
X52618Y22388D01*
X52750Y22256D01*
X55327D01*
Y21256D01*
X53102D01*
X53180Y20866D01*
X53683Y20112D01*
X54437Y19609D01*
X55179Y19461D01*
X55087Y19000D01*
X55225Y18306D01*
X55619Y17717D01*
X56207Y17324D01*
X56902Y17186D01*
X57596Y17324D01*
X58184Y17717D01*
X58226Y17780D01*
X58726D01*
X58768Y17717D01*
X59357Y17324D01*
X60051Y17186D01*
X60746Y17324D01*
X61334Y17717D01*
X61376Y17780D01*
X61876D01*
X61918Y17717D01*
X62506Y17324D01*
X63201Y17186D01*
X63895Y17324D01*
X64484Y17717D01*
X64877Y18306D01*
X65015Y19000D01*
X64877Y19694D01*
X65250Y20036D01*
X65470Y20080D01*
X66059Y20473D01*
X66100Y20536D01*
X66600D01*
X66642Y20473D01*
X67231Y20080D01*
X67451Y20036D01*
X67824Y19694D01*
X67686Y19000D01*
X67824Y18306D01*
X68217Y17717D01*
X68806Y17324D01*
X69500Y17186D01*
X70194Y17324D01*
X70783Y17717D01*
X70825Y17780D01*
X71325D01*
X71367Y17717D01*
X71955Y17324D01*
X72650Y17186D01*
X73344Y17324D01*
X73933Y17717D01*
X73974Y17780D01*
X74474D01*
X74516Y17717D01*
X75105Y17324D01*
X75799Y17186D01*
X76494Y17324D01*
X77082Y17717D01*
X77476Y18306D01*
X77614Y19000D01*
X77522Y19461D01*
X78263Y19609D01*
X79018Y20112D01*
X79521Y20866D01*
X79599Y21256D01*
X77374D01*
Y22256D01*
X79951D01*
X80082Y22388D01*
X80524Y22300D01*
X81295Y22453D01*
X81949Y22890D01*
X82385Y23544D01*
X82539Y24315D01*
X82385Y25086D01*
X81949Y25740D01*
X81295Y26177D01*
X80923Y26250D01*
X80973Y26750D01*
X89500Y26750D01*
Y24157D01*
X88943Y23430D01*
X88590Y22579D01*
X88470Y21665D01*
X88590Y20752D01*
X88943Y19900D01*
X89500Y19174D01*
Y14157D01*
X88943Y13430D01*
X88634Y12685D01*
X87557D01*
X86521Y13721D01*
X86190Y13942D01*
X86058Y13968D01*
X85989Y14122D01*
X85958Y14498D01*
X86433Y14862D01*
X86876Y15440D01*
X87155Y16113D01*
X87250Y16835D01*
X87247D01*
X87247Y16835D01*
Y20772D01*
X87247Y20772D01*
X87250D01*
X87155Y21494D01*
X86876Y22166D01*
X86433Y22744D01*
X85855Y23187D01*
X85182Y23466D01*
X84461Y23561D01*
X83739Y23466D01*
X83066Y23187D01*
X82488Y22744D01*
X82045Y22166D01*
X81766Y21494D01*
X81671Y20772D01*
X81674D01*
Y16835D01*
X81671D01*
X81766Y16113D01*
X82045Y15440D01*
X82488Y14862D01*
X82935Y14520D01*
X82772Y14020D01*
X49929D01*
X49766Y14520D01*
X50212Y14862D01*
X50656Y15440D01*
X50934Y16113D01*
X51029Y16835D01*
X51027D01*
Y20772D01*
X51029D01*
X50934Y21494D01*
X50656Y22166D01*
X50212Y22744D01*
X49635Y23187D01*
X48962Y23466D01*
X48240Y23561D01*
X47518Y23466D01*
X46845Y23187D01*
X46268Y22744D01*
X45825Y22166D01*
X45546Y21494D01*
X45451Y20772D01*
X45453D01*
X45453Y20772D01*
Y16835D01*
X45453Y16835D01*
X45451D01*
X45546Y16113D01*
X45825Y15440D01*
X46268Y14862D01*
X46636Y14580D01*
X46484Y14103D01*
X46086Y14056D01*
X44520Y15622D01*
Y19500D01*
X44442Y19890D01*
X44221Y20221D01*
X42543Y21899D01*
Y23018D01*
X43206D01*
Y30124D01*
X33094D01*
Y31496D01*
X33145Y31530D01*
X33473Y32021D01*
X33588Y32600D01*
X33473Y33179D01*
X33292Y33451D01*
X33557Y33951D01*
X43876D01*
Y30794D01*
X46409D01*
Y29504D01*
X46359Y29470D01*
X46031Y28979D01*
X45916Y28400D01*
X46031Y27821D01*
X46359Y27330D01*
X46850Y27002D01*
X47429Y26887D01*
X48008Y27002D01*
X48499Y27330D01*
X48827Y27821D01*
X48943Y28400D01*
X48827Y28979D01*
X48499Y29470D01*
X48449Y29504D01*
Y30794D01*
X50982D01*
Y34437D01*
X51049Y34600D01*
Y36800D01*
X50982Y36963D01*
Y40906D01*
X51725D01*
X52115Y40983D01*
X52446Y41204D01*
X52991Y41749D01*
X53491Y41543D01*
D02*
G37*
G36*
X137962Y47962D02*
X138000Y47871D01*
Y16629D01*
X137962Y16538D01*
X137871Y16500D01*
X118129Y16500D01*
X118038Y16538D01*
X118000Y16629D01*
X118000Y25371D01*
X118038Y25462D01*
X118129Y25500D01*
X126000Y25500D01*
X126000Y47947D01*
X126129Y48000D01*
X137871D01*
X137962Y47962D01*
D02*
G37*
G36*
X95580Y9857D02*
Y4922D01*
X92978Y2320D01*
X90500D01*
Y8048D01*
X90916Y8326D01*
X91086Y8255D01*
X92000Y8135D01*
X92914Y8255D01*
X93765Y8608D01*
X94496Y9169D01*
X95057Y9900D01*
X95080Y9956D01*
X95580Y9857D01*
D02*
G37*
G36*
X83318Y11480D02*
X83066Y11376D01*
X82488Y10933D01*
X82045Y10355D01*
X81766Y9683D01*
X81671Y8961D01*
X81674D01*
Y5024D01*
X81671D01*
X81766Y4302D01*
X82045Y3629D01*
X82488Y3051D01*
X82790Y2820D01*
X82621Y2320D01*
X50080D01*
X49910Y2820D01*
X50212Y3051D01*
X50656Y3629D01*
X50934Y4302D01*
X51029Y5024D01*
X51027D01*
Y8961D01*
X51029D01*
X50934Y9683D01*
X50656Y10355D01*
X50212Y10933D01*
X49635Y11376D01*
X49383Y11480D01*
X49483Y11980D01*
X83218D01*
X83318Y11480D01*
D02*
G37*
G36*
X40504Y21476D02*
X40582Y21086D01*
X40803Y20755D01*
X42480Y19078D01*
Y15200D01*
X42558Y14810D01*
X42779Y14479D01*
X44979Y12279D01*
X45310Y12058D01*
X45700Y11980D01*
X46998D01*
X47097Y11480D01*
X46845Y11376D01*
X46268Y10933D01*
X45825Y10355D01*
X45546Y9683D01*
X45451Y8961D01*
X45453D01*
X45453Y8961D01*
Y5024D01*
X45453Y5024D01*
X45451D01*
X45546Y4302D01*
X45825Y3629D01*
X46268Y3051D01*
X46570Y2820D01*
X46400Y2320D01*
X44322D01*
X41820Y4822D01*
Y18300D01*
X41742Y18690D01*
X41521Y19021D01*
X39394Y21148D01*
Y23018D01*
X40504D01*
Y21476D01*
D02*
G37*
%LPC*%
G36*
X135697Y164697D02*
X133287D01*
Y162150D01*
X135697D01*
Y164697D01*
D02*
G37*
G36*
X132287D02*
X129878D01*
Y162150D01*
X132287D01*
Y164697D01*
D02*
G37*
G36*
X98461D02*
X95500D01*
Y160654D01*
X98461D01*
Y164697D01*
D02*
G37*
G36*
X94500D02*
X91539D01*
Y160654D01*
X94500D01*
Y164697D01*
D02*
G37*
G36*
X86461Y164661D02*
X83500D01*
Y160618D01*
X86461D01*
Y164661D01*
D02*
G37*
G36*
X82500D02*
X79539D01*
Y160618D01*
X82500D01*
Y164661D01*
D02*
G37*
G36*
X119427Y158555D02*
X117056D01*
Y156283D01*
X119427D01*
Y158555D01*
D02*
G37*
G36*
X116056D02*
X113686D01*
Y156283D01*
X116056D01*
Y158555D01*
D02*
G37*
G36*
X119427Y155283D02*
X117056D01*
Y153012D01*
X119427D01*
Y155283D01*
D02*
G37*
G36*
X116056D02*
X113686D01*
Y153012D01*
X116056D01*
Y155283D01*
D02*
G37*
G36*
X111409Y155323D02*
X109000D01*
Y152776D01*
X111409D01*
Y155323D01*
D02*
G37*
G36*
X108000D02*
X105591D01*
Y152776D01*
X108000D01*
Y155323D01*
D02*
G37*
G36*
X103622Y94268D02*
X100681D01*
Y92980D01*
X103622D01*
Y94268D01*
D02*
G37*
G36*
X132665Y100337D02*
X131280D01*
Y96433D01*
Y92529D01*
X132665D01*
Y92930D01*
X134824D01*
Y99937D01*
X132665D01*
Y100337D01*
D02*
G37*
G36*
X130280D02*
X128720D01*
Y96433D01*
Y92529D01*
X130280D01*
Y96433D01*
Y100337D01*
D02*
G37*
G36*
X135697Y74378D02*
X132195D01*
Y72500D01*
X135697D01*
Y74378D01*
D02*
G37*
G36*
X131195D02*
X127693D01*
Y72500D01*
X131195D01*
Y74378D01*
D02*
G37*
G36*
X135697Y71500D02*
X132195D01*
Y69622D01*
X135697D01*
Y71500D01*
D02*
G37*
G36*
X131195D02*
X127693D01*
Y69622D01*
X131195D01*
Y71500D01*
D02*
G37*
G36*
X135697Y64378D02*
X132195D01*
Y62500D01*
X135697D01*
Y64378D01*
D02*
G37*
G36*
X131195D02*
X127693D01*
Y62500D01*
X131195D01*
Y64378D01*
D02*
G37*
G36*
X135697Y61500D02*
X132195D01*
Y59622D01*
X135697D01*
Y61500D01*
D02*
G37*
G36*
X131195D02*
X127693D01*
Y59622D01*
X131195D01*
Y61500D01*
D02*
G37*
G36*
X135697Y57394D02*
X133189D01*
Y54000D01*
X135697D01*
Y57394D01*
D02*
G37*
G36*
X132189D02*
X129681D01*
Y54000D01*
X132189D01*
Y57394D01*
D02*
G37*
G36*
X135697Y53000D02*
X133189D01*
Y49606D01*
X135697D01*
Y53000D01*
D02*
G37*
G36*
X132189D02*
X129681D01*
Y49606D01*
X132189D01*
Y53000D01*
D02*
G37*
G36*
X112000Y25196D02*
X111086Y25075D01*
X110235Y24723D01*
X109504Y24162D01*
X108943Y23430D01*
X108590Y22579D01*
X108470Y21665D01*
X108590Y20752D01*
X108943Y19900D01*
X109504Y19169D01*
X110235Y18608D01*
X111086Y18255D01*
X112000Y18135D01*
X112914Y18255D01*
X113765Y18608D01*
X114496Y19169D01*
X115057Y19900D01*
X115410Y20752D01*
X115530Y21665D01*
X115410Y22579D01*
X115057Y23430D01*
X114496Y24162D01*
X113765Y24723D01*
X112914Y25075D01*
X112000Y25196D01*
D02*
G37*
G36*
Y15196D02*
X111086Y15075D01*
X110235Y14723D01*
X109504Y14162D01*
X108943Y13430D01*
X108590Y12579D01*
X108470Y11665D01*
X108590Y10752D01*
X108943Y9900D01*
X109504Y9169D01*
X110235Y8608D01*
X111086Y8255D01*
X112000Y8135D01*
X112914Y8255D01*
X113765Y8608D01*
X114496Y9169D01*
X115057Y9900D01*
X115410Y10752D01*
X115530Y11665D01*
X115410Y12579D01*
X115057Y13430D01*
X114496Y14162D01*
X113765Y14723D01*
X112914Y15075D01*
X112000Y15196D01*
D02*
G37*
G36*
X102000D02*
X101086Y15075D01*
X100235Y14723D01*
X99504Y14162D01*
X98943Y13430D01*
X98590Y12579D01*
X98470Y11665D01*
X98590Y10752D01*
X98943Y9900D01*
X99504Y9169D01*
X100235Y8608D01*
X101086Y8255D01*
X102000Y8135D01*
X102914Y8255D01*
X103765Y8608D01*
X104496Y9169D01*
X105057Y9900D01*
X105410Y10752D01*
X105530Y11665D01*
X105410Y12579D01*
X105057Y13430D01*
X104496Y14162D01*
X103765Y14723D01*
X102914Y15075D01*
X102000Y15196D01*
D02*
G37*
G36*
X125969Y11165D02*
X122500D01*
Y7697D01*
X123044Y7768D01*
X124017Y8171D01*
X124853Y8812D01*
X125494Y9648D01*
X125897Y10621D01*
X125969Y11165D01*
D02*
G37*
G36*
X121500D02*
X118031D01*
X118103Y10621D01*
X118506Y9648D01*
X119147Y8812D01*
X119983Y8171D01*
X120956Y7768D01*
X121500Y7697D01*
Y11165D01*
D02*
G37*
G36*
X71980Y133949D02*
X68331D01*
Y131874D01*
X71980D01*
Y133949D01*
D02*
G37*
G36*
X67331D02*
X63681D01*
Y131874D01*
X67331D01*
Y133949D01*
D02*
G37*
G36*
X71980Y130874D02*
X68331D01*
Y128799D01*
X71980D01*
Y130874D01*
D02*
G37*
G36*
X67331D02*
X63681D01*
Y128799D01*
X67331D01*
Y130874D01*
D02*
G37*
G36*
X71580Y127643D02*
X64081D01*
Y123294D01*
X71580D01*
Y127643D01*
D02*
G37*
G36*
Y121738D02*
X64081D01*
Y120583D01*
X62463D01*
X62073Y120505D01*
X61742Y120284D01*
X60460Y119001D01*
X60400Y119013D01*
X59821Y118898D01*
X59330Y118570D01*
X59002Y118079D01*
X58887Y117500D01*
X59002Y116921D01*
X59330Y116430D01*
X59821Y116102D01*
X60400Y115987D01*
X60979Y116102D01*
X61470Y116430D01*
X61798Y116921D01*
X61913Y117500D01*
X61901Y117560D01*
X62885Y118543D01*
X64081D01*
Y117388D01*
X71580D01*
Y121738D01*
D02*
G37*
G36*
Y115832D02*
X64081D01*
Y111483D01*
X71580D01*
Y115832D01*
D02*
G37*
G36*
Y109927D02*
X64081D01*
Y108772D01*
X25604D01*
X25570Y108822D01*
X25079Y109150D01*
X24500Y109265D01*
X23921Y109150D01*
X23430Y108822D01*
X23102Y108331D01*
X22987Y107752D01*
X23102Y107173D01*
X23430Y106682D01*
X23921Y106354D01*
X24500Y106239D01*
X25079Y106354D01*
X25570Y106682D01*
X25604Y106732D01*
X64081D01*
Y105577D01*
X71580D01*
Y109927D01*
D02*
G37*
G36*
Y104021D02*
X64081D01*
Y102866D01*
X23404D01*
X23370Y102917D01*
X22879Y103245D01*
X22300Y103360D01*
X21721Y103245D01*
X21230Y102917D01*
X20902Y102426D01*
X20787Y101847D01*
X20902Y101267D01*
X21230Y100776D01*
X21721Y100448D01*
X22300Y100333D01*
X22879Y100448D01*
X23370Y100776D01*
X23404Y100827D01*
X64081D01*
Y99672D01*
X71580D01*
Y104021D01*
D02*
G37*
G36*
Y98116D02*
X64081D01*
Y93766D01*
X71580D01*
Y98116D01*
D02*
G37*
G36*
X61344Y87880D02*
X56994D01*
Y80380D01*
X61344D01*
Y87880D01*
D02*
G37*
G36*
X55439D02*
X51089D01*
Y80380D01*
X55439D01*
Y87880D01*
D02*
G37*
G36*
X43628D02*
X39278D01*
Y80380D01*
X43628D01*
Y87880D01*
D02*
G37*
G36*
X37722D02*
X33372D01*
Y80380D01*
X37722D01*
Y87880D01*
D02*
G37*
G36*
X31817D02*
X27467D01*
Y80380D01*
X31817D01*
Y87880D01*
D02*
G37*
G36*
X25911D02*
X21561D01*
Y80380D01*
X25911D01*
Y87880D01*
D02*
G37*
G36*
X20006D02*
X15656D01*
Y80380D01*
X20006D01*
Y87880D01*
D02*
G37*
G36*
X6372Y71017D02*
X1628D01*
Y66077D01*
X6372D01*
Y67426D01*
X7079D01*
Y66176D01*
X12019D01*
Y70919D01*
X7079D01*
Y69669D01*
X6372D01*
Y71017D01*
D02*
G37*
G36*
X8000Y59613D02*
X7421Y59498D01*
X6930Y59170D01*
X6841Y59037D01*
X5343D01*
X5245Y59017D01*
X1600D01*
Y54077D01*
X6343D01*
Y56998D01*
X6978D01*
X7421Y56702D01*
X8000Y56587D01*
X8579Y56702D01*
X9070Y57030D01*
X9398Y57521D01*
X9513Y58100D01*
X9398Y58679D01*
X9070Y59170D01*
X8579Y59498D01*
X8000Y59613D01*
D02*
G37*
G36*
X31800Y21549D02*
X27406D01*
X26946Y21359D01*
X26756Y20900D01*
Y20149D01*
X26687Y19800D01*
X26756Y19451D01*
Y18701D01*
X26431Y18336D01*
X25173D01*
X24900Y18449D01*
X19129D01*
X19010Y18400D01*
X18881Y18400D01*
X18789Y18362D01*
X18698Y18271D01*
X18670Y18259D01*
X18658Y18231D01*
X18569Y18142D01*
X18541Y18130D01*
X18529Y18102D01*
X18438Y18011D01*
X18400Y17919D01*
X18400Y17790D01*
X18351Y17671D01*
Y10449D01*
X13029D01*
X12910Y10400D01*
X12781Y10400D01*
X12689Y10362D01*
X12598Y10271D01*
X12570Y10259D01*
X12558Y10231D01*
X12469Y10142D01*
X12441Y10130D01*
X12429Y10102D01*
X12338Y10011D01*
X12300Y9919D01*
X12300Y9790D01*
X12251Y9671D01*
Y4829D01*
X12300Y4710D01*
X12300Y4581D01*
X12338Y4489D01*
X12429Y4398D01*
X12441Y4370D01*
X12469Y4358D01*
X12558Y4269D01*
X12570Y4241D01*
X12598Y4229D01*
X12689Y4138D01*
X12781Y4100D01*
X12910Y4100D01*
X13029Y4051D01*
X30071D01*
X30190Y4100D01*
X30319Y4100D01*
X30411Y4138D01*
X30502Y4229D01*
X30530Y4241D01*
X30542Y4269D01*
X30631Y4358D01*
X30659Y4370D01*
X30671Y4398D01*
X30762Y4489D01*
X30800Y4581D01*
X30800Y4710D01*
X30849Y4829D01*
Y9800D01*
X30883Y9851D01*
X31800D01*
X32259Y10041D01*
X32449Y10500D01*
Y20900D01*
X32259Y21359D01*
X31800Y21549D01*
D02*
G37*
G36*
X14620Y18336D02*
X10664D01*
Y12806D01*
X14620D01*
Y18336D01*
D02*
G37*
G36*
X39232Y14602D02*
X36764D01*
Y12528D01*
X39232D01*
Y14602D01*
D02*
G37*
G36*
X9705D02*
X7236D01*
Y12528D01*
X9705D01*
Y14602D01*
D02*
G37*
G36*
X35764D02*
X33295D01*
Y12528D01*
X35764D01*
Y14602D01*
D02*
G37*
G36*
X6236D02*
X3768D01*
Y12528D01*
X6236D01*
Y14602D01*
D02*
G37*
G36*
X39232Y11528D02*
X36764D01*
Y9453D01*
X39232D01*
Y11528D01*
D02*
G37*
G36*
X35764D02*
X33295D01*
Y9453D01*
X35764D01*
Y11528D01*
D02*
G37*
G36*
X9705D02*
X7236D01*
Y9453D01*
X9705D01*
Y11528D01*
D02*
G37*
G36*
X6236D02*
X3768D01*
Y9453D01*
X6236D01*
Y11528D01*
D02*
G37*
G36*
X39232Y5547D02*
X36764D01*
Y3472D01*
X39232D01*
Y5547D01*
D02*
G37*
G36*
X9705D02*
X7236D01*
Y3472D01*
X9705D01*
Y5547D01*
D02*
G37*
G36*
X35764D02*
X33295D01*
Y3472D01*
X35764D01*
Y5547D01*
D02*
G37*
G36*
X6236D02*
X3768D01*
Y3472D01*
X6236D01*
Y5547D01*
D02*
G37*
%LPD*%
G36*
X31800Y10500D02*
X27406D01*
Y20900D01*
X31800D01*
Y10500D01*
D02*
G37*
G36*
X24900Y9800D02*
X30200D01*
X30200Y9800D01*
X30200D01*
X30200Y9800D01*
Y4829D01*
X30162Y4738D01*
X30071Y4700D01*
X13029D01*
X12938Y4738D01*
X12900Y4829D01*
Y9671D01*
X12938Y9762D01*
X13029Y9800D01*
X19000D01*
Y17671D01*
X19038Y17762D01*
X19129Y17800D01*
X24900D01*
Y9800D01*
D02*
G37*
%LPC*%
G36*
X114325Y47378D02*
X110823D01*
Y45500D01*
X114325D01*
Y47378D01*
D02*
G37*
G36*
X109823D02*
X106321D01*
Y45500D01*
X109823D01*
Y47378D01*
D02*
G37*
G36*
X114325Y44500D02*
X106321D01*
Y42878D01*
X106321Y42622D01*
X106321Y42122D01*
Y40500D01*
X114325D01*
Y42122D01*
X114325Y42378D01*
X114325Y42878D01*
Y44500D01*
D02*
G37*
G36*
Y39500D02*
X106321D01*
Y37878D01*
X106321Y37622D01*
X106321Y37122D01*
Y35500D01*
X114325D01*
Y37122D01*
X114325Y37378D01*
X114325Y37878D01*
Y39500D01*
D02*
G37*
G36*
Y34500D02*
X110823D01*
Y32622D01*
X114325D01*
Y34500D01*
D02*
G37*
G36*
X109823D02*
X106321D01*
Y32622D01*
X109823D01*
Y34500D01*
D02*
G37*
G36*
X74900Y36587D02*
X72491D01*
Y34039D01*
X74900D01*
Y36587D01*
D02*
G37*
G36*
X58909D02*
X56500D01*
Y34039D01*
X58909D01*
Y36587D01*
D02*
G37*
G36*
X55500D02*
X53091D01*
Y34039D01*
X55500D01*
Y36587D01*
D02*
G37*
G36*
X55024Y30079D02*
X53933D01*
Y27413D01*
X55024D01*
Y30079D01*
D02*
G37*
G36*
X135679Y47378D02*
X132177D01*
Y45500D01*
X135679D01*
Y47378D01*
D02*
G37*
G36*
X131177D02*
X127675D01*
Y45500D01*
X131177D01*
Y47378D01*
D02*
G37*
G36*
X135679Y44500D02*
X127675D01*
Y42878D01*
X127675Y42622D01*
X127675Y42122D01*
Y40500D01*
X135679D01*
Y42122D01*
X135679Y42378D01*
X135679Y42878D01*
Y44500D01*
D02*
G37*
G36*
Y39500D02*
X127675D01*
Y37878D01*
X127675Y37622D01*
X127675Y37122D01*
Y35500D01*
X135679D01*
Y37122D01*
X135679Y37378D01*
X135679Y37878D01*
Y39500D01*
D02*
G37*
G36*
Y34500D02*
X127675D01*
Y32878D01*
X127675Y32622D01*
X127675Y32122D01*
Y30500D01*
X135679D01*
Y32122D01*
X135679Y32378D01*
X135679Y32878D01*
Y34500D01*
D02*
G37*
G36*
Y29500D02*
X132177D01*
Y27622D01*
X135679D01*
Y29500D01*
D02*
G37*
G36*
X131177D02*
X127675D01*
Y27622D01*
X131177D01*
Y29500D01*
D02*
G37*
%LPD*%
D14*
X9426Y35626D02*
G03*
X4500Y30700I0J-4926D01*
G01*
X105717Y101084D02*
X106300Y100500D01*
X105717Y101084D02*
Y106916D01*
X105800Y107000D01*
X106700Y108216D02*
Y118400D01*
X105800Y107316D02*
X106700Y108216D01*
X105800Y107000D02*
Y107316D01*
X116400Y93900D02*
X123128D01*
X114500Y95800D02*
X116400Y93900D01*
X114500Y95800D02*
Y103000D01*
X123128Y93900D02*
X125661Y96433D01*
X81247Y34665D02*
X84200Y37618D01*
X81247Y34567D02*
Y34665D01*
X84200Y37618D02*
Y44100D01*
X78455Y31245D02*
Y38309D01*
X81047Y40902D01*
Y41000D01*
X79676Y42372D02*
X81047Y41000D01*
X75942Y42372D02*
X79676D01*
X75400Y42913D02*
X75942Y42372D01*
X76900Y44413D02*
Y48400D01*
X75400Y42913D02*
X76900Y44413D01*
X78455Y31245D02*
X80300Y29400D01*
X76100Y50800D02*
X85600D01*
X81209Y52709D02*
X83200Y54700D01*
X71272Y52709D02*
X81209D01*
X74920Y49621D02*
X76100Y50800D01*
X70079Y49621D02*
X74920D01*
X69303Y50397D02*
X70079Y49621D01*
X69303Y50397D02*
Y52709D01*
X69359Y45433D02*
Y48361D01*
X67466Y50254D02*
X69359Y48361D01*
X40500Y70000D02*
X50468Y60031D01*
X25776Y70000D02*
X40500D01*
X41100Y72000D02*
X51100Y62000D01*
X22626Y72000D02*
X41100D01*
X25776Y60429D02*
Y70000D01*
X22626Y60429D02*
Y72000D01*
X92504Y34567D02*
Y38696D01*
X40100Y68000D02*
X52005Y56094D01*
X28925Y68000D02*
X40100D01*
X28925Y60429D02*
Y68000D01*
X51100Y62000D02*
X56075D01*
X52005Y56094D02*
X56075D01*
X50468Y60031D02*
X56075D01*
X19476Y75876D02*
X20300Y76700D01*
X19476Y60429D02*
Y75876D01*
X18000Y65800D02*
Y78300D01*
X17200Y65000D02*
X18000Y65800D01*
X92504Y34567D02*
X92768Y34831D01*
X91900Y39300D02*
X92504Y38696D01*
X91900Y39300D02*
Y42700D01*
X86953Y41000D02*
Y47500D01*
Y49447D01*
X59800Y42700D02*
Y46600D01*
X56075Y50325D02*
X59800Y46600D01*
X56075Y50325D02*
Y56094D01*
X86953Y34567D02*
X92504D01*
X63398Y60031D02*
X65366Y62000D01*
X63398Y52709D02*
Y60031D01*
X110260Y108740D02*
Y111500D01*
Y108740D02*
X111900Y107100D01*
X113000Y104400D02*
X114000Y105400D01*
X113000Y98200D02*
Y104400D01*
X114500Y103000D02*
X115740Y104240D01*
X118921D01*
X114000Y105400D02*
Y115502D01*
X137400Y68000D02*
Y88400D01*
X135800Y90000D02*
X137400Y88400D01*
X91006Y90000D02*
X135800D01*
X88090Y92917D02*
X91006Y90000D01*
X122200Y85500D02*
X126311D01*
X117989D02*
X122200D01*
X97000Y102500D02*
X102300D01*
X96500Y103000D02*
X97000Y102500D01*
X97692Y110408D02*
X100181D01*
X95800Y112300D02*
X97692Y110408D01*
X86865Y112300D02*
X95800D01*
X50394Y67905D02*
X56075D01*
X47358Y70942D02*
X50394Y67905D01*
X47358Y70942D02*
Y75200D01*
Y84130D01*
X78084Y68784D02*
Y72261D01*
X77205Y67905D02*
X78084Y68784D01*
X74657Y67905D02*
X77205D01*
X76100Y74246D02*
X78084Y72261D01*
X76100Y77200D02*
X79800Y73500D01*
Y67500D02*
Y73500D01*
X78237Y65937D02*
X79800Y67500D01*
X74657Y65937D02*
X78237D01*
X91100Y85500D02*
X95421D01*
X90000Y86600D02*
X91100Y85500D01*
X90000Y86600D02*
Y88200D01*
X71272Y71291D02*
X76100D01*
X82883Y92917D02*
X88090D01*
X96600Y92500D02*
Y96600D01*
X95873Y97327D02*
X96600Y96600D01*
X92819Y97327D02*
X95873D01*
X80047Y95752D02*
X82883Y92917D01*
X100508Y97000D02*
X104700D01*
X100181Y97327D02*
X100508Y97000D01*
X96500Y103000D02*
Y107100D01*
X95750Y107850D02*
X96500Y107100D01*
X92819Y107850D02*
X95750D01*
X99794Y100273D02*
X100181Y99886D01*
X97074Y100273D02*
X99794D01*
X95674Y101673D02*
X97074Y100273D01*
X85988Y101673D02*
X95674D01*
X102743Y107850D02*
X104600Y109706D01*
X100181Y107850D02*
X102743D01*
X104600Y109706D02*
Y113000D01*
X105100Y116400D02*
Y121600D01*
X103600Y114900D02*
X105100Y116400D01*
X100181Y114900D02*
X103600D01*
X107877Y119577D02*
X110811D01*
X106700Y118400D02*
X107877Y119577D01*
X62463Y119563D02*
X67831D01*
X60400Y117500D02*
X62463Y119563D01*
X83200Y54700D02*
Y57000D01*
X66400Y44652D02*
Y48400D01*
X52100Y49900D02*
X53400D01*
X50626Y51374D02*
X52100Y49900D01*
X47429Y51374D02*
X50626D01*
X19476Y30976D02*
X24100Y35600D01*
X19476Y26571D02*
Y30976D01*
X70140Y35400D02*
Y44652D01*
X62660Y35400D02*
Y44652D01*
X69359Y45433D02*
X70140Y44652D01*
X67466Y50254D02*
Y52577D01*
X67335Y52709D02*
X67466Y52577D01*
X63441Y45433D02*
Y48341D01*
X62660Y44652D02*
X63441Y45433D01*
Y48341D02*
X65235Y50135D01*
Y52577D01*
X65366Y52709D01*
X97400Y114900D02*
X100181D01*
X96500Y115800D02*
X97400Y114900D01*
X96500Y115800D02*
Y121061D01*
X87000Y122200D02*
X95362D01*
X85953Y121153D02*
X87000Y122200D01*
X85953Y119000D02*
Y121153D01*
X95362Y122200D02*
X96500Y121061D01*
X87035Y94768D02*
X92819D01*
X80047Y95752D02*
Y95850D01*
X85953D02*
X87035Y94768D01*
X80047Y95850D02*
Y101638D01*
X106300Y100500D02*
X109079D01*
X136400Y67000D02*
X137400Y68000D01*
X131695Y67000D02*
X136400D01*
X114000Y115502D02*
X117189Y118691D01*
Y119577D01*
X111600Y96800D02*
X113000Y98200D01*
X109119Y96800D02*
X111600D01*
X109079Y96760D02*
X109119Y96800D01*
X120360Y96760D02*
X125661Y102061D01*
X118921Y96760D02*
X120360D01*
X125661Y102061D02*
Y119567D01*
X124100Y102700D02*
Y110300D01*
X122900Y111500D02*
X124100Y110300D01*
X117740Y111500D02*
X122900D01*
X121900Y100500D02*
X124100Y102700D01*
X118921Y100500D02*
X121900D01*
X99867Y120414D02*
Y125000D01*
Y120414D02*
X100181Y120100D01*
X85953Y113213D02*
X86865Y112300D01*
X88087Y105290D02*
X92819D01*
X87423Y105955D02*
X88087Y105290D01*
X87324Y105955D02*
X87423D01*
X85953Y107327D02*
X87324Y105955D01*
X85953Y107327D02*
Y107425D01*
Y101638D02*
X85988Y101673D01*
X80047Y107425D02*
Y113213D01*
Y101638D02*
Y107425D01*
X7917Y58017D02*
X8000Y58100D01*
X5343Y58017D02*
X7917D01*
X3972Y56646D02*
X5343Y58017D01*
X3972Y56547D02*
Y56646D01*
X85600Y50800D02*
X86953Y49447D01*
X6736Y15636D02*
X9224Y18124D01*
X6736Y12028D02*
Y15636D01*
X4500Y24000D02*
Y30700D01*
X9426Y35626D02*
X13571D01*
X13949Y24000D02*
Y32098D01*
X13571Y32476D02*
X13949Y32098D01*
X9224Y18124D02*
Y24000D01*
X25776Y26571D02*
Y32600D01*
X24500Y107752D02*
X67831D01*
X22300Y101847D02*
X67831D01*
X12405D02*
X14000Y100251D01*
X9169Y101847D02*
X12405D01*
X14000Y87300D02*
Y100251D01*
X9549Y82849D02*
X14000Y87300D01*
X16835Y90035D02*
X67831D01*
X17200Y57006D02*
Y65000D01*
X14717Y54524D02*
X17200Y57006D01*
X13571Y54524D02*
X14717D01*
X12553Y62453D02*
X15000Y64900D01*
Y68547D01*
X3972Y62453D02*
X12553D01*
X9549Y80525D02*
Y82849D01*
Y74453D02*
Y80525D01*
X52713Y42913D02*
X56000D01*
X51725Y41925D02*
X52713Y42913D01*
X47429Y41925D02*
X51725D01*
X22626Y22000D02*
Y26571D01*
X32075D02*
Y32600D01*
X28925Y26571D02*
Y32600D01*
X105700Y30000D02*
X110323D01*
X104200Y31500D02*
X105700Y30000D01*
X47429Y28400D02*
Y32476D01*
X40800Y4400D02*
X43900Y1300D01*
X40800Y4400D02*
Y18300D01*
X38374Y20726D02*
X40800Y18300D01*
X38374Y20726D02*
Y26571D01*
X45700Y13000D02*
X85800D01*
X43500Y15200D02*
X45700Y13000D01*
X43500Y15200D02*
Y19500D01*
X41524Y21476D02*
X43500Y19500D01*
X41524Y21476D02*
Y26571D01*
X87135Y11665D02*
X92000D01*
X85800Y13000D02*
X87135Y11665D01*
X43900Y1300D02*
X93400D01*
X96600Y4500D02*
Y16265D01*
X93400Y1300D02*
X96600Y4500D01*
Y16265D02*
X102000Y21665D01*
X104200Y31500D02*
Y51500D01*
X106200Y53500D01*
X111248D01*
D16*
X85000Y155100D02*
X100900D01*
X83000Y153100D02*
X85000Y155100D01*
X83000Y149882D02*
Y153100D01*
X102500Y156700D02*
Y158185D01*
X100900Y155100D02*
X102500Y156700D01*
Y158185D02*
Y160400D01*
X103750Y161650D01*
X108500D01*
X116556Y161689D02*
X124554D01*
X100200Y149586D02*
X102500Y151886D01*
X100200Y146400D02*
Y149586D01*
X96100Y134200D02*
Y137700D01*
X81900Y134000D02*
X85900D01*
X3200Y51400D02*
X13545D01*
X13571Y51374D01*
X103000Y67000D02*
X110340D01*
X103000Y72000D02*
X110340D01*
X97095D02*
Y77000D01*
Y62000D02*
Y67000D01*
X101500Y77000D02*
X103000D01*
X100065Y75565D02*
X101500Y77000D01*
X100065Y63535D02*
Y75565D01*
X101600Y62000D02*
X103000D01*
X100065Y63535D02*
X101600Y62000D01*
X119000Y41500D02*
Y53228D01*
X118728Y53500D02*
X119000Y53228D01*
X118728Y53500D02*
X126311D01*
X5474Y131374D02*
X9169D01*
X4000Y129900D02*
X5474Y131374D01*
X4000Y74453D02*
Y129900D01*
Y68547D02*
X9549D01*
X63341Y31559D02*
X65366Y29534D01*
Y26913D02*
Y29534D01*
X67335Y29435D02*
X69459Y31559D01*
X67335Y26913D02*
Y29435D01*
X69459Y31559D02*
Y34719D01*
X63341Y31559D02*
Y34719D01*
X62660Y35400D02*
X63341Y34719D01*
X69459D02*
X70140Y35400D01*
D18*
X86134Y20772D02*
G03*
X84461Y22445I-1673J0D01*
G01*
D02*
G03*
X82787Y20772I0J-1673D01*
G01*
X84461Y15161D02*
G03*
X86134Y16835I0J1673D01*
G01*
Y8961D02*
G03*
X84461Y10634I-1673J0D01*
G01*
Y3350D02*
G03*
X86134Y5024I0J1673D01*
G01*
X82787Y16835D02*
G03*
X84461Y15161I1673J0D01*
G01*
Y10634D02*
G03*
X82787Y8961I0J-1673D01*
G01*
Y5024D02*
G03*
X84461Y3350I1673J0D01*
G01*
X49913Y20772D02*
G03*
X48240Y22445I-1673J0D01*
G01*
D02*
G03*
X46567Y20772I0J-1673D01*
G01*
X48240Y15161D02*
G03*
X49913Y16835I0J1673D01*
G01*
Y8961D02*
G03*
X48240Y10634I-1673J0D01*
G01*
Y3350D02*
G03*
X49913Y5024I0J1673D01*
G01*
X46567Y16835D02*
G03*
X48240Y15161I1673J0D01*
G01*
Y10634D02*
G03*
X46567Y8961I0J-1673D01*
G01*
Y5024D02*
G03*
X48240Y3350I1673J0D01*
G01*
X86134Y16835D02*
Y20772D01*
X82787Y16835D02*
Y20772D01*
X86134Y5024D02*
Y8961D01*
X82787Y5024D02*
Y8961D01*
X49913Y16835D02*
Y20772D01*
X46567Y16835D02*
Y20772D01*
X49913Y5024D02*
Y8961D01*
X46567Y5024D02*
Y8961D01*
D19*
X100500Y133500D02*
D03*
D20*
X67831Y119563D02*
D03*
Y113657D02*
D03*
Y131374D02*
D03*
Y125469D02*
D03*
Y95941D02*
D03*
Y90035D02*
D03*
Y107752D02*
D03*
Y101847D02*
D03*
X9169Y131374D02*
D03*
Y125469D02*
D03*
Y119563D02*
D03*
Y107752D02*
D03*
Y113657D02*
D03*
Y101847D02*
D03*
Y95941D02*
D03*
Y90035D02*
D03*
D21*
X59169Y84130D02*
D03*
X47358D02*
D03*
X53264D02*
D03*
X17831D02*
D03*
X23736D02*
D03*
X35547D02*
D03*
X41453D02*
D03*
X29642D02*
D03*
D22*
X100181Y120100D02*
D03*
Y114900D02*
D03*
X92819Y120100D02*
D03*
Y117500D02*
D03*
Y114900D02*
D03*
X100181Y110408D02*
D03*
Y105290D02*
D03*
Y107850D02*
D03*
X92819D02*
D03*
Y110408D02*
D03*
Y105290D02*
D03*
X100181Y99886D02*
D03*
Y94768D02*
D03*
Y97327D02*
D03*
X92819D02*
D03*
Y99886D02*
D03*
Y94768D02*
D03*
D23*
X85953Y101638D02*
D03*
X80047D02*
D03*
X124554Y161689D02*
D03*
Y155783D02*
D03*
X85953Y107425D02*
D03*
X80047D02*
D03*
X85953Y95850D02*
D03*
X80047D02*
D03*
X85953Y113213D02*
D03*
X80047D02*
D03*
X85953Y119000D02*
D03*
X80047D02*
D03*
X103000Y67000D02*
D03*
X97095D02*
D03*
X103000Y72000D02*
D03*
X97095D02*
D03*
X87153Y34567D02*
D03*
X81247D02*
D03*
X87153Y41000D02*
D03*
X81247D02*
D03*
X87153Y47500D02*
D03*
X81247D02*
D03*
X4000Y74453D02*
D03*
Y68547D02*
D03*
X3972Y56547D02*
D03*
Y62453D02*
D03*
D24*
X95000Y160153D02*
D03*
Y149917D02*
D03*
X83000Y160118D02*
D03*
Y149882D02*
D03*
D25*
X96100Y137700D02*
D03*
Y130300D02*
D03*
X85900Y137700D02*
D03*
Y134000D02*
D03*
Y130300D02*
D03*
D26*
X102500Y158185D02*
D03*
Y151886D02*
D03*
D27*
X108500Y161650D02*
D03*
Y155823D02*
D03*
X132787Y161650D02*
D03*
Y155823D02*
D03*
X75400Y42913D02*
D03*
Y37087D02*
D03*
X56000Y42913D02*
D03*
Y37087D02*
D03*
D28*
X116556Y161689D02*
D03*
Y155783D02*
D03*
X103000Y62000D02*
D03*
X97095D02*
D03*
X103000Y77000D02*
D03*
X97095D02*
D03*
X15000Y74453D02*
D03*
Y68547D02*
D03*
X9549Y74453D02*
D03*
Y68547D02*
D03*
D29*
X131669Y137500D02*
D03*
D30*
X105331Y146516D02*
D03*
Y137500D02*
D03*
Y128484D02*
D03*
D31*
X117740Y111500D02*
D03*
X110260D02*
D03*
X102902Y85500D02*
D03*
X95421D02*
D03*
X118728Y53500D02*
D03*
X111248D02*
D03*
D32*
X118921Y100500D02*
D03*
Y104240D02*
D03*
Y96760D02*
D03*
X109079Y104240D02*
D03*
Y100500D02*
D03*
Y96760D02*
D03*
D33*
X117189Y119577D02*
D03*
X110811D02*
D03*
X117989Y85500D02*
D03*
X111611D02*
D03*
X132689D02*
D03*
X126311D02*
D03*
X132689Y53500D02*
D03*
X126311D02*
D03*
D34*
X133339Y119567D02*
D03*
X128220D02*
D03*
X125661D02*
D03*
X130780D02*
D03*
Y96433D02*
D03*
X128220D02*
D03*
X133339D02*
D03*
X125661D02*
D03*
D35*
X131695Y72000D02*
D03*
Y77000D02*
D03*
Y67000D02*
D03*
Y62000D02*
D03*
X110340Y72000D02*
D03*
Y77000D02*
D03*
Y67000D02*
D03*
Y62000D02*
D03*
X131677Y45000D02*
D03*
Y40000D02*
D03*
Y35000D02*
D03*
Y30000D02*
D03*
X110323D02*
D03*
Y35000D02*
D03*
Y40000D02*
D03*
Y45000D02*
D03*
D36*
X121018Y69500D02*
D03*
D37*
X74657Y67905D02*
D03*
Y65937D02*
D03*
Y62000D02*
D03*
Y60031D02*
D03*
Y63968D02*
D03*
Y58063D02*
D03*
Y56094D02*
D03*
X56075Y67905D02*
D03*
Y65937D02*
D03*
Y63968D02*
D03*
Y60031D02*
D03*
Y58063D02*
D03*
Y62000D02*
D03*
Y56094D02*
D03*
D38*
X69303Y71291D02*
D03*
X71272D02*
D03*
X61429D02*
D03*
X67335D02*
D03*
X65366D02*
D03*
X63398D02*
D03*
X69303Y52709D02*
D03*
X71272D02*
D03*
X67335D02*
D03*
X63398D02*
D03*
X65366D02*
D03*
X61429D02*
D03*
X59461Y71291D02*
D03*
Y52709D02*
D03*
D39*
X65366Y62000D02*
D03*
D40*
X47429Y54524D02*
D03*
Y51374D02*
D03*
Y48224D02*
D03*
Y45075D02*
D03*
Y38776D02*
D03*
Y41925D02*
D03*
Y32476D02*
D03*
Y35626D02*
D03*
X13571Y48224D02*
D03*
Y54524D02*
D03*
Y51374D02*
D03*
Y45075D02*
D03*
Y38776D02*
D03*
Y41925D02*
D03*
Y35626D02*
D03*
Y32476D02*
D03*
D41*
X41524Y60429D02*
D03*
X35224D02*
D03*
X32075D02*
D03*
X38374D02*
D03*
X41524Y26571D02*
D03*
X35224D02*
D03*
X32075D02*
D03*
X38374D02*
D03*
X28925Y60429D02*
D03*
X25776D02*
D03*
X22626D02*
D03*
X19476D02*
D03*
X28925Y26571D02*
D03*
X25776D02*
D03*
X22626D02*
D03*
X19476D02*
D03*
D42*
X77177Y26913D02*
D03*
X75209D02*
D03*
X69303D02*
D03*
X67335D02*
D03*
X73240D02*
D03*
X71272D02*
D03*
X61429D02*
D03*
X59461D02*
D03*
X65366D02*
D03*
X63398D02*
D03*
X57492D02*
D03*
X55524D02*
D03*
D43*
X13949Y24000D02*
D03*
X4500D02*
D03*
X9224D02*
D03*
D44*
X36264Y2972D02*
D03*
Y12028D02*
D03*
X6736Y2972D02*
D03*
Y12028D02*
D03*
D45*
X30358Y15571D02*
D03*
X24453D02*
D03*
X12642D02*
D03*
D46*
X62660Y35400D02*
D03*
X66400D02*
D03*
X70140D02*
D03*
Y44652D02*
D03*
X66400D02*
D03*
X62660D02*
D03*
D47*
X101232Y51169D02*
D03*
X92768D02*
D03*
X101232Y34831D02*
D03*
X92768D02*
D03*
D82*
X83200Y63100D02*
Y84067D01*
Y61067D02*
Y63100D01*
Y57000D02*
Y59033D01*
Y61067D01*
Y86100D02*
Y88133D01*
Y84067D02*
Y86100D01*
Y88133D02*
Y90167D01*
D83*
X55524Y21953D02*
Y26913D01*
X77177Y21953D02*
X77374Y21756D01*
X77177Y21953D02*
Y26913D01*
X61429Y21953D02*
X61626Y21756D01*
X61429Y21953D02*
Y26913D01*
X71075Y21756D02*
X71272Y21953D01*
X55327Y21756D02*
X55524Y21953D01*
X71272D02*
Y26913D01*
D84*
X80524Y24315D02*
D03*
X52177D02*
D03*
D85*
X84461Y18803D02*
D03*
Y6992D02*
D03*
X48240Y18803D02*
D03*
Y6992D02*
D03*
D86*
X77374Y21756D02*
D03*
X75799Y19000D02*
D03*
X72650D02*
D03*
X71075Y21756D02*
D03*
X69500Y19000D02*
D03*
X67925Y21756D02*
D03*
X64776D02*
D03*
X63201Y19000D02*
D03*
X61626Y21756D02*
D03*
X55327D02*
D03*
X60051Y19000D02*
D03*
X56902D02*
D03*
D87*
X27406Y7500D02*
D03*
X15595D02*
D03*
D88*
X122000Y11665D02*
D03*
X112000D02*
D03*
X102000D02*
D03*
X92000D02*
D03*
Y21665D02*
D03*
X102000D02*
D03*
X112000D02*
D03*
X122000D02*
D03*
D89*
X110000Y125500D02*
D03*
X112000D02*
D03*
X103200Y105200D02*
D03*
X105800Y107000D02*
D03*
X113500Y93000D02*
D03*
X100000Y3500D02*
D03*
X102000D02*
D03*
X104000D02*
D03*
X106000D02*
D03*
X108000D02*
D03*
X110000D02*
D03*
X112000D02*
D03*
X114000D02*
D03*
X130000Y7500D02*
D03*
X132000Y9500D02*
D03*
Y7500D02*
D03*
X128000Y5500D02*
D03*
X130000D02*
D03*
X132000D02*
D03*
X134000D02*
D03*
Y7500D02*
D03*
Y9500D02*
D03*
Y11500D02*
D03*
X136000Y13500D02*
D03*
Y11500D02*
D03*
Y9500D02*
D03*
Y7500D02*
D03*
Y5500D02*
D03*
Y3500D02*
D03*
X134000D02*
D03*
X132000D02*
D03*
X130000D02*
D03*
X128000D02*
D03*
X126000D02*
D03*
X124000D02*
D03*
X122000D02*
D03*
X118000D02*
D03*
X120000D02*
D03*
X116000D02*
D03*
X102000Y37500D02*
D03*
X66400Y33200D02*
D03*
X90700Y29400D02*
D03*
X88620D02*
D03*
X86540D02*
D03*
X84460D02*
D03*
X82380D02*
D03*
X20000Y19620D02*
D03*
Y21500D02*
D03*
X38000Y31500D02*
D03*
X36000D02*
D03*
X83300Y46800D02*
D03*
X101900D02*
D03*
X40000Y75500D02*
D03*
X84200Y44100D02*
D03*
X28925Y68000D02*
D03*
X18000Y78300D02*
D03*
X22626Y72000D02*
D03*
X25776Y70000D02*
D03*
X91900Y42700D02*
D03*
X76900Y48400D02*
D03*
X59800Y42700D02*
D03*
X62000Y67500D02*
D03*
X64000D02*
D03*
X70000D02*
D03*
X68000D02*
D03*
X66000D02*
D03*
X116000Y149500D02*
D03*
X112000D02*
D03*
X36000Y111500D02*
D03*
X42000D02*
D03*
X48000D02*
D03*
Y117500D02*
D03*
X42000D02*
D03*
X36000D02*
D03*
X8000Y85500D02*
D03*
X76000Y83500D02*
D03*
X66000Y81500D02*
D03*
X52000Y17500D02*
D03*
X80000D02*
D03*
X111900Y107100D02*
D03*
X122200Y85500D02*
D03*
X89200Y116200D02*
D03*
X47358Y75200D02*
D03*
X76100Y74246D02*
D03*
X90000Y88200D02*
D03*
X76100Y77200D02*
D03*
Y71291D02*
D03*
X96600Y92500D02*
D03*
X104700Y97000D02*
D03*
X102300Y102550D02*
D03*
X104600Y113000D02*
D03*
X60400Y117500D02*
D03*
X91707Y125000D02*
D03*
X66400Y48400D02*
D03*
X53400Y49900D02*
D03*
X24100Y35600D02*
D03*
X105100Y121600D02*
D03*
X122000Y120207D02*
D03*
Y122247D02*
D03*
Y124287D02*
D03*
Y118167D02*
D03*
X96100Y134200D02*
D03*
X100200Y146400D02*
D03*
X81900Y134000D02*
D03*
X89667Y125000D02*
D03*
X19475Y7500D02*
D03*
X23525D02*
D03*
X21500D02*
D03*
X95787Y125000D02*
D03*
X93747D02*
D03*
X83200Y88133D02*
D03*
Y86100D02*
D03*
Y84067D02*
D03*
Y63100D02*
D03*
Y61067D02*
D03*
Y57000D02*
D03*
X99867Y125000D02*
D03*
X97827D02*
D03*
X83200Y90167D02*
D03*
Y59033D02*
D03*
X8000Y58100D02*
D03*
X3200Y51400D02*
D03*
X30200Y19800D02*
D03*
X28200D02*
D03*
Y17775D02*
D03*
X30200D02*
D03*
X110300Y80700D02*
D03*
X107300D02*
D03*
X101300D02*
D03*
X104300D02*
D03*
X113300D02*
D03*
X28200Y13725D02*
D03*
Y11700D02*
D03*
X30200D02*
D03*
Y13725D02*
D03*
X28200Y15750D02*
D03*
X30200D02*
D03*
X80300Y29400D02*
D03*
X117900Y78400D02*
D03*
Y80800D02*
D03*
X120900Y78400D02*
D03*
Y80800D02*
D03*
X123900D02*
D03*
Y78400D02*
D03*
Y58500D02*
D03*
Y60900D02*
D03*
X120900D02*
D03*
Y58500D02*
D03*
X117900Y60900D02*
D03*
Y58500D02*
D03*
X25776Y32600D02*
D03*
X14000Y100251D02*
D03*
X24500Y107752D02*
D03*
X22300Y101847D02*
D03*
X16835Y90035D02*
D03*
X20300Y76700D02*
D03*
X9549Y80525D02*
D03*
X32075Y32600D02*
D03*
X28925D02*
D03*
X105700Y30000D02*
D03*
X47429Y28400D02*
D03*
X22626Y22000D02*
D03*
X28300Y41300D02*
D03*
Y44300D02*
D03*
X119000Y133000D02*
D03*
X125000Y142000D02*
D03*
X122000Y133000D02*
D03*
X125000Y139000D02*
D03*
Y136000D02*
D03*
Y133000D02*
D03*
X119000Y136000D02*
D03*
X122000D02*
D03*
Y139000D02*
D03*
X119000D02*
D03*
X122000Y142000D02*
D03*
X119000D02*
D03*
Y41500D02*
D03*
X122000D02*
D03*
X119000Y38500D02*
D03*
X122000D02*
D03*
Y35500D02*
D03*
X119000D02*
D03*
M02*
